<?xml version="1.0" encoding="UTF-8"?>

<svg version="1.2" baseProfile="tiny" width="81.99mm" height="105.15mm" viewBox="11255 5747 8199 10515" preserveAspectRatio="xMidYMid" fill-rule="evenodd" stroke-width="28.222" stroke-linejoin="round" xmlns="http://www.w3.org/2000/svg" xmlns:ooo="http://xml.openoffice.org/svg/export" xmlns:xlink="http://www.w3.org/1999/xlink" xml:space="preserve">
 <defs class="ClipPathGroup">
  <clipPath id="presentation_clip_path" clipPathUnits="userSpaceOnUse">
   <rect x="11255" y="5747" width="8199" height="10515"/>
  </clipPath>
 </defs>
 <defs class="TextShapeIndex">
  <g ooo:slide="id1" ooo:id-list="id3 id4 id5 id6 id7 id8 id9 id10 id11 id12"/>
 </defs>
 <defs class="EmbeddedBulletChars">
  <g id="bullet-char-template(57356)" transform="scale(0.00048828125,-0.00048828125)">
   <path d="M 580,1141 L 1163,571 580,0 -4,571 580,1141 Z"/>
  </g>
  <g id="bullet-char-template(57354)" transform="scale(0.00048828125,-0.00048828125)">
   <path d="M 8,1128 L 1137,1128 1137,0 8,0 8,1128 Z"/>
  </g>
  <g id="bullet-char-template(10146)" transform="scale(0.00048828125,-0.00048828125)">
   <path d="M 174,0 L 602,739 174,1481 1456,739 174,0 Z M 1358,739 L 309,1346 659,739 1358,739 Z"/>
  </g>
  <g id="bullet-char-template(10132)" transform="scale(0.00048828125,-0.00048828125)">
   <path d="M 2015,739 L 1276,0 717,0 1260,543 174,543 174,936 1260,936 717,1481 1274,1481 2015,739 Z"/>
  </g>
  <g id="bullet-char-template(10007)" transform="scale(0.00048828125,-0.00048828125)">
   <path d="M 0,-2 C -7,14 -16,27 -25,37 L 356,567 C 262,823 215,952 215,954 215,979 228,992 255,992 264,992 276,990 289,987 310,991 331,999 354,1012 L 381,999 492,748 772,1049 836,1024 860,1049 C 881,1039 901,1025 922,1006 886,937 835,863 770,784 769,783 710,716 594,584 L 774,223 C 774,196 753,168 711,139 L 727,119 C 717,90 699,76 672,76 641,76 570,178 457,381 L 164,-76 C 142,-110 111,-127 72,-127 30,-127 9,-110 8,-76 1,-67 -2,-52 -2,-32 -2,-23 -1,-13 0,-2 Z"/>
  </g>
  <g id="bullet-char-template(10004)" transform="scale(0.00048828125,-0.00048828125)">
   <path d="M 285,-33 C 182,-33 111,30 74,156 52,228 41,333 41,471 41,549 55,616 82,672 116,743 169,778 240,778 293,778 328,747 346,684 L 369,508 C 377,444 397,411 428,410 L 1163,1116 C 1174,1127 1196,1133 1229,1133 1271,1133 1292,1118 1292,1087 L 1292,965 C 1292,929 1282,901 1262,881 L 442,47 C 390,-6 338,-33 285,-33 Z"/>
  </g>
  <g id="bullet-char-template(9679)" transform="scale(0.00048828125,-0.00048828125)">
   <path d="M 813,0 C 632,0 489,54 383,161 276,268 223,411 223,592 223,773 276,916 383,1023 489,1130 632,1184 813,1184 992,1184 1136,1130 1245,1023 1353,916 1407,772 1407,592 1407,412 1353,268 1245,161 1136,54 992,0 813,0 Z"/>
  </g>
  <g id="bullet-char-template(8226)" transform="scale(0.00048828125,-0.00048828125)">
   <path d="M 346,457 C 273,457 209,483 155,535 101,586 74,649 74,723 74,796 101,859 155,911 209,963 273,989 346,989 419,989 480,963 531,910 582,859 608,796 608,723 608,648 583,586 532,535 482,483 420,457 346,457 Z"/>
  </g>
  <g id="bullet-char-template(8211)" transform="scale(0.00048828125,-0.00048828125)">
   <path d="M -4,459 L 1135,459 1135,606 -4,606 -4,459 Z"/>
  </g>
 </defs>
 <defs class="TextEmbeddedBitmaps"/>
 <g class="SlideGroup">
  <g>
   <g id="id1" class="Slide" clip-path="url(#presentation_clip_path)">
    <g class="Page">
     <g class="com.sun.star.drawing.ClosedBezierShape">
      <g id="id3">
       <path fill="rgb(255,153,51)" stroke="none" d="M 19454,9846 C 19454,7582 17619,5747 15355,5747 13091,5747 11255,7582 11255,9846 11255,12110 13091,13946 15355,13946 17619,13946 19454,12110 19454,9846 Z"/>
      </g>
     </g>
     <g class="com.sun.star.drawing.ClosedBezierShape">
      <g id="id4">
       <path fill="rgb(255,255,255)" stroke="none" d="M 17153,7944 C 16878,7944 16626,8039 16426,8198 16247,7774 15829,7476 15343,7476 14930,7476 14568,7691 14358,8015 14209,7946 14042,7908 13867,7908 13218,7908 12691,8438 12691,9091 12691,9603 13016,10040 13471,10204 L 13250,11999 C 13244,12054 13260,12109 13295,12151 13331,12193 13382,12217 13435,12217 L 16638,12217 C 16732,12217 16811,12144 16824,12048 L 17037,10304 C 17076,10307 17113,10310 17153,10310 17801,10310 18329,9779 18329,9127 18329,8474 17801,7944 17153,7944 Z"/>
      </g>
     </g>
     <g class="com.sun.star.drawing.ClosedBezierShape">
      <g id="id5">
       <path fill="rgb(51,0,0)" stroke="none" d="M 17256,9928 C 17231,9928 17208,9927 17184,9924 L 17212,9701 C 17226,9589 17148,9485 17040,9470 16930,9457 16831,9536 16817,9649 16817,9649 16734,10318 16658,10941 L 14063,10941 C 13953,10941 13864,11033 13864,11147 13864,11260 13953,11353 14063,11353 L 16607,11353 C 16572,11635 16544,11865 16533,11954 L 13531,11954 C 13569,11648 13726,10372 13785,9889 13778,9889 13771,9889 13764,9889 13294,9889 12912,9510 12912,9044 12912,8577 13294,8198 13764,8198 14032,8198 14271,8321 14427,8513 14448,8542 14477,8542 14483,8502 14525,8074 14890,7740 15332,7740 15756,7740 16110,8049 16174,8453 16143,8506 16116,8563 16093,8620 L 16448,8812 C 16562,8478 16881,8237 17256,8237 17725,8237 18108,8616 18108,9082 18108,9549 17725,9928 17256,9928 Z M 17256,7825 C 16964,7825 16696,7926 16483,8095 16293,7645 15849,7328 15332,7328 14893,7328 14507,7557 14284,7901 14126,7828 13950,7787 13764,7787 13075,7787 12514,8351 12514,9044 12514,9589 12860,10053 13343,10227 L 13108,12134 C 13101,12192 13119,12251 13156,12296 13194,12340 13248,12366 13305,12366 L 16708,12366 C 16809,12366 16893,12288 16905,12186 L 17133,10333 C 17174,10337 17215,10340 17256,10340 17945,10340 18506,9775 18506,9082 18506,8389 17945,7825 17256,7825 Z"/>
      </g>
     </g>
     <g class="com.sun.star.drawing.ClosedBezierShape">
      <g id="id6">
       <path fill="rgb(51,0,0)" stroke="none" d="M 17978,15459 L 17978,15555 C 17948,15591 17901,15627 17851,15653 17795,15681 17747,15695 17695,15698 17561,15707 17483,15663 17483,15580 17483,15535 17527,15498 17571,15482 17623,15461 17702,15459 17781,15459 L 17978,15459 Z M 17765,14776 C 17655,14776 17520,14796 17396,14838 17370,14847 17322,14867 17322,14867 L 17383,15086 17394,15082 C 17394,15082 17435,15069 17459,15062 17460,15062 17604,15013 17730,15013 17816,15013 17879,15030 17919,15064 17955,15095 17976,15150 17978,15225 L 17757,15225 C 17596,15225 17469,15259 17380,15326 17296,15390 17253,15478 17253,15590 17253,15693 17289,15776 17362,15840 17427,15897 17511,15926 17618,15930 17623,15930 17628,15930 17634,15930 17702,15930 17792,15925 17882,15888 17908,15877 17942,15862 17978,15840 L 17978,15929 18225,15929 18225,15212 C 18225,15093 18188,14993 18114,14913 18032,14822 17914,14776 17765,14776 Z"/>
      </g>
     </g>
     <g class="com.sun.star.drawing.ClosedBezierShape">
      <g id="id7">
       <path fill="rgb(51,0,0)" stroke="none" d="M 16391,15614 C 16362,15587 16338,15552 16320,15509 16302,15466 16292,15413 16292,15350 16292,15287 16302,15233 16320,15190 16372,15071 16462,15012 16596,15012 16676,15012 16745,15038 16800,15087 16866,15149 16899,15237 16899,15349 16899,15465 16866,15554 16800,15615 16771,15640 16738,15659 16702,15672 16629,15697 16560,15697 16487,15672 16451,15660 16419,15640 16391,15614 Z M 16596,14774 C 16493,14774 16400,14794 16321,14836 L 16321,14774 16056,14774 16056,16262 16321,16262 16321,15867 C 16400,15908 16493,15929 16596,15929 16763,15929 16900,15875 17002,15769 17104,15662 17155,15520 17155,15351 17155,15181 17104,15041 17001,14934 16900,14828 16763,14774 16596,14774 Z"/>
      </g>
     </g>
     <g class="com.sun.star.drawing.ClosedBezierShape">
      <g id="id8">
       <path fill="rgb(51,0,0)" stroke="none" d="M 19219,15352 C 19219,15415 19209,15468 19190,15511 19138,15632 19048,15690 18914,15690 18834,15690 18765,15665 18710,15614 18644,15553 18611,15465 18611,15353 18611,15237 18644,15147 18710,15088 18739,15062 18772,15043 18808,15031 18844,15019 18879,15013 18915,15013 18951,15013 18986,15019 19023,15031 19059,15043 19091,15062 19119,15088 19148,15114 19171,15149 19190,15192 19209,15235 19219,15289 19219,15352 Z M 19189,14439 L 19189,14836 C 19110,14794 19017,14774 18914,14774 18747,14774 18610,14828 18508,14934 18407,15041 18356,15181 18356,15351 18356,15520 18407,15662 18508,15769 18610,15875 18747,15929 18914,15929 19017,15929 19110,15908 19189,15867 L 19189,15929 19454,15929 19454,14439 19189,14439 Z"/>
      </g>
     </g>
     <g class="com.sun.star.drawing.PolyPolygonShape">
      <g id="id9">
       <path fill="rgb(51,0,0)" stroke="none" d="M 15934,14977 L 15770,14769 15193,15223 15193,14439 14928,14439 14928,15929 15193,15929 15193,15560 15333,15449 15745,15934 15948,15762 15541,15286 15934,14977 Z"/>
      </g>
     </g>
     <g class="com.sun.star.drawing.ClosedBezierShape">
      <g id="id10">
       <path fill="rgb(51,0,0)" stroke="none" d="M 13175,15614 C 13145,15639 13111,15659 13074,15671 13037,15683 13000,15689 12964,15689 12928,15689 12890,15683 12854,15671 12817,15659 12783,15639 12752,15614 12685,15553 12650,15464 12650,15348 12650,15234 12684,15149 12753,15087 12809,15037 12880,15012 12964,15012 13047,15012 13118,15037 13175,15087 13244,15149 13277,15234 13277,15348 13277,15464 13243,15553 13175,15614 Z M 12964,14774 C 12788,14774 12642,14829 12541,14934 12437,15040 12384,15180 12384,15351 12384,15521 12437,15662 12540,15768 12642,15873 12788,15928 12964,15928 13140,15928 13286,15873 13388,15768 13492,15662 13545,15521 13545,15351 13545,15180 13492,15040 13388,14934 13286,14829 13139,14774 12964,14774 Z"/>
      </g>
     </g>
     <g class="com.sun.star.drawing.ClosedBezierShape">
      <g id="id11">
       <path fill="rgb(51,0,0)" stroke="none" d="M 14425,15614 C 14394,15639 14360,15659 14323,15671 14286,15683 14250,15689 14213,15689 14177,15689 14140,15683 14103,15671 14066,15659 14032,15639 14002,15614 13934,15553 13900,15464 13900,15348 13900,15234 13933,15149 14002,15087 14059,15037 14130,15012 14213,15012 14297,15012 14368,15037 14424,15087 14494,15149 14528,15234 14528,15348 14528,15464 14493,15553 14425,15614 Z M 14213,14774 C 14038,14774 13891,14829 13790,14934 13686,15040 13633,15180 13633,15351 13633,15521 13686,15662 13790,15768 13891,15873 14037,15928 14213,15928 14389,15928 14536,15873 14638,15768 14741,15662 14794,15521 14794,15351 14794,15180 14741,15040 14638,14934 14536,14829 14389,14774 14213,14774 Z"/>
      </g>
     </g>
     <g class="com.sun.star.drawing.ClosedBezierShape">
      <g id="id12">
       <path fill="rgb(51,0,0)" stroke="none" d="M 11520,15350 C 11520,15398 11530,15473 11559,15526 11583,15570 11617,15607 11661,15637 11709,15671 11772,15689 11840,15689 11872,15689 11904,15685 11936,15677 12020,15657 12094,15611 12161,15536 L 12169,15527 12341,15696 C 12341,15696 12292,15752 12237,15793 12127,15874 11994,15928 11832,15928 11636,15928 11460,15842 11362,15705 11288,15603 11255,15476 11255,15350 11255,15225 11288,15099 11362,14996 11460,14860 11636,14774 11832,14774 11994,14774 12127,14828 12237,14909 12292,14950 12341,15005 12341,15005 L 12169,15173 12161,15165 C 12094,15091 12020,15045 11936,15025 11904,15017 11872,15013 11840,15013 11772,15013 11709,15031 11661,15064 11617,15095 11583,15132 11559,15175 11530,15228 11520,15303 11520,15350 Z"/>
      </g>
     </g>
    </g>
   </g>
  </g>
 </g>
</svg>