<?xml version="1.0" encoding="UTF-8"?>

<svg version="1.2" baseProfile="tiny" width="47.26mm" height="47.26mm" viewBox="8441 12799 4726 4726" preserveAspectRatio="xMidYMid" fill-rule="evenodd" stroke-width="28.222" stroke-linejoin="round" xmlns="http://www.w3.org/2000/svg" xmlns:ooo="http://xml.openoffice.org/svg/export" xmlns:xlink="http://www.w3.org/1999/xlink" xml:space="preserve">
 <defs class="ClipPathGroup">
  <clipPath id="presentation_clip_path" clipPathUnits="userSpaceOnUse">
   <rect x="8441" y="12799" width="4726" height="4726"/>
  </clipPath>
 </defs>
 <defs class="TextShapeIndex">
  <g ooo:slide="id1" ooo:id-list="id3 id4 id5 id6 id7 id8 id9 id10 id11 id12 id13"/>
 </defs>
 <defs class="EmbeddedBulletChars">
  <g id="bullet-char-template(57356)" transform="scale(0.00048828125,-0.00048828125)">
   <path d="M 580,1141 L 1163,571 580,0 -4,571 580,1141 Z"/>
  </g>
  <g id="bullet-char-template(57354)" transform="scale(0.00048828125,-0.00048828125)">
   <path d="M 8,1128 L 1137,1128 1137,0 8,0 8,1128 Z"/>
  </g>
  <g id="bullet-char-template(10146)" transform="scale(0.00048828125,-0.00048828125)">
   <path d="M 174,0 L 602,739 174,1481 1456,739 174,0 Z M 1358,739 L 309,1346 659,739 1358,739 Z"/>
  </g>
  <g id="bullet-char-template(10132)" transform="scale(0.00048828125,-0.00048828125)">
   <path d="M 2015,739 L 1276,0 717,0 1260,543 174,543 174,936 1260,936 717,1481 1274,1481 2015,739 Z"/>
  </g>
  <g id="bullet-char-template(10007)" transform="scale(0.00048828125,-0.00048828125)">
   <path d="M 0,-2 C -7,14 -16,27 -25,37 L 356,567 C 262,823 215,952 215,954 215,979 228,992 255,992 264,992 276,990 289,987 310,991 331,999 354,1012 L 381,999 492,748 772,1049 836,1024 860,1049 C 881,1039 901,1025 922,1006 886,937 835,863 770,784 769,783 710,716 594,584 L 774,223 C 774,196 753,168 711,139 L 727,119 C 717,90 699,76 672,76 641,76 570,178 457,381 L 164,-76 C 142,-110 111,-127 72,-127 30,-127 9,-110 8,-76 1,-67 -2,-52 -2,-32 -2,-23 -1,-13 0,-2 Z"/>
  </g>
  <g id="bullet-char-template(10004)" transform="scale(0.00048828125,-0.00048828125)">
   <path d="M 285,-33 C 182,-33 111,30 74,156 52,228 41,333 41,471 41,549 55,616 82,672 116,743 169,778 240,778 293,778 328,747 346,684 L 369,508 C 377,444 397,411 428,410 L 1163,1116 C 1174,1127 1196,1133 1229,1133 1271,1133 1292,1118 1292,1087 L 1292,965 C 1292,929 1282,901 1262,881 L 442,47 C 390,-6 338,-33 285,-33 Z"/>
  </g>
  <g id="bullet-char-template(9679)" transform="scale(0.00048828125,-0.00048828125)">
   <path d="M 813,0 C 632,0 489,54 383,161 276,268 223,411 223,592 223,773 276,916 383,1023 489,1130 632,1184 813,1184 992,1184 1136,1130 1245,1023 1353,916 1407,772 1407,592 1407,412 1353,268 1245,161 1136,54 992,0 813,0 Z"/>
  </g>
  <g id="bullet-char-template(8226)" transform="scale(0.00048828125,-0.00048828125)">
   <path d="M 346,457 C 273,457 209,483 155,535 101,586 74,649 74,723 74,796 101,859 155,911 209,963 273,989 346,989 419,989 480,963 531,910 582,859 608,796 608,723 608,648 583,586 532,535 482,483 420,457 346,457 Z"/>
  </g>
  <g id="bullet-char-template(8211)" transform="scale(0.00048828125,-0.00048828125)">
   <path d="M -4,459 L 1135,459 1135,606 -4,606 -4,459 Z"/>
  </g>
 </defs>
 <defs class="TextEmbeddedBitmaps"/>
 <g class="SlideGroup">
  <g>
   <g id="id1" class="Slide" clip-path="url(#presentation_clip_path)">
    <g class="Page">
     <g class="com.sun.star.drawing.ClosedBezierShape">
      <g id="id3">
       <path fill="rgb(23,111,192)" stroke="none" d="M 12511,12799 L 9097,12799 C 8736,12799 8441,13094 8441,13455 L 8441,16869 C 8441,17230 8736,17525 9097,17525 L 12511,17525 C 12872,17525 13167,17230 13167,16869 L 13167,13455 C 13167,13094 12872,12799 12511,12799 Z"/>
      </g>
     </g>
     <g class="com.sun.star.drawing.ClosedBezierShape">
      <g id="id4">
       <path fill="rgb(255,255,255)" stroke="none" d="M 12347,14791 C 12244,14791 12160,14707 12160,14605 12160,14502 12244,14418 12347,14418 12450,14418 12533,14502 12533,14605 12533,14707 12450,14791 12347,14791 Z M 12533,13981 L 12533,14310 C 12480,14276 12416,14256 12347,14256 12153,14256 11997,14412 11997,14605 11997,14797 12153,14953 12347,14953 12540,14953 12696,14797 12696,14605 L 12696,13981 12533,13981 Z"/>
      </g>
     </g>
     <g class="com.sun.star.drawing.ClosedBezierShape">
      <g id="id5">
       <path fill="rgb(255,255,255)" stroke="none" d="M 10163,14256 C 9970,14256 9814,14412 9814,14605 L 9814,14939 9976,14939 9976,14605 C 9976,14502 10060,14419 10163,14419 10199,14419 10234,14429 10263,14447 L 10339,14303 C 10288,14273 10228,14256 10163,14256 Z"/>
      </g>
     </g>
     <g class="com.sun.star.drawing.ClosedBezierShape">
      <g id="id6">
       <path fill="rgb(255,255,255)" stroke="none" d="M 10683,14255 C 10491,14255 10334,14412 10334,14605 10334,14797 10491,14954 10683,14954 10877,14954 11033,14797 11033,14605 11033,14412 10877,14255 10683,14255 Z M 10683,14418 C 10786,14418 10871,14502 10871,14605 10871,14707 10786,14791 10683,14791 10581,14791 10497,14707 10497,14605 10497,14502 10581,14418 10683,14418 Z"/>
      </g>
     </g>
     <g class="com.sun.star.drawing.ClosedBezierShape">
      <g id="id7">
       <path fill="rgb(255,255,255)" stroke="none" d="M 10323,15619 C 10131,15619 9974,15776 9974,15969 9974,16161 10131,16317 10323,16317 10516,16317 10672,16161 10672,15969 10672,15776 10516,15619 10323,15619 Z M 10323,15782 C 10426,15782 10510,15866 10510,15969 10510,16071 10426,16155 10323,16155 10221,16155 10137,16071 10137,15969 10137,15866 10221,15782 10323,15782 Z"/>
      </g>
     </g>
     <g class="com.sun.star.drawing.ClosedBezierShape">
      <g id="id8">
       <path fill="rgb(255,255,255)" stroke="none" d="M 11140,15620 C 10948,15620 10792,15776 10792,15969 L 10792,16303 10954,16303 10954,15969 C 10954,15866 11038,15782 11140,15782 11177,15782 11211,15793 11240,15811 L 11317,15667 C 11264,15637 11205,15620 11140,15620 Z"/>
      </g>
     </g>
     <g class="com.sun.star.drawing.ClosedBezierShape">
      <g id="id9">
       <path fill="rgb(255,255,255)" stroke="none" d="M 12649,15799 L 12649,15657 C 12580,15637 12517,15619 12422,15619 12279,15619 12150,15694 12154,15834 12158,15987 12269,16007 12358,16027 12492,16056 12519,16071 12520,16109 12522,16177 12432,16173 12366,16173 12319,16173 12226,16162 12164,16136 L 12164,16280 C 12239,16307 12298,16317 12387,16317 12567,16317 12700,16253 12696,16109 12692,15982 12635,15938 12448,15897 12350,15876 12330,15869 12328,15829 12327,15785 12370,15765 12439,15766 12493,15766 12570,15778 12649,15799 Z"/>
      </g>
     </g>
     <g class="com.sun.star.drawing.ClosedBezierShape">
      <g id="id10">
       <path fill="rgb(255,255,255)" stroke="none" d="M 9359,15345 L 9538,15345 C 9538,15345 9614,15690 9665,15931 9725,15697 9821,15345 9821,15345 L 10006,15345 C 10006,15345 9786,16118 9737,16267 9729,16294 9704,16317 9667,16317 9630,16317 9605,16295 9597,16266 9549,16086 9470,15764 9450,15664 L 9446,15664 C 9427,15764 9348,16086 9300,16266 9292,16295 9267,16317 9230,16317 9193,16317 9168,16294 9160,16267 9111,16118 8891,15345 8891,15345 L 9076,15345 C 9076,15345 9172,15697 9231,15931 9283,15690 9359,15345 9359,15345 L 9538,15345 9359,15345 Z"/>
      </g>
     </g>
     <g class="com.sun.star.drawing.ClosedBezierShape">
      <g id="id11">
       <path fill="rgb(255,255,255)" stroke="none" d="M 11516,14483 C 11522,14517 11613,14848 11635,14909 11645,14935 11671,14954 11701,14954 11731,14954 11757,14934 11768,14909 11803,14826 11992,14283 11992,14283 L 11826,14283 C 11826,14283 11719,14619 11705,14681 L 11702,14681 C 11690,14621 11588,14283 11588,14283 L 11440,14283 C 11440,14283 11338,14621 11326,14681 L 11323,14681 C 11309,14619 11202,14283 11202,14283 L 11037,14283 C 11037,14283 11226,14826 11260,14909 11271,14934 11297,14954 11327,14954 11357,14954 11383,14935 11393,14909 11415,14848 11507,14517 11513,14483 L 11516,14483 Z"/>
      </g>
     </g>
     <g class="com.sun.star.drawing.ClosedBezierShape">
      <g id="id12">
       <path fill="rgb(255,255,255)" stroke="none" d="M 9373,14779 C 9190,14779 9040,14629 9040,14445 9040,14262 9190,14112 9373,14112 9460,14112 9542,14147 9603,14205 L 9726,14083 C 9633,13993 9507,13938 9373,13938 9094,13938 8865,14166 8865,14445 8865,14726 9094,14954 9373,14954 9507,14954 9633,14899 9726,14809 L 9603,14685 C 9542,14745 9459,14779 9373,14779 Z"/>
      </g>
     </g>
     <g class="com.sun.star.drawing.PolyPolygonShape">
      <g id="id13">
       <path fill="rgb(255,255,255)" stroke="none" d="M 12065,15634 L 11851,15634 11603,15896 11600,15896 11600,15364 11428,15364 11428,16304 11600,16304 11600,15987 11603,15987 11858,16304 12078,16304 11773,15941 12065,15634 Z"/>
      </g>
     </g>
    </g>
   </g>
  </g>
 </g>
</svg>