<?xml version="1.0" encoding="utf-8"?>
<!-- Generator: Adobe Illustrator 19.2.0, SVG Export Plug-In . SVG Version: 6.00 Build 0)  -->
<svg version="1.1" id="レイヤー_1" xmlns="http://www.w3.org/2000/svg" xmlns:xlink="http://www.w3.org/1999/xlink" x="0px"
	 y="0px" viewBox="0 0 200.4 59.5" style="enable-background:new 0 0 200.4 59.5;" xml:space="preserve">
<style type="text/css">
	.st0{enable-background:new    ;}
	.st1{fill:#D94A7E;}
	.st2{fill:#828282;}
	.st3{fill:#CCCCCC;}
	.st4{fill:none;}
</style>
<g>
	<text transform="matrix(1 0 0 1 587.0342 -96.9725)" style="font-family:'KozGoPr6N-Light-83pv-RKSJ-H'; font-size:16px;">1-1 ロゴタイプ</text>
	<text transform="matrix(1 0 0 1 711.7921 -98.5904)" style="font-family:'KozGoPr6N-Light-83pv-RKSJ-H'; font-size:11px;">（基本形</text>
	
		<text transform="matrix(1 0 0 1 755.7921 -98.5904)" style="font-family:'KozGoPr6N-Light-83pv-RKSJ-H'; font-size:11px; letter-spacing:-4;">）</text>
</g>
<g>
	<g>
		<path class="st1" d="M797.7-3.4c0,3.1-2.5,5.6-5.6,5.6c-3.1,0-5.6-2.5-5.6-5.6S789-9,792.1-9C795.2-9,797.7-6.5,797.7-3.4z"/>
		<path class="st1" d="M796.4,49.3c0,0.7-0.6,1.2-1.2,1.2h-6c-0.7,0-1.2-0.5-1.2-1.2V10.2c0-0.7,0.6-1.2,1.2-1.2h6
			c0.7,0,1.2,0.5,1.2,1.2V49.3z"/>
	</g>
	<path class="st2" d="M778.6,3.3c0,1.5-0.7,2.2-2.1,2.2h-40.1c-1.1,0-2,0.4-2.8,1.2c-0.8,0.8-1.2,1.7-1.2,2.8v10.4
		c0,0.7,0.4,1,1.1,1h41.3c1.4,0,2.1,0.7,2.1,2.1v4.8c0,1.4-0.7,2.1-2.1,2.1h-41.3c-0.8,0-1.1,0.4-1.1,1.1v17.3
		c0,1.4-0.7,2.1-2.1,2.1h-4.8c-1.4,0-2.1-0.7-2.1-2.1v-39c0-3.6,1.3-6.6,3.8-9.2c2.5-2.6,5.6-3.8,9.2-3.8h40.1
		c1.4,0,2.1,0.7,2.1,2.2V3.3z"/>
	<path class="st2" d="M861,41.6c0,4.1-1.9,6.9-5.8,8.3c-1,0.4-2,0.6-3.1,0.6c-2.7,0-4.9-1.1-6.7-3.2L816.2,5.1
		c-0.2-0.2-0.4-0.2-0.5-0.2c-0.2,0.1-0.3,0.2-0.3,0.4v43.1c0,1.4-0.7,2.1-2.2,2.1h-4.7c-1.4,0-2.1-0.7-2.1-2.1V3.8
		c0-4.1,1.9-6.8,5.8-8.2c1-0.4,2.1-0.6,3.2-0.6c2.7,0,4.9,1,6.7,3l29.2,42.3c0.1,0.1,0.3,0.2,0.5,0.1c0.2-0.1,0.2-0.2,0.2-0.4V-2.2
		c0-1.5,0.7-2.2,2.2-2.2h4.6c1.4,0,2.2,0.7,2.2,2.2L861,41.6z"/>
	<path class="st2" d="M923.8,48.4c0,1.4-0.7,2.1-2.1,2.1h-38.1c-3.6,0-6.7-1.3-9.2-3.8s-3.8-5.6-3.8-9.2V9.4c0-3.6,1.3-6.6,3.8-9.2
		c2.5-2.6,5.6-3.8,9.2-3.8h38.1c1.4,0,2.1,0.7,2.1,2.2v4.7c0,1.5-0.7,2.2-2.1,2.2h-38.1c-1.1,0-2,0.4-2.8,1.2
		c-0.8,0.8-1.2,1.7-1.2,2.8v28c0,1.1,0.4,2.1,1.2,2.9c0.8,0.8,1.7,1.2,2.8,1.2h38.1c1.4,0,2.1,0.7,2.1,2.1V48.4z"/>
</g>
<path class="st3" d="M924-9v59.3H723.5V-9L924-9 M924.2-9.1L924.2-9.1H723.5h-0.1v0.2v59.3v0.2h0.1h200.6h0.1v-0.2V-8.9V-9.1
	L924.2-9.1z"/>
<path class="st3" d="M949.1-34.1V75.6H698V-34.1H949.1 M949.3-34.4h-0.2H698h-0.2v0.3V75.6v0.3h0.2h251.1h0.2v-0.3V-34.1L949.3-34.4
	L949.3-34.4z"/>
<g>
	<g>
		<rect x="698.1" y="-4.2" class="st3" width="25.3" height="0.4"/>
		<circle class="st3" cx="710.7" cy="-4" r="1.1"/>
	</g>
	<g>
		<rect x="727.5" y="-34.3" class="st3" width="0.4" height="25.3"/>
		<circle class="st3" cx="727.7" cy="-21.6" r="1.1"/>
	</g>
</g>
<g>
	<g>
		<rect x="924.2" y="45.4" class="st3" width="25.3" height="0.4"/>
		<circle class="st3" cx="936.8" cy="45.6" r="1.1"/>
	</g>
	<g>
		<rect x="919.6" y="50.6" class="st3" width="0.4" height="25.3"/>
		<circle class="st3" cx="919.9" cy="63.2" r="1.1"/>
	</g>
</g>
<g>
	<path d="M1060.3,267.1H587V156.3h473.2v110.8H1060.3z M587.5,266.9h472.4V156.5H587.5V266.9z"/>
	<g>
		<path d="M615.1,178.2c0.7-0.3,1.5-0.5,2.1-0.5c1.5,0,2.4,0.9,2.4,2.1s-0.7,2.1-2.1,2.1c-0.7,0-1.3-0.2-1.8-0.9
			c0.1-0.1,0.2-0.2,0.3-0.3c0.5,0.6,1,0.8,1.5,0.8c1,0,1.6-0.7,1.6-1.6s-0.7-1.7-2-1.6c-0.6,0-1.4,0.2-2.1,0.5c0,0.7,0,1.8,0,2.1
			c0,0.8-0.5,1.4-1.3,1.4s-1.5-0.5-1.5-1.3c0-0.6,0.4-1.2,1.1-1.7c0.3-0.2,0.8-0.5,1.2-0.7v-2c-0.7,0.1-1.4,0.1-2.2,0.1v-0.5
			c0.8,0,1.6,0,2.2-0.1v-1.7l0.7,0.1c0,0.1-0.1,0.2-0.3,0.2c0,0.3,0,0.9,0,1.4c0.6-0.1,1.2-0.2,1.7-0.4l0.1,0.5
			c-0.5,0.2-1.1,0.3-1.8,0.4v1.6H615.1z M614.7,180.7c0-0.2,0-1.1,0-1.9c-0.4,0.2-0.7,0.4-1,0.6c-0.5,0.4-0.9,0.9-0.9,1.4
			s0.3,0.9,1,0.9C614.3,181.7,614.7,181.3,614.7,180.7L614.7,180.7z M619.8,177.1c-0.5-0.5-1.3-1-2.1-1.3l0.2-0.4
			c0.8,0.4,1.6,0.9,2.1,1.3L619.8,177.1z"/>
		<path d="M625.3,177.5h-2.7v4.8h-0.4v-7.9h3.2L625.3,177.5L625.3,177.5z M624.9,174.8h-2.3v0.9h2.3V174.8z M622.5,177.1h2.3v-1
			h-2.3V177.1z M627.4,181h-3v0.6H624v-3.1h3.4V181z M627,178.9h-2.5v1.8h2.5V178.9z M629.5,174.4v7.2c0,0.4-0.1,0.5-0.4,0.6
			s-0.8,0.1-1.6,0.1c0-0.1-0.1-0.3-0.2-0.5c0.3,0,0.5,0,0.8,0s0.5,0,0.6,0c0.2,0,0.2-0.1,0.2-0.2v-4.1h-2.8v-3.1H629.5z M629,174.8
			h-2.3v0.9h2.4L629,174.8L629,174.8z M626.7,177.1h2.4v-1h-2.4V177.1z"/>
		<path d="M632.6,175.2c0,0.1-0.1,0.1-0.3,0.2c-0.1,0.6-0.1,1.4-0.1,2.1c0,0.4,0,0.7,0,1.1c0.1,1.6,0.8,2.6,1.5,2.6
			c0.4,0,0.9-0.9,1.2-2c0.1,0.1,0.3,0.2,0.4,0.3c-0.4,1.2-1,2.2-1.6,2.3c-1.1,0-1.9-1.3-2-3.1c0-0.4,0-0.8,0-1.2
			c0-0.8,0-1.6,0.1-2.3H632.6z M638.9,179.3c-0.2-1.5-1.1-2.7-2.3-3.4l0.3-0.4c1.3,0.7,2.3,2,2.5,3.7L638.9,179.3z"/>
		<path d="M645.6,174c0,0.1-0.1,0.1-0.2,0.1c0.9,1.2,2.6,2.5,4,3.2c-0.1,0.1-0.2,0.2-0.3,0.4c-1.4-0.8-3.1-2.1-4-3.3
			c-0.8,1.1-2.3,2.5-3.9,3.4c-0.1-0.1-0.2-0.2-0.3-0.3c1.6-0.8,3.2-2.3,4-3.5L645.6,174z M642.4,182.3v-3.6h5.5v3.6h-0.4v-0.4h-4.6
			v0.4H642.4z M642.8,177h4.6v0.4h-4.6V177z M647.4,179.1h-4.6v2.4h4.6V179.1z"/>
		<path d="M656.9,174.3c0,0.1-0.1,0.1-0.2,0.2c0,0.7,0.1,1.4,0.1,2.1c0.7-0.1,1.4-0.2,2-0.3v0.5c-0.6,0.1-1.3,0.2-2,0.3
			c0,0.2,0,0.4,0,0.6c0,1.2,0,2.3-1,2.3c-0.4,0-0.9-0.1-1.4-0.4c0-0.1,0.1-0.3,0.1-0.4c0.5,0.3,1,0.4,1.2,0.4c0.3,0,0.5-0.2,0.6-0.5
			c0.1-0.5,0.1-1.4,0.1-1.9c-1.1,0.2-2.3,0.4-3.1,0.5c0,0.9,0,1.7,0.1,2.2c0.1,1.4,0.8,1.6,2.1,1.6c0.8,0,1.8-0.1,2.4-0.1v0.5
			c-0.7,0.1-1.7,0.1-2.5,0.1c-1.3,0-2.4-0.1-2.5-2c0-0.5-0.1-1.3-0.1-2.2c-0.6,0.1-1.3,0.2-1.8,0.3l-0.1-0.5
			c0.5-0.1,1.3-0.2,1.9-0.3V175l0.7,0.1c0,0.1-0.1,0.1-0.2,0.2c0,0.6,0,1.3,0,2l3.1-0.5c0-0.8-0.1-1.6-0.1-2.4L656.9,174.3z"/>
		<path d="M670.8,176.7l0.3,0.1l-0.1,0.1c-0.4,1.6-1.2,2.8-2.2,3.7c0.8,0.6,1.7,1,2.8,1.3c-0.1,0.1-0.2,0.3-0.3,0.4
			c-1.1-0.3-2.1-0.8-2.8-1.4c-0.9,0.7-2,1.1-3.1,1.4c0-0.1-0.2-0.3-0.2-0.4c1.1-0.2,2.1-0.7,3-1.3c-1.1-1-1.9-2.4-2.4-4l0,0
			c-0.1,1.7-0.5,3.7-2.3,5.5c-0.1-0.1-0.2-0.3-0.3-0.4c2.1-2,2.2-4.3,2.2-6v-0.9h-1.7v-0.4h5.2h0.1l0.3,0.1v0.1
			c-0.1,0.5-0.3,1.3-0.5,2L670.8,176.7L670.8,176.7z M665.7,174.9v0.3c0.5,2.2,1.4,3.9,2.7,5.1c0.9-0.8,1.6-1.8,2-3.2h-2l-0.1,0.5
			l-0.4-0.1c0.2-0.8,0.5-1.9,0.7-2.7h-2.9V174.9z"/>
		<path d="M673,175.3c1.3-0.1,2.6-0.3,3.3-0.7l0.3,0.3c-0.6,0.3-2.5,2.3-2.5,4.5c0,1.6,1.2,2.1,2.4,2.1c2.4,0,2.4-1.8,2.4-2.6
			c0-1.2-0.2-2.6-0.6-3.6l0.4-0.2c0.5,1.4,1.6,2.3,2.5,2.7l-0.2,0.4c-0.7-0.3-1.6-1-1.9-1.6l0,0c0.2,0.8,0.3,1.8,0.3,2.5
			c0,0.1,0,0.2,0,0.4c-0.1,1.5-1.1,2.5-2.8,2.5c-1.5,0-2.8-0.7-2.8-2.5c0-1.3,0.7-2.9,1.8-4.1c-0.5,0.1-1.3,0.3-2.2,0.4
			c0,0.1-0.1,0.1-0.2,0.1L673,175.3z M679.9,175.7c-0.3-0.4-0.7-0.9-1.2-1.3l0.3-0.2c0.5,0.4,1,0.9,1.3,1.3L679.9,175.7z M681,175.2
			c-0.3-0.4-0.7-0.9-1.2-1.3l0.2-0.2c0.5,0.4,1,0.8,1.2,1.3L681,175.2z"/>
		<path d="M686.6,176.9c-0.4,0.6-0.8,1.2-1.2,1.7c-0.1-0.1-0.2-0.3-0.3-0.4c0.9-1,1.8-2.5,2.3-4.2l0.6,0.2c0,0.1-0.1,0.1-0.2,0.1
			c-0.2,0.6-0.5,1.3-0.8,1.9l0.2,0.1c0,0.1-0.1,0.1-0.2,0.1v6h-0.4V176.9z M693.3,179h-2.5c-0.1,0.6-0.2,1.2-0.6,1.7
			c0.9,0.6,2.1,1,3.5,1.2c-0.1,0.1-0.2,0.3-0.3,0.4c-1.4-0.2-2.6-0.6-3.5-1.3c-0.5,0.5-1.2,0.9-2.3,1.3c-0.1-0.1-0.2-0.3-0.3-0.4
			c1.1-0.3,1.8-0.7,2.2-1.2c-0.5-0.4-0.8-0.9-1.1-1.4l0.4-0.1c0.2,0.5,0.5,0.9,0.9,1.2c0.3-0.5,0.4-1,0.5-1.5h-2.3v-2.4h2.4v-1h-2.7
			v-0.4h2.7v-1h0.6c0,0.1-0.1,0.1-0.2,0.1v0.9h2.8v0.4h-2.8v1h2.4v2.5H693.3z M688.5,178.6h1.9c0-0.2,0-0.4,0-0.6v-1.1h-1.9V178.6z
			 M692.9,176.9h-2v1.1c0,0.2,0,0.4,0,0.6h2V176.9z"/>
		<path d="M702.6,174.7v6.9c0,0.4-0.1,0.5-0.4,0.6s-0.8,0.1-1.7,0.1c0-0.1-0.1-0.3-0.2-0.4c0.3,0,0.6,0,0.8,0c0.3,0,0.6,0,0.7,0
			c0.2,0,0.2-0.1,0.2-0.2v-2.2h-2.8v2.8h-0.4v-2.8h-2.5c-0.1,1-0.4,2.1-1.2,2.9c-0.1-0.1-0.2-0.3-0.3-0.3c1-1.2,1.1-2.8,1.1-4.1
			v-3.3H702.6z M696.5,178c0,0.3,0,0.7,0,1h2.5v-1.7h-2.5V178z M699,175.1h-2.5v1.8h2.5V175.1z M702.2,176.8v-1.7h-2.8v1.8
			L702.2,176.8L702.2,176.8z M699.4,179h2.8v-1.7h-2.8V179z"/>
		<path d="M707.9,178.2c0.7-0.3,1.5-0.5,2.1-0.5c1.5,0,2.4,0.9,2.4,2.1s-0.7,2.1-2.1,2.1c-0.7,0-1.3-0.2-1.8-0.9
			c0.1-0.1,0.2-0.2,0.3-0.3c0.5,0.6,1,0.8,1.5,0.8c1,0,1.6-0.7,1.6-1.6s-0.7-1.7-2-1.6c-0.6,0-1.4,0.2-2.1,0.5c0,0.7,0,1.8,0,2.1
			c0,0.8-0.5,1.4-1.3,1.4c-0.8,0-1.5-0.5-1.5-1.3c0-0.6,0.4-1.2,1.1-1.7c0.3-0.2,0.8-0.5,1.2-0.7v-2c-0.7,0.1-1.4,0.1-2.2,0.1v-0.5
			c0.8,0,1.6,0,2.2-0.1v-1.7l0.7,0.1c0,0.1-0.1,0.2-0.3,0.2c0,0.3,0,0.9,0,1.4c0.6-0.1,1.2-0.2,1.7-0.4l0.1,0.5
			c-0.5,0.2-1.1,0.3-1.8,0.4v1.6H707.9z M707.4,180.7c0-0.2,0-1.1,0-1.9c-0.4,0.2-0.7,0.4-1,0.6c-0.5,0.4-0.9,0.9-0.9,1.4
			s0.3,0.9,1,0.9C707,181.7,707.4,181.3,707.4,180.7L707.4,180.7z M712.5,177.1c-0.5-0.5-1.3-1-2.1-1.3l0.2-0.4
			c0.8,0.4,1.6,0.9,2.1,1.3L712.5,177.1z"/>
		<path d="M718.7,175.2h3.4v5h-0.4v-0.5h-3v2.6h-0.5v-2.6h-2.8v0.5H715v-5.1h3.2v-1.2h0.6c0,0.1,0,0.1-0.2,0.1L718.7,175.2
			L718.7,175.2z M718.3,175.6h-2.8v1.6h2.8V175.6z M715.5,179.3h2.8v-1.6h-2.8V179.3z M721.6,175.6h-2.9v1.6h2.9V175.6z
			 M718.7,179.3h2.9v-1.6h-2.9V179.3z"/>
		<path d="M726.8,174.4c0,0.1-0.1,0.2-0.3,0.2c-0.1,1-0.2,3.5-0.2,4.8c0,1.4,0.7,2.1,1.9,2.1s2.3-0.6,3.4-1.8
			c0.1,0.1,0.2,0.3,0.3,0.4c-1,1.2-2.3,1.9-3.7,1.9c-1.5,0-2.4-0.9-2.4-2.6c0-1.1,0.1-4,0.2-5.1L726.8,174.4z"/>
		<path d="M735.6,177.6v3c0.7,1.1,2.1,1.1,3.6,1.1c1,0,2.2,0,2.8-0.1c-0.1,0.1-0.1,0.3-0.1,0.5c-0.6,0-1.6,0-2.6,0c-1.8,0-3,0-4-1.1
			c-0.5,0.4-1,0.8-1.4,1.2c0,0.1,0,0.1-0.1,0.1l-0.3-0.5c0.4-0.3,1-0.7,1.5-1.2v-2.5h-1.4v-0.4h2V177.6z M734.2,174.2
			c0.6,0.4,1.3,1,1.7,1.4l-0.3,0.3c-0.3-0.4-1-1.1-1.6-1.5L734.2,174.2z M737,174.5h2.1c0.3,2.9,1.1,5.1,2.9,6
			c-0.1,0.1-0.3,0.2-0.4,0.3c-1.4-0.8-2.2-2.2-2.6-4.2c-0.5,1.9-1.3,3.3-2.6,4.2c-0.1-0.1-0.2-0.2-0.3-0.3c1.3-0.8,2.2-2.4,2.6-4.4
			l0.3,0.1c-0.1-0.4-0.1-0.9-0.2-1.3h-1.7L737,174.5L737,174.5z"/>
		<path d="M750.8,176.6c0,0.1-0.1,0.2-0.3,0.2c-0.1,0.7-0.2,1.3-0.4,1.9c0.5,0.2,1,0.5,1.6,0.7l-0.2,0.5c-0.5-0.3-1-0.5-1.5-0.7
			c-0.4,1.4-1.1,2.3-2.1,3c-0.1-0.1-0.2-0.2-0.4-0.3c1-0.6,1.6-1.5,2-2.9c-1-0.4-1.9-0.7-2.6-0.7c-0.6,2.2-1.1,2.9-2.2,2.9
			c-1,0-1.2-0.8-1.2-1.3c0-1.4,1.4-2,3.1-2c0.2-0.7,0.4-1.7,0.5-2.7c-0.4,0-2,0.1-2.6,0.2c0,0.1-0.1,0.1-0.2,0.1l-0.1-0.6
			c0.7,0,2.4-0.1,3-0.2c0.1,0,0.1-0.1,0.2-0.1l0.4,0.3c0,0.1-0.1,0.1-0.2,0.1c-0.2,1.1-0.4,2.1-0.5,2.9c0.7,0.1,1.6,0.3,2.6,0.7
			c0.2-0.6,0.3-1.3,0.4-2H750.8z M746.5,178.2c-1.4,0-2.6,0.6-2.6,1.6c0,0.5,0.3,0.9,0.7,0.9C745.4,180.7,745.9,180.4,746.5,178.2z"
			/>
		<path d="M756.4,178.6c0,0.1-0.1,0.1-0.2,0.1c-0.2,1.7-0.7,2.9-2.8,3.6c-0.1-0.1-0.2-0.3-0.3-0.4c2-0.6,2.5-1.7,2.6-3.4
			L756.4,178.6z M758.6,181.4c0,0.3,0.1,0.3,0.5,0.3h1.4c0.4,0,0.4-0.2,0.5-1.5c0.1,0.1,0.3,0.2,0.4,0.2c-0.1,1.3-0.2,1.7-0.9,1.7
			h-1.4c-0.7,0-0.9-0.2-0.9-0.7v-3h-5V178h3.8v-2.1h-2.1c-0.2,0.5-0.5,1.1-0.9,1.5c-0.1-0.1-0.3-0.2-0.4-0.2c0.6-0.8,1.1-2,1.4-3
			l0.6,0.1c0,0.1-0.1,0.1-0.2,0.1c-0.1,0.3-0.2,0.7-0.4,1h1.9v-1.5h0.6c0,0.1,0,0.1-0.2,0.1v1.4h3.2v0.4h-3.2v2.1h3.8v0.4h-2.4l0,0
			v3.1H758.6z"/>
	</g>
	<g>
		<path d="M613.6,193.7c0.2,0.3,0.9,1.3,1.1,1.5l-0.2,0.3c-0.2-0.3-0.6-0.9-0.9-1.3v4h-0.4v-4.3c-0.3,1-0.8,2.1-1.2,2.7
			c0-0.1-0.2-0.2-0.2-0.3c0.5-0.7,1.1-2.1,1.4-3.3H612v-0.4h1.3v-1.8h0.5c0,0,0,0.1-0.1,0.1v1.7h1.1v0.4h-1.1v0.7H613.6z
			 M619.2,194.6h-1.8c0.5,1,1.3,2,2,2.5c-0.1,0.1-0.2,0.2-0.3,0.3c-0.7-0.5-1.5-1.6-2-2.6v3.3h-0.4v-3.3c-0.5,1.1-1.4,2.1-2.2,2.7
			c-0.1-0.1-0.2-0.2-0.3-0.3c0.8-0.5,1.7-1.6,2.2-2.7h-1.9v-0.4h2.2v-1.6h-1.2c-0.1,0.5-0.3,0.9-0.5,1.3c-0.1,0-0.2-0.1-0.3-0.2
			c0.4-0.7,0.7-1.8,0.9-2.7l0.5,0.1c0,0-0.1,0.1-0.2,0.1c-0.1,0.3-0.1,0.6-0.2,1h1.1v-1.5h0.5c0,0,0,0.1-0.1,0.1v1.4h1.8v0.4h-1.8
			v1.6h2.1v0.5H619.2z"/>
		<path d="M628,192.8h-2.5c0.2,2.7,0.9,5,1.9,5c0.2,0,0.4-0.5,0.4-1.6c0.1,0.1,0.2,0.2,0.4,0.2c-0.1,1.4-0.3,1.8-0.8,1.8
			c-1.3,0-2-2.5-2.2-5.4h-4.3v-0.4h4.3c0-0.5,0-1-0.1-1.6h0.6c0,0.1,0,0.1-0.1,0.1c0,0.5,0,1,0,1.4h2.5L628,192.8L628,192.8z
			 M623,194.5v2.6c0.6-0.1,1.3-0.3,1.9-0.4v0.3c-1.4,0.4-2.9,0.7-3.8,0.9c0,0.1,0,0.1-0.1,0.1l-0.2-0.5c0.5-0.1,1.1-0.2,1.8-0.4
			v-2.7H621V194h3.6v0.4H623V194.5z M626.4,190.9c0.4,0.3,1,0.7,1.2,1l-0.3,0.3c-0.3-0.3-0.8-0.8-1.2-1.1L626.4,190.9z"/>
		<path d="M633.5,190.8c0,0.1-0.1,0.1-0.1,0.1c0.8,1.1,2.3,2.2,3.5,2.8c-0.1,0.1-0.2,0.2-0.3,0.3c-1.3-0.6-2.8-1.8-3.6-2.9
			c-0.7,1-2,2.2-3.4,2.9c-0.1-0.1-0.2-0.2-0.2-0.3c1.4-0.7,2.8-1.9,3.5-3L633.5,190.8z M629.9,195.3v-0.4h6.7v0.4h-3.9h0.1
			c0,0-0.1,0.1-0.2,0.1c-0.3,0.6-0.7,1.4-1,2.1l3.9-0.1c-0.4-0.5-0.8-0.9-1.3-1.3l0.3-0.2c0.8,0.7,1.6,1.6,2,2.2l-0.3,0.2
			c-0.1-0.2-0.2-0.4-0.4-0.6c-2,0.1-4.1,0.2-5.4,0.2c0,0.1-0.1,0.1-0.1,0.1l-0.2-0.5h1.2c0.4-0.6,0.8-1.5,1.1-2.2L629.9,195.3
			L629.9,195.3z M631.2,193.4h3.9v0.4h-3.9V193.4z"/>
		<path d="M641.5,192.5L641.5,192.5c-0.4,0.7-0.8,1.4-1.3,2c0.4,0.2,1.2,0.9,1.4,1l-0.2,0.3c-0.2-0.2-0.8-0.7-1.2-1v3.4h-0.4V195
			c-0.4,0.5-0.9,0.8-1.4,1.2c0-0.1-0.2-0.3-0.2-0.3c1-0.7,2.2-1.8,2.8-3.1h-2.6v-0.4h1.4v-1.5h0.5c0,0,0,0.1-0.1,0.1v1.4h1h0.1
			L641.5,192.5z M643.8,197.6h2v0.4h-4.6v-0.4h2.2V194h-1.9v-0.4h1.9v-2.7h0.5c0,0,0,0.1-0.1,0.1v2.6h1.8v0.4h-1.8L643.8,197.6
			L643.8,197.6z"/>
		<path d="M649.5,197.5v-6.1h3v0.4H650v2.3h2.3v0.4H650v2.9h-0.5V197.5z"/>
		<path d="M654.6,192.4c-0.2,0-0.4-0.2-0.4-0.4c0-0.2,0.2-0.4,0.4-0.4c0.2,0,0.4,0.2,0.4,0.4C655,192.2,654.9,192.4,654.6,192.4z
			 M654.9,197.5h-0.5v-4.3h0.5V197.5z"/>
		<path d="M661.3,197.5h-0.5l-2.1-3.4c-0.4-0.7-0.8-1.3-1.1-2l0,0c0,0.8,0.1,1.4,0.1,2.5v2.9h-0.5v-6.1h0.5l2.2,3.5
			c0.5,0.8,0.8,1.3,1.1,1.9l0,0c-0.1-0.8-0.1-1.5-0.1-2.5v-2.9h0.5L661.3,197.5L661.3,197.5z"/>
		<path d="M667.6,197.3c-0.3,0.1-0.9,0.3-1.6,0.3c-1.5,0-2.8-1-2.8-3.1c0-1.9,1.2-3.2,3-3.2c0.8,0,1.2,0.2,1.4,0.3l-0.1,0.4
			c-0.3-0.1-0.7-0.3-1.2-0.3c-1.5,0-2.5,1-2.5,2.8c0,1.6,0.9,2.7,2.5,2.7c0.5,0,1-0.1,1.3-0.3V197.3z"/>
		<path d="M685.1,192.3h-6.2v1.9c0,1.2-0.1,2.9-0.9,4c-0.1-0.1-0.2-0.2-0.3-0.2c0.7-1.1,0.8-2.7,0.8-3.8V192h0.2l0,0h2.8v-1.2h0.5
			c0,0,0,0.1-0.1,0.1v1h3.2V192.3z M683.3,195.1c0.8,0.9,1.6,2.2,1.9,2.9l-0.4,0.2c-0.1-0.2-0.2-0.5-0.4-0.8
			c-1.9,0.1-3.9,0.2-5.1,0.3c0,0.1-0.1,0.1-0.1,0.1l-0.2-0.5h1c0.5-1.1,1.1-3,1.4-4.3l0.5,0.2c0,0-0.1,0.1-0.2,0.1
			c-0.3,1.2-0.9,2.9-1.4,4.1c1.1,0,2.5-0.1,3.8-0.2c-0.4-0.6-0.8-1.3-1.3-1.9L683.3,195.1z"/>
		<path d="M688.6,192v1h1.7v0.4h-3.7V193h1.7v-1h-1.4v-0.4h1.4v-0.9h0.5c0,0,0,0.1-0.1,0.1v0.7h1.3v0.4L688.6,192L688.6,192z
			 M688.9,194.7c0.2-0.3,0.4-0.9,0.5-1.2l0.4,0.2c0,0-0.1,0.1-0.2,0.1c-0.1,0.3-0.3,0.8-0.5,1.1h1v0.4h-1.5v1h1.4v0.4h-1.4v1.7h-0.4
			v-1.7h-1.4v-0.4h1.4v-1h-1.5v-0.4h2.3L688.9,194.7z M687.6,194.7c-0.1-0.3-0.2-0.8-0.4-1.1l0.3-0.1c0.2,0.4,0.4,0.8,0.4,1.1
			L687.6,194.7z M693.4,194.3l0.2,0.1v0.1c-0.2,0.8-0.5,1.7-0.9,2.4c0.4,0.4,0.8,0.8,1.3,1c-0.1,0.1-0.2,0.2-0.3,0.3
			c-0.5-0.2-0.9-0.6-1.2-1c-0.3,0.4-0.6,0.7-1,1c-0.1-0.1-0.2-0.2-0.3-0.3c0.4-0.3,0.8-0.6,1.1-1c-0.4-0.6-0.8-1.3-1-2l0.3-0.1
			c0.2,0.6,0.5,1.2,0.9,1.7c0.4-0.6,0.6-1.2,0.8-1.9h-2.2v3.6h-0.4v-7h3v2.1c0,0.2,0,0.3-0.2,0.4s-0.4,0.1-1.1,0.1
			c0-0.1-0.1-0.2-0.1-0.3c0.2,0,0.4,0,0.6,0c0.5,0,0.5,0,0.5-0.1v-1.7h-2.3v2.7L693.4,194.3L693.4,194.3z"/>
		<path d="M698.1,194.7l-1,0.4v2.6c0,0.5-0.2,0.5-1.2,0.5c0-0.1-0.1-0.3-0.1-0.4c0.2,0,0.4,0,0.6,0c0.4,0,0.4,0,0.4-0.2v-2.4
			c-0.4,0.2-0.8,0.3-1.1,0.4c0,0.1,0,0.1-0.1,0.1l-0.2-0.5c0.4-0.1,0.8-0.3,1.4-0.4v-2h-1.3v-0.4h1.3v-1.7h0.5c0,0.1,0,0.1-0.1,0.1
			v1.5h1v0.4h-1v1.9l0.9-0.3V194.7z M697.8,197.4h5.1v0.4h-5.1V197.4z M699.1,195.9v0.5h-0.4v-5.2h3.5v5.2h-0.4v-0.5H699.1z
			 M701.8,191.6H699v1.8h2.8V191.6z M699.1,195.6h2.8v-1.8h-2.8V195.6z"/>
		<path d="M708.2,190.8c0,0,0,0.1-0.1,0.1v2.8h2.7v4.5h-0.4v-0.4h-5.6v-0.4h5.6v-1.5h-5.2v-0.4h5.2v-1.4h-5.5v-0.4h2.7v-2.9H708.2z
			 M705.2,191.2c0.5,0.6,0.9,1.3,1.1,1.9l-0.4,0.2c-0.2-0.5-0.7-1.3-1.1-1.9L705.2,191.2z M711,191.3c0,0-0.1,0.1-0.2,0.1
			c-0.3,0.6-0.8,1.4-1.1,1.9l-0.3-0.2c0.4-0.5,0.9-1.4,1.1-2L711,191.3z"/>
	</g>
	<path d="M612.9,211.8h5.4v0.5h-5.4V211.8z M612.9,213.4h5.4v0.5h-2.4v3.5h-0.6v-3.5h-2.4V213.4z"/>
	<path d="M622.5,217.5V212l0,0l-1,0.6l-0.1-0.4l1.2-0.7h0.4v6H622.5z"/>
	<path d="M625.9,214.6c0-2.2,0.9-3.1,1.9-3.1s1.8,1,1.8,3c0,2.1-0.7,3.2-1.9,3.2C626.7,217.6,625.9,216.7,625.9,214.6z M629.1,214.5
		c0-1.5-0.4-2.6-1.3-2.6c-0.8,0-1.3,1-1.3,2.6s0.5,2.7,1.3,2.7C628.7,217.2,629.1,216,629.1,214.5z"/>
	<path d="M634,217.5h-0.5v-1.7h-2.7v-0.3l2.7-3.9h0.5v3.8h0.9v0.4H634V217.5z M631.4,215.4h2.1v-2.3c0-0.3,0-0.6,0-0.9l0,0
		c-0.2,0.4-0.3,0.6-0.5,0.8L631.4,215.4L631.4,215.4z"/>
	<path d="M636.1,214.9h2.2v0.4h-2.2V214.9z"/>
	<path d="M639.7,214.6c0-2.2,0.9-3.1,1.9-3.1s1.8,1,1.8,3c0,2.1-0.7,3.2-1.9,3.2C640.5,217.6,639.7,216.7,639.7,214.6z M642.9,214.5
		c0-1.5-0.4-2.6-1.3-2.6c-0.8,0-1.3,1-1.3,2.6s0.5,2.7,1.3,2.7C642.5,217.2,642.9,216,642.9,214.5z"/>
	<path d="M644.9,214.6c0-2.2,0.9-3.1,1.9-3.1s1.8,1,1.8,3c0,2.1-0.7,3.2-1.9,3.2C645.7,217.6,644.9,216.7,644.9,214.6z M648,214.5
		c0-1.5-0.4-2.6-1.3-2.6c-0.8,0-1.3,1-1.3,2.6s0.5,2.7,1.3,2.7C647.7,217.2,648,216,648,214.5z"/>
	<path d="M650.5,214.5c0.3-0.4,0.8-0.8,1.5-0.8c1,0,1.7,0.8,1.7,1.9s-0.6,2.1-1.8,2.1c-1.1,0-1.9-0.9-1.9-2.5c0-1.4,0.7-3.2,2.6-3.6
		c0.2,0,0.4-0.1,0.6-0.1v0.4C651.5,211.9,650.6,213.2,650.5,214.5L650.5,214.5z M653.2,215.6c0-1-0.6-1.6-1.3-1.6
		c-0.8,0-1.4,0.8-1.4,1.2c0,1.2,0.5,2,1.4,2C652.7,217.2,653.2,216.6,653.2,215.6z"/>
	<path d="M656.9,217.5V212l0,0l-1,0.6l-0.1-0.4l1.2-0.7h0.4v6H656.9z"/>
	<path d="M618.5,227.7h-2.3c0.8,0.8,2,1.6,3.1,2c-0.1,0.1-0.2,0.2-0.3,0.3c-1.1-0.4-2.4-1.3-3.2-2.2v2.4h-0.4v-2.4
		c-0.8,0.9-2.1,1.8-3.2,2.2c-0.1-0.1-0.2-0.2-0.3-0.3c1.1-0.4,2.3-1.2,3.1-2h-2.2v-2.9h2.6V224h-3.3v-0.4h3.3v-0.8h0.5
		c0,0,0,0.1-0.1,0.1v0.7h3.4v0.4h-3.4v0.8h2.7V227.7L618.5,227.7z M613.2,225.2v0.9h2.2v-0.9H613.2z M613.2,226.4v1h2.2v-1H613.2z
		 M618.1,225.2h-2.3v0.9h2.3V225.2z M618.1,227.4v-1h-2.3v1H618.1z"/>
	<path d="M622.8,228.1c0,0-0.1,0.1-0.2,0.1c-0.3,0.6-1,1.3-1.6,1.7c-0.1-0.1-0.2-0.2-0.3-0.2c0.6-0.4,1.2-1.1,1.6-1.7L622.8,228.1z
		 M624.6,223.8h3.4v0.4h-7.1v-0.4h3.3v-1h0.5c0,0,0,0.1-0.1,0.1V223.8L624.6,223.8z M626.9,227.4h-2.4v2.3c0,0.3-0.1,0.4-0.3,0.5
		s-0.7,0.1-1.4,0.1c0-0.1-0.1-0.3-0.2-0.4c0.3,0,0.5,0,0.7,0c0.8,0,0.8,0,0.8-0.2v-2.3h-2.2v-2.3h5V227.4L626.9,227.4z M622.3,225.4
		v1.6h4.2v-1.6H622.3z M627.6,229.9c-0.3-0.5-1-1.3-1.6-1.8l0.4-0.2c0.6,0.5,1.3,1.3,1.6,1.8L627.6,229.9z"/>
	<path d="M631.6,225.3h0.4c0.5-0.6,1-1.4,1.4-2.2l0.5,0.2c0,0.1-0.1,0.1-0.2,0.1c-0.3,0.7-0.7,1.4-1.2,1.9h1.2v0.4h-1.5
		c-0.3,0.4-0.6,0.7-1,1h2v3.4h-0.4v-0.3h-2.1v0.5h-0.4v-2.9c-0.2,0.2-0.5,0.3-0.8,0.5c-0.1-0.1-0.2-0.2-0.2-0.3
		c0.4-0.2,0.7-0.4,1-0.6v-0.2h0.3c0.4-0.3,0.7-0.6,1.1-1h-2.2v-0.4h1.7v-1.3h-1.4v-0.4h1.4v-1h0.5c0,0,0,0.1-0.1,0.1v0.9h1.1v0.4
		h-1.1V225.3z M632.9,227h-2.1l0,0v1h2.1V227z M630.8,229.4h2.1v-1h-2.1V229.4z M634.1,223.3h2.5h0.1c0.1,0,0.1,0.1,0.3,0.2
		c0,0,0,0-0.1,0.1c-0.3,0.7-0.8,1.6-1.2,2.4c0.9,0.8,1.3,1.5,1.3,2.1c0,1.2-0.8,1.2-1.4,1.2c-0.1,0-0.2,0-0.3,0
		c0-0.1-0.1-0.3-0.2-0.4c0.2,0,0.4,0,0.6,0c0.4,0,0.9,0,0.9-0.8c0-0.6-0.4-1.2-1.3-2c0.4-0.8,0.8-1.6,1.1-2.3h-1.8v6.5h-0.4v-7
		H634.1z"/>
	<path d="M642.2,224.3h3v3.7h-0.4v-0.5h-2.6v2.7h-0.4v-2.7h-2.6v0.5h-0.4v-3.7h3v-1.5h0.5c0,0,0,0.1-0.1,0.1V224.3z M639.1,227.1
		h2.6v-2.4h-2.6V227.1z M642.2,227.1h2.6v-2.4h-2.6V227.1z"/>
	<path d="M654.4,227h-3.2c0.6,1.5,1.7,2.4,3.4,2.8c-0.1,0.1-0.2,0.2-0.3,0.4c-1.8-0.4-2.9-1.5-3.5-3.1c-0.3,1.3-1.1,2.4-3.5,3.2
		c0-0.1-0.2-0.3-0.2-0.3c2.2-0.7,3-1.7,3.3-2.9h-3.2v-0.4h0.9V224h2.4v-1.2h0.5c0,0,0,0.1-0.1,0.1v1h2.6v2.7h0.9V227L654.4,227z
		 M648.5,226.6h2c0.1-0.4,0.1-0.7,0.1-1.1v-1.2h-2.1V226.6z M653.1,224.4h-2.2v1.2c0,0.4,0,0.7-0.1,1.1h2.3V224.4z"/>
	<path d="M663.2,229.3v0.4h-6.5v0.5h-0.4v-6.9h6.7v0.4h-6.3v5.6H663.2z M658,224.8c0.7,0.4,1.4,0.9,2.1,1.4c0.5-0.6,1-1.3,1.4-2.1
		c0.4,0.1,0.4,0.2,0.5,0.2c0,0.1-0.1,0.1-0.2,0.1c-0.4,0.7-0.9,1.4-1.4,2c0.8,0.6,1.5,1.3,2,1.8l-0.3,0.3c-0.4-0.5-1.1-1.2-1.9-1.8
		c-0.7,0.8-1.6,1.6-2.4,2.2c-0.1-0.1-0.2-0.2-0.3-0.3c0.8-0.5,1.7-1.3,2.4-2.1c-0.7-0.5-1.4-1-2.1-1.4L658,224.8z"/>
	<path d="M666.6,229c0.5-0.1,0.9-0.2,1.4-0.3v0.3c-1.1,0.2-2.3,0.4-3,0.6c0,0.1,0,0.1-0.1,0.1l-0.2-0.5c0.4-0.1,0.9-0.2,1.5-0.3
		v-2.5h-1.4V226h1.4v-1h-1v-0.2c-0.1,0.1-0.2,0.3-0.4,0.4c-0.1-0.1-0.2-0.2-0.3-0.3c0.8-0.7,1.3-1.6,1.6-2.3l0.5,0.1
		c0,0.1,0,0.1-0.1,0.1c0.5,0.4,1.2,1,1.5,1.4c-0.2,0.2-0.2,0.2-0.3,0.3c-0.3-0.4-0.9-1-1.4-1.4c-0.3,0.5-0.6,1-1.1,1.6h2.2v0.4h-1v1
		h1.4v0.4h-1.4v2.5H666.6z M665.4,228.7c0-0.4-0.2-1.1-0.4-1.6l0.3-0.1c0.2,0.5,0.3,1.1,0.4,1.5L665.4,228.7z M667.9,227.2
		c0,0-0.1,0.1-0.2,0.1c-0.1,0.4-0.3,1-0.5,1.4l-0.3-0.1c0.2-0.4,0.4-1.1,0.5-1.5L667.9,227.2z M670.1,226.6c0.1,0.5,0.3,1,0.5,1.4
		c0.4-0.3,0.9-0.7,1.2-1l0.4,0.3h-0.1c-0.3,0.3-0.8,0.7-1.3,1c0.4,0.7,0.9,1.3,1.5,1.6c-0.1,0.1-0.2,0.2-0.3,0.3
		c-1.1-0.6-1.8-2-2.2-3.6h-0.9v2.9l1.8-0.3v0.3c-1,0.2-2,0.4-2.6,0.5c0,0.1,0,0.1-0.1,0.1l-0.2-0.5l0.6-0.1v-6.4h3.3v3.4h-1.6V226.6
		z M671.3,223.5h-2.5v1.1h2.5V223.5z M668.8,225v1.2h2.5V225H668.8z"/>
	<path d="M680.8,224.1h-6.3v1.9c0,1.2-0.1,3-0.7,4.2c-0.1-0.1-0.2-0.2-0.3-0.2c0.6-1.2,0.7-2.8,0.7-3.9v-2.3h3.1v-1h0.5
		c0,0,0,0.1-0.1,0.1v0.8h3.2L680.8,224.1L680.8,224.1z M677.9,228.2v1.4h2.9v0.4h-6.3v-0.4h3v-1.4h-2.4v-0.4h2.4v-3.3h0.5
		c0,0,0,0.1-0.1,0.1v3.2h2.4v0.4L677.9,228.2L677.9,228.2z M677,227.1c-0.2-0.3-0.6-0.7-1-1.1c-0.2,0.5-0.6,1-1,1.3
		c-0.1-0.1-0.2-0.2-0.3-0.2c0.7-0.5,1.1-1.4,1.3-2.5l0.5,0.1c0,0.1-0.1,0.1-0.2,0.1c-0.1,0.3-0.1,0.6-0.2,0.9
		c0.4,0.4,0.9,0.8,1.1,1.1L677,227.1z M680.6,227.3c-0.3-0.3-0.8-0.9-1.3-1.3c-0.2,0.5-0.6,0.9-1,1.2c-0.1-0.1-0.2-0.2-0.3-0.2
		c0.7-0.5,1.1-1.3,1.3-2.4l0.5,0.1c0,0.1-0.1,0.1-0.1,0.1c-0.1,0.3-0.2,0.6-0.3,0.9c0.5,0.4,1.1,1,1.4,1.4L680.6,227.3z"/>
	<path d="M686.4,226.3c0.7,0.1,1.3,0.7,1.3,1.6s-0.6,1.8-2,1.8c-0.6,0-1.1-0.2-1.4-0.4l0.2-0.4c0.2,0.1,0.7,0.4,1.2,0.4
		c1.1,0,1.4-0.8,1.4-1.4c0-1-0.8-1.4-1.7-1.4H685v-0.4h0.4c0.6,0,1.4-0.4,1.4-1.2c0-0.6-0.3-1-1.1-1c-0.4,0-0.9,0.2-1.1,0.4
		l-0.2-0.4c0.3-0.2,0.8-0.5,1.4-0.5c1.1,0,1.5,0.7,1.5,1.4C687.5,225.5,687.1,226,686.4,226.3L686.4,226.3z"/>
	<path d="M689.4,226.9h2.2v0.4h-2.2V226.9z"/>
	<path d="M696.2,226.6c-0.4,0.5-0.8,0.7-1.5,0.7c-1.1,0-1.6-0.8-1.6-1.8c0-1.1,0.7-2.1,1.9-2.1c1,0,1.8,0.9,1.8,2.5
		c0,2-1,3.3-2.4,3.6c-0.3,0.1-0.6,0.1-0.8,0.1v-0.4c0.2,0,0.4,0,0.6,0C695.4,229,696,227.8,696.2,226.6L696.2,226.6z M693.6,225.5
		c0,0.9,0.5,1.4,1.2,1.4c0.8,0,1.4-0.6,1.4-1c0-1.3-0.5-2.1-1.3-2.1C694.1,223.9,693.6,224.6,693.6,225.5z"/>
	<path d="M698.1,226.9h2.2v0.4h-2.2V226.9z"/>
	<path d="M702.2,226.5c0.3-0.4,0.8-0.8,1.5-0.8c1,0,1.7,0.8,1.7,1.9s-0.6,2.1-1.8,2.1c-1.1,0-1.9-0.9-1.9-2.5c0-1.4,0.7-3.2,2.6-3.6
		c0.2,0,0.4-0.1,0.6-0.1v0.4C703.1,223.9,702.3,225.2,702.2,226.5L702.2,226.5z M704.8,227.6c0-1-0.6-1.6-1.3-1.6
		c-0.8,0-1.4,0.8-1.4,1.2c0,1.2,0.5,2,1.4,2C704.3,229.2,704.8,228.6,704.8,227.6z"/>
	<path d="M714.1,229c0.5-0.1,0.9-0.2,1.4-0.3v0.3c-1.1,0.2-2.3,0.4-3,0.6c0,0.1,0,0.1-0.1,0.1l-0.2-0.5c0.4-0.1,0.9-0.2,1.5-0.3
		v-2.5h-1.4V226h1.4v-1h-1v-0.2c-0.1,0.1-0.2,0.3-0.4,0.4c-0.1-0.1-0.2-0.2-0.3-0.3c0.8-0.7,1.3-1.6,1.6-2.3l0.5,0.1
		c0,0.1,0,0.1-0.1,0.1c0.5,0.4,1.2,1,1.5,1.4c-0.2,0.2-0.2,0.2-0.3,0.3c-0.3-0.4-0.9-1-1.4-1.4c-0.3,0.5-0.6,1-1.1,1.6h2.2v0.4h-1v1
		h1.4v0.4h-1.4v2.5H714.1z M712.9,228.7c0-0.4-0.2-1.1-0.4-1.6l0.3-0.1c0.2,0.5,0.3,1.1,0.4,1.5L712.9,228.7z M715.4,227.2
		c0,0-0.1,0.1-0.2,0.1c-0.1,0.4-0.3,1-0.5,1.4l-0.3-0.1c0.2-0.4,0.4-1.1,0.5-1.5L715.4,227.2z M717.6,226.6c0.1,0.5,0.3,1,0.5,1.4
		c0.4-0.3,0.9-0.7,1.2-1l0.4,0.3h-0.1c-0.3,0.3-0.8,0.7-1.3,1c0.4,0.7,0.9,1.3,1.5,1.6c-0.1,0.1-0.2,0.2-0.3,0.3
		c-1.1-0.6-1.8-2-2.2-3.6h-0.9v2.9l1.8-0.3v0.3c-1,0.2-2,0.4-2.6,0.5c0,0.1,0,0.1-0.1,0.1l-0.2-0.5l0.6-0.1v-6.4h3.3v3.4h-1.6V226.6
		z M718.8,223.5h-2.5v1.1h2.5V223.5z M716.3,225v1.2h2.5V225H716.3z"/>
	<path d="M728.3,224.1H722v1.9c0,1.2-0.1,3-0.7,4.2c-0.1-0.1-0.2-0.2-0.3-0.2c0.6-1.2,0.7-2.8,0.7-3.9v-2.3h3.1v-1h0.5
		c0,0,0,0.1-0.1,0.1v0.8h3.2L728.3,224.1L728.3,224.1z M725.4,228.2v1.4h2.9v0.4H722v-0.4h3v-1.4h-2.3v-0.4h2.4v-3.3h0.5
		c0,0,0,0.1-0.1,0.1v3.2h2.4v0.4L725.4,228.2L725.4,228.2z M724.5,227.1c-0.2-0.3-0.6-0.7-1-1.1c-0.2,0.5-0.6,1-1,1.3
		c-0.1-0.1-0.2-0.2-0.3-0.2c0.7-0.5,1.1-1.4,1.3-2.5l0.5,0.1c0,0.1-0.1,0.1-0.2,0.1c-0.1,0.3-0.1,0.6-0.2,0.9
		c0.4,0.4,0.9,0.8,1.1,1.1L724.5,227.1z M728.1,227.3c-0.3-0.3-0.8-0.9-1.3-1.3c-0.2,0.5-0.6,0.9-1,1.2c-0.1-0.1-0.2-0.2-0.3-0.2
		c0.7-0.5,1.1-1.3,1.3-2.4l0.5,0.1c0,0.1-0.1,0.1-0.1,0.1c-0.1,0.3-0.2,0.6-0.3,0.9c0.5,0.4,1.1,1,1.4,1.4L728.1,227.3z"/>
	<path d="M736.9,224.3l-0.1,0.1c-0.8,1.2-2,2.4-3.3,3.3c0.7,0.5,1.3,1.2,1.7,1.6l-0.4,0.3c-0.8-1-2.4-2.3-3.9-3.2l0.3-0.3
		c0.6,0.4,1.3,0.8,1.9,1.3c1.2-0.8,2.4-1.9,3-2.9H730v-0.4h6.4h0.1L736.9,224.3z"/>
	<path d="M744.6,227.2c-0.9-0.5-2-1-2.9-1.3v4.1h-0.4v-6.9h0.6c0,0.1-0.1,0.1-0.2,0.2v2.4l0.1-0.1c1,0.4,2.2,0.9,3.1,1.4
		L744.6,227.2z"/>
	<path d="M749,227.4v-3.9h0.6c0,0.1-0.1,0.1-0.2,0.1v3.7L749,227.4L749,227.4z M753.4,223.2c0,0.1-0.1,0.1-0.2,0.1v2.6
		c0,1.7-0.6,3.2-2.9,4.1c-0.1-0.1-0.2-0.2-0.3-0.3c2.3-0.8,2.8-2.2,2.8-3.8v-2.7L753.4,223.2z"/>
	<path d="M757.6,225.2c0.2,0.5,0.5,1.3,0.6,1.7l-0.3,0.1c-0.1-0.5-0.4-1.2-0.6-1.7L757.6,225.2z M762.5,225.2c0,0.1-0.1,0.1-0.2,0.1
		c-0.6,2.3-1.8,3.8-3.7,4.6c0-0.1-0.2-0.2-0.2-0.3c2-0.8,3-2.1,3.6-4.5L762.5,225.2z M759.6,224.8c0.2,0.6,0.3,1.3,0.4,1.8l-0.3,0.1
		c-0.1-0.5-0.2-1.2-0.4-1.8L759.6,224.8z"/>
	<path d="M771.4,224.5l-0.1,0.1c-0.8,2.6-2.1,4.3-4.4,5.4c-0.1-0.1-0.2-0.2-0.3-0.3c2.1-1,3.5-2.7,4.1-4.9h-3
		c-0.5,0.8-1.1,1.5-1.8,2c-0.1-0.1-0.2-0.2-0.3-0.3c1.1-0.9,2-2.1,2.6-3.5l0.6,0.2c0,0.1-0.1,0.1-0.2,0.1c-0.2,0.4-0.3,0.7-0.5,1.1
		h3h0.1L771.4,224.5z"/>
	<path d="M779.6,223.8C779.6,223.9,779.5,223.9,779.6,223.8c-0.5,1.1-1.1,2-1.7,2.9c0.9,0.7,2.3,2,3,2.8l-0.4,0.3
		c-0.7-0.8-2.1-2.1-2.9-2.8c-0.7,0.9-2,2.1-3.2,2.8c-0.1-0.1-0.2-0.2-0.3-0.3c2.3-1.3,4.1-3.6,4.8-5.4h-4v-0.4h4.3h0.1L779.6,223.8z
		"/>
	<path d="M787.5,229.2c0.3,0,1.1,0,1.6-0.1v0.4c-0.6,0.1-1.3,0.1-1.6,0.1h-2.1c-1.1,0-1.7-0.5-1.7-1.6v-4.7h0.6
		c0,0.1-0.1,0.1-0.2,0.1v2.7c1.3-0.4,3.1-1,4.1-1.6l0.3,0.4h-0.1h-0.1c-1,0.5-2.9,1.2-4.3,1.6v1.4c0,0.9,0.4,1.2,1.3,1.2h2.2V229.2z
		 M788.3,223.1c0.4,0.3,0.8,0.8,1,1.2l-0.2,0.2c-0.2-0.4-0.7-0.9-1-1.2L788.3,223.1z M789.2,222.6c0.4,0.3,0.8,0.8,1,1.2L790,224
		c-0.2-0.4-0.7-0.9-1-1.2L789.2,222.6z"/>
	<path d="M793.5,224.3c0,0.1-0.1,0.1-0.2,0.1c-0.1,2.1-0.2,4.1-1.5,5.5c-0.1-0.1-0.2-0.2-0.3-0.2c1.2-1.3,1.4-3.3,1.4-5.5
		L793.5,224.3z M795.5,229c1.4-0.7,2.4-1.9,2.9-3.3c0.1,0.1,0.2,0.2,0.4,0.2c-0.6,1.6-1.6,2.8-3.3,3.6c0,0.1-0.1,0.1-0.1,0.2
		l-0.3-0.4l0.1-0.1v-5.9h0.6c0,0.1-0.1,0.1-0.2,0.1L795.5,229L795.5,229z"/>
	<path d="M805.6,223.6v0.4h-2.2l-0.3,1.9c0.1,0,0.3,0,0.5,0c1.1,0,2,0.7,2,1.8c0,1.2-0.9,2-2,2c-0.6,0-1.1-0.2-1.4-0.4l0.2-0.4
		c0.2,0.2,0.7,0.4,1.2,0.4c0.8,0,1.5-0.6,1.5-1.5s-0.5-1.5-1.7-1.5c-0.3,0-0.6,0-0.8,0.1l0.4-2.7L805.6,223.6L805.6,223.6z"/>
	<path d="M807.8,229.5v-6.1h3v0.4h-2.5v2.3h2.3v0.4h-2.3v2.9h-0.5V229.5z"/>
	<path d="M615.8,235.9h-1.9v5.7h-0.5v-5.7h-1.9v-0.4h4.3V235.9L615.8,235.9z"/>
	<path d="M620.4,241.5h-3.1v-6.1h3v0.4h-2.5v2.3h2.4v0.4h-2.4v2.6h2.6V241.5z"/>
	<path d="M625.3,241.5h-3.1v-6.1h0.5v5.7h2.6V241.5z"/>
	<path d="M629.5,237.9c0-0.2,0.2-0.4,0.4-0.4c0.2,0,0.4,0.2,0.4,0.4c0,0.2-0.2,0.4-0.4,0.4C629.7,238.3,629.5,238.1,629.5,237.9z
		 M629.5,241.2c0-0.3,0.2-0.4,0.4-0.4c0.2,0,0.4,0.2,0.4,0.4c0,0.2-0.2,0.4-0.4,0.4C629.7,241.6,629.5,241.4,629.5,241.2z"/>
	<path d="M634.5,238.6c0-2.2,0.9-3.1,1.9-3.1s1.8,1,1.8,3c0,2.1-0.7,3.2-1.9,3.2C635.3,241.6,634.5,240.7,634.5,238.6z M637.7,238.5
		c0-1.5-0.4-2.6-1.3-2.6c-0.8,0-1.3,1-1.3,2.6s0.5,2.7,1.3,2.7C637.3,241.2,637.7,240,637.7,238.5z"/>
	<path d="M641.7,238.3c0.7,0.1,1.3,0.7,1.3,1.6s-0.6,1.8-2,1.8c-0.6,0-1.1-0.2-1.4-0.4l0.2-0.4c0.2,0.1,0.7,0.4,1.2,0.4
		c1.1,0,1.4-0.8,1.4-1.4c0-1-0.8-1.4-1.7-1.4h-0.4v-0.4h0.4c0.6,0,1.4-0.4,1.4-1.2c0-0.6-0.3-1-1.1-1c-0.4,0-0.9,0.2-1.1,0.4
		l-0.2-0.4c0.3-0.2,0.8-0.5,1.4-0.5c1.1,0,1.5,0.7,1.5,1.4C642.8,237.5,642.4,238,641.7,238.3L641.7,238.3z"/>
	<path d="M644.7,238.9h2.2v0.4h-2.2V238.9z"/>
	<path d="M648.8,238.5c0.3-0.4,0.8-0.8,1.5-0.8c1,0,1.7,0.8,1.7,1.9s-0.6,2.1-1.8,2.1c-1.1,0-1.9-0.9-1.9-2.5c0-1.4,0.7-3.2,2.6-3.6
		c0.2,0,0.4-0.1,0.6-0.1v0.4C649.8,235.9,648.9,237.2,648.8,238.5L648.8,238.5z M651.5,239.6c0-1-0.6-1.6-1.3-1.6
		c-0.8,0-1.4,0.8-1.4,1.2c0,1.2,0.5,2,1.4,2C651,241.2,651.5,240.6,651.5,239.6z"/>
	<path d="M657,241.5h-3.5v-0.3l0.5-0.6c1.5-1.6,2.3-2.4,2.3-3.5c0-0.7-0.3-1.3-1.2-1.3c-0.5,0-0.9,0.3-1.2,0.5l-0.2-0.3
		c0.4-0.3,0.9-0.6,1.5-0.6c1.2,0,1.6,0.9,1.6,1.7c0,1.2-0.8,2.1-2.2,3.5l-0.5,0.5l0,0h2.8L657,241.5L657,241.5z"/>
	<path d="M659.1,238.5c0.3-0.4,0.8-0.8,1.5-0.8c1,0,1.7,0.8,1.7,1.9s-0.6,2.1-1.8,2.1c-1.1,0-1.9-0.9-1.9-2.5c0-1.4,0.7-3.2,2.6-3.6
		c0.2,0,0.4-0.1,0.6-0.1v0.4C660.1,235.9,659.2,237.2,659.1,238.5L659.1,238.5z M661.8,239.6c0-1-0.6-1.6-1.3-1.6
		c-0.8,0-1.4,0.8-1.4,1.2c0,1.2,0.5,2,1.4,2C661.3,241.2,661.8,240.6,661.8,239.6z"/>
	<path d="M666.8,241.5h-0.5v-1.7h-2.7v-0.3l2.7-3.9h0.5v3.8h0.9v0.4h-0.9V241.5z M664.1,239.4h2.1v-2.3c0-0.3,0-0.6,0-0.9l0,0
		c-0.2,0.4-0.3,0.6-0.5,0.8L664.1,239.4L664.1,239.4z"/>
	<path d="M668.9,238.9h2.2v0.4h-2.2V238.9z"/>
	<path d="M674.5,238.3c0.7,0.1,1.3,0.7,1.3,1.6s-0.6,1.8-2,1.8c-0.6,0-1.1-0.2-1.4-0.4l0.2-0.4c0.2,0.1,0.7,0.4,1.2,0.4
		c1.1,0,1.4-0.8,1.4-1.4c0-1-0.8-1.4-1.7-1.4h-0.4v-0.4h0.4c0.6,0,1.4-0.4,1.4-1.2c0-0.6-0.3-1-1.1-1c-0.4,0-0.9,0.2-1.1,0.4
		l-0.2-0.4c0.3-0.2,0.8-0.5,1.4-0.5c1.1,0,1.5,0.7,1.5,1.4C675.6,237.5,675.2,238,674.5,238.3L674.5,238.3z"/>
	<path d="M680.6,241.5h-0.5v-1.7h-2.7v-0.3l2.7-3.9h0.5v3.8h0.9v0.4h-0.9V241.5z M677.9,239.4h2.1v-2.3c0-0.3,0-0.6,0-0.9l0,0
		c-0.2,0.4-0.3,0.6-0.5,0.8L677.9,239.4L677.9,239.4z"/>
	<path d="M682.8,238.6c0-2.2,0.9-3.1,1.9-3.1s1.8,1,1.8,3c0,2.1-0.7,3.2-1.9,3.2C683.6,241.6,682.8,240.7,682.8,238.6z M685.9,238.5
		c0-1.5-0.4-2.6-1.3-2.6c-0.8,0-1.3,1-1.3,2.6s0.5,2.7,1.3,2.7C685.6,241.2,685.9,240,685.9,238.5z"/>
	<path d="M689.7,241.5V236l0,0l-1,0.6l-0.1-0.4l1.2-0.7h0.4v6H689.7z"/>
	<path d="M700.4,234.8c-0.9,0.7-1.6,2-1.6,3.7s0.7,3,1.6,3.7l0,0H700c-0.8-0.7-1.5-2-1.5-3.7c0-1.6,0.7-3,1.5-3.7H700.4L700.4,234.8
		z"/>
	<path d="M703.1,237.4c-0.4,0.6-0.8,1.1-1.2,1.5c-0.1-0.1-0.2-0.3-0.2-0.4c0.9-0.9,1.7-2.3,2.2-3.7l0.5,0.2c0,0.1-0.1,0.1-0.2,0.1
		c-0.2,0.6-0.5,1.2-0.8,1.7l0.2,0.1c0,0,0,0.1-0.1,0.1v5.2h-0.4V237.4z M709.2,237.4l-2.7,0.3c0.4,2.3,1.1,4.1,2,4.1
		c0.3,0,0.4-0.4,0.4-1.6c0.1,0.1,0.2,0.2,0.3,0.2c-0.1,1.3-0.3,1.8-0.8,1.7c-1.2,0-2-2-2.4-4.4l-2.1,0.2v-0.4l2.1-0.2
		c-0.1-0.8-0.2-1.7-0.2-2.5h0.6c0,0.1,0,0.1-0.2,0.1c0,0.8,0.1,1.6,0.2,2.4l2.7-0.3L709.2,237.4z M707.4,235
		c0.5,0.4,1.2,0.9,1.5,1.2l-0.3,0.2c-0.3-0.3-0.9-0.9-1.5-1.3L707.4,235z"/>
	<path d="M710.6,242.1c0.9-0.7,1.6-2,1.6-3.7s-0.7-3-1.6-3.7l0,0h0.4c0.8,0.7,1.5,2,1.5,3.7c0,1.6-0.7,3-1.5,3.7H710.6L710.6,242.1z
		"/>
	<rect x="858.1" y="178.2" class="st4" width="198.7" height="73.3"/>
	<text transform="matrix(1 0 0 1 858.0697 185.2434)" style="font-family:'KozGoPro-Light-83pv-RKSJ-H'; font-size:8px;">※201</text>
	
		<text transform="matrix(1 0 0 1 880.7697 185.2434)" style="font-family:'KozGoPro-Light-83pv-RKSJ-H'; font-size:8px; letter-spacing:2;">6年3月</text>
	<text transform="matrix(1 0 0 1 915.0697 185.2434)" style="font-family:'KozGoPro-Light-83pv-RKSJ-H'; font-size:8px;">1</text>
	
		<text transform="matrix(1 0 0 1 919.8697 185.2434)" style="font-family:'KozGoPro-Light-83pv-RKSJ-H'; font-size:8px; letter-spacing:2;">5</text>
	<text transform="matrix(1 0 0 1 926.5697 185.9856)" style="font-family:'KozGoPro-Light-83pv-RKSJ-H'; font-size:8px;">日より以下に移転します</text>
	
		<text transform="matrix(1 0 0 1 1018.9697 185.9856)" style="font-family:'KozGoPro-Light-83pv-RKSJ-H'; font-size:8px; letter-spacing:-3;">。</text>
	<text transform="matrix(1 0 0 1 858.0697 199.9856)" style="font-family:'KozGoPro-Light-83pv-RKSJ-H'; font-size:8px;">〒100-0006</text>
	<text transform="matrix(1 0 0 1 858.0697 213.9856)" style="font-family:'KozGoPro-Light-83pv-RKSJ-H'; font-size:8px;">東京都千代田区有楽</text>
	
		<text transform="matrix(1 0 0 1 933.6697 213.9856)" style="font-family:'KozGoPro-Light-83pv-RKSJ-H'; font-size:8px; letter-spacing:2;">町</text>
	<text transform="matrix(1 0 0 1 944.0697 213.2434)" style="font-family:'KozGoPro-Light-83pv-RKSJ-H'; font-size:8px;">1-12-1</text>
	
		<text transform="matrix(1 0 0 1 969.2697 213.2434)" style="font-family:'KozGoPro-Light-83pv-RKSJ-H'; font-size:8px; letter-spacing:-1;">​</text>
	<text transform="matrix(1 0 0 1 969.2697 213.2434)" style="font-family:'KozGoPro-Light-83pv-RKSJ-H'; font-size:8px;"> 新有楽町ビ</text>
	
		<text transform="matrix(1 0 0 1 1013.6697 213.9856)" style="font-family:'KozGoPro-Light-83pv-RKSJ-H'; font-size:8px; letter-spacing:2;">ル</text>
	<text transform="matrix(1 0 0 1 1024.0697 213.2434)" style="font-family:'KozGoPro-Light-83pv-RKSJ-H'; font-size:8px;">5F</text>
	
		<text transform="matrix(1 0 0 1 1033.2698 213.2434)" style="font-family:'KozGoPro-Light-83pv-RKSJ-H'; font-size:8px; letter-spacing:-1;">​</text>
	<text transform="matrix(1 0 0 1 1033.2698 213.2434)" style="font-family:'KozGoPro-Light-83pv-RKSJ-H'; font-size:8px;"> </text>
	
		<text transform="matrix(1 0 0 1 858.0697 227.2434)" style="font-family:'KozGoPro-Light-83pv-RKSJ-H'; font-size:8px; letter-spacing:-1;">​</text>
	<text transform="matrix(1 0 0 1 858.0697 227.2434)" style="font-family:'KozGoPro-Light-83pv-RKSJ-H'; font-size:8px;">TEL:03-6206-3480（代表</text>
	
		<text transform="matrix(1 0 0 1 952.5697 227.9856)" style="font-family:'KozGoPro-Light-83pv-RKSJ-H'; font-size:8px; letter-spacing:-3;">）</text>
	
		<text transform="matrix(1 0 0 1 956.9697 227.2434)" style="font-family:'KozGoPro-Light-83pv-RKSJ-H'; font-size:8px; letter-spacing:-1;">​</text>
	<text transform="matrix(1 0 0 1 956.9697 227.2434)" style="font-family:'KozGoPro-Light-83pv-RKSJ-H'; font-size:8px;"> </text>
	<text transform="matrix(1 0 0 1 858.0697 241.2434)" style="font-family:'KozGoPro-Light-83pv-RKSJ-H'; font-size:8px;">FAX:03-6206-3481</text>
</g>
<g>
	<g>
		<path class="st1" d="M74.3,5.6c0,3.1-2.5,5.6-5.6,5.6s-5.6-2.5-5.6-5.6S65.6,0,68.7,0S74.3,2.5,74.3,5.6z"/>
		<path class="st1" d="M73,58.3c0,0.7-0.6,1.2-1.2,1.2h-6c-0.7,0-1.2-0.5-1.2-1.2V19.2c0-0.7,0.6-1.2,1.2-1.2h6
			c0.7,0,1.2,0.5,1.2,1.2V58.3z"/>
	</g>
	<path class="st2" d="M55.2,12.3c0,1.5-0.7,2.2-2.1,2.2H13c-1.1,0-2,0.4-2.8,1.2S9,17.4,9,18.5v10.4c0,0.7,0.4,1,1.1,1h41.3
		c1.4,0,2.1,0.7,2.1,2.1v4.8c0,1.4-0.7,2.1-2.1,2.1H10.1C9.3,38.9,9,39.3,9,40v17.3c0,1.4-0.7,2.1-2.1,2.1H2.1
		c-1.4,0-2.1-0.7-2.1-2.1v-39c0-3.6,1.3-6.6,3.8-9.2C6.3,6.5,9.4,5.3,13,5.3h40.1c1.4,0,2.1,0.7,2.1,2.2V12.3z"/>
	<path class="st2" d="M137.6,50.6c0,4.1-1.9,6.9-5.8,8.3c-1,0.4-2,0.6-3.1,0.6c-2.7,0-4.9-1.1-6.7-3.2L92.8,14.1
		c-0.2-0.2-0.4-0.2-0.5-0.2C92.1,14,92,14.1,92,14.3v43.1c0,1.4-0.7,2.1-2.2,2.1h-4.7c-1.4,0-2.1-0.7-2.1-2.1V12.8
		c0-4.1,1.9-6.8,5.8-8.2C89.8,4.2,90.9,4,92,4c2.7,0,4.9,1,6.7,3l29.2,42.3c0.1,0.1,0.3,0.2,0.5,0.1s0.2-0.2,0.2-0.4V6.8
		c0-1.5,0.7-2.2,2.2-2.2h4.6c1.4,0,2.2,0.7,2.2,2.2L137.6,50.6z"/>
	<path class="st2" d="M200.4,57.4c0,1.4-0.7,2.1-2.1,2.1h-38.1c-3.6,0-6.7-1.3-9.2-3.8s-3.8-5.6-3.8-9.2V18.4c0-3.6,1.3-6.6,3.8-9.2
		c2.5-2.6,5.6-3.8,9.2-3.8h38.1c1.4,0,2.1,0.7,2.1,2.2v4.7c0,1.5-0.7,2.2-2.1,2.2h-38.1c-1.1,0-2,0.4-2.8,1.2s-1.2,1.7-1.2,2.8v28
		c0,1.1,0.4,2.1,1.2,2.9c0.8,0.8,1.7,1.2,2.8,1.2h38.1c1.4,0,2.1,0.7,2.1,2.1V57.4z"/>
</g>
</svg>
