<?xml version="1.0" encoding="UTF-8"?>

<svg version="1.2" baseProfile="tiny" width="100.8mm" height="91.26mm" viewBox="4838 4572 10080 9126" preserveAspectRatio="xMidYMid" fill-rule="evenodd" stroke-width="28.222" stroke-linejoin="round" xmlns="http://www.w3.org/2000/svg" xmlns:ooo="http://xml.openoffice.org/svg/export" xmlns:xlink="http://www.w3.org/1999/xlink" xml:space="preserve">
 <defs class="ClipPathGroup">
  <clipPath id="presentation_clip_path" clipPathUnits="userSpaceOnUse">
   <rect x="4838" y="4572" width="10080" height="9126"/>
  </clipPath>
 </defs>
 <defs class="TextShapeIndex">
  <g ooo:slide="id1" ooo:id-list="id3 id4 id5"/>
 </defs>
 <defs class="EmbeddedBulletChars">
  <g id="bullet-char-template(57356)" transform="scale(0.00048828125,-0.00048828125)">
   <path d="M 580,1141 L 1163,571 580,0 -4,571 580,1141 Z"/>
  </g>
  <g id="bullet-char-template(57354)" transform="scale(0.00048828125,-0.00048828125)">
   <path d="M 8,1128 L 1137,1128 1137,0 8,0 8,1128 Z"/>
  </g>
  <g id="bullet-char-template(10146)" transform="scale(0.00048828125,-0.00048828125)">
   <path d="M 174,0 L 602,739 174,1481 1456,739 174,0 Z M 1358,739 L 309,1346 659,739 1358,739 Z"/>
  </g>
  <g id="bullet-char-template(10132)" transform="scale(0.00048828125,-0.00048828125)">
   <path d="M 2015,739 L 1276,0 717,0 1260,543 174,543 174,936 1260,936 717,1481 1274,1481 2015,739 Z"/>
  </g>
  <g id="bullet-char-template(10007)" transform="scale(0.00048828125,-0.00048828125)">
   <path d="M 0,-2 C -7,14 -16,27 -25,37 L 356,567 C 262,823 215,952 215,954 215,979 228,992 255,992 264,992 276,990 289,987 310,991 331,999 354,1012 L 381,999 492,748 772,1049 836,1024 860,1049 C 881,1039 901,1025 922,1006 886,937 835,863 770,784 769,783 710,716 594,584 L 774,223 C 774,196 753,168 711,139 L 727,119 C 717,90 699,76 672,76 641,76 570,178 457,381 L 164,-76 C 142,-110 111,-127 72,-127 30,-127 9,-110 8,-76 1,-67 -2,-52 -2,-32 -2,-23 -1,-13 0,-2 Z"/>
  </g>
  <g id="bullet-char-template(10004)" transform="scale(0.00048828125,-0.00048828125)">
   <path d="M 285,-33 C 182,-33 111,30 74,156 52,228 41,333 41,471 41,549 55,616 82,672 116,743 169,778 240,778 293,778 328,747 346,684 L 369,508 C 377,444 397,411 428,410 L 1163,1116 C 1174,1127 1196,1133 1229,1133 1271,1133 1292,1118 1292,1087 L 1292,965 C 1292,929 1282,901 1262,881 L 442,47 C 390,-6 338,-33 285,-33 Z"/>
  </g>
  <g id="bullet-char-template(9679)" transform="scale(0.00048828125,-0.00048828125)">
   <path d="M 813,0 C 632,0 489,54 383,161 276,268 223,411 223,592 223,773 276,916 383,1023 489,1130 632,1184 813,1184 992,1184 1136,1130 1245,1023 1353,916 1407,772 1407,592 1407,412 1353,268 1245,161 1136,54 992,0 813,0 Z"/>
  </g>
  <g id="bullet-char-template(8226)" transform="scale(0.00048828125,-0.00048828125)">
   <path d="M 346,457 C 273,457 209,483 155,535 101,586 74,649 74,723 74,796 101,859 155,911 209,963 273,989 346,989 419,989 480,963 531,910 582,859 608,796 608,723 608,648 583,586 532,535 482,483 420,457 346,457 Z"/>
  </g>
  <g id="bullet-char-template(8211)" transform="scale(0.00048828125,-0.00048828125)">
   <path d="M -4,459 L 1135,459 1135,606 -4,606 -4,459 Z"/>
  </g>
 </defs>
 <defs class="TextEmbeddedBitmaps"/>
 <g class="SlideGroup">
  <g>
   <g id="id1" class="Slide" clip-path="url(#presentation_clip_path)">
    <g class="Page">
     <g class="com.sun.star.drawing.ClosedBezierShape">
      <g id="id3">
       <path fill="rgb(173,37,43)" stroke="none" d="M 11049,5980 L 11049,5981 C 10663,5998 10594,6607 11136,6744 11391,6809 11561,6624 11562,6419 L 11563,6419 C 11564,5958 11967,6016 12302,5750 12636,5484 12327,5029 11847,5055 11497,5073 11353,5321 11434,5552 11538,5844 11337,5941 11049,5980 Z M 11013,5002 C 10640,4784 10159,5187 10419,5497 10767,5910 11507,5292 11013,5002 Z M 13640,4933 C 13452,4327 12387,4536 12630,5178 12832,5712 13827,5539 13640,4933 Z M 12558,6231 C 12676,6505 13193,6427 13074,6074 12955,5721 12400,5868 12558,6231 Z M 10192,9912 C 10339,10224 10910,10091 10967,9791 11013,9546 10762,9509 10781,9263 10781,9247 10781,9230 10780,9214 10766,8853 10543,8699 10281,8791 10018,8884 10018,9196 10132,9416 10186,9521 10106,9734 10192,9912 Z M 9679,6908 C 9521,6648 9176,6703 8940,6910 8727,7097 8403,7078 8310,7494 8191,8025 8651,8215 8839,7935 8975,7734 9132,7547 9332,7563 9663,7589 9924,7308 9679,6908 Z M 12201,7683 C 12426,7593 12525,7428 12359,7093 12194,6758 11955,6556 11672,6781 11468,6942 11519,7243 11615,7407 11728,7599 11950,7783 12201,7683 Z M 11618,8483 C 11656,8099 11479,7836 11124,7632 10833,7464 11125,7204 10868,6958 10542,6646 10108,6925 10128,7257 10149,7589 9931,7857 9525,7845 9183,7835 9001,8316 9299,8615 9554,8869 9936,8803 10156,8482 10314,8251 10686,8111 10785,8557 10900,9072 11563,9035 11618,8483 Z M 8642,6610 C 9008,6335 9564,6322 9780,6554 9997,6788 10470,6674 10539,6309 10594,6023 10453,5756 10030,5671 9981,5669 9933,5664 9883,5664 9312,5664 8780,5833 8334,6122 7900,6421 8288,6875 8642,6610 Z M 8798,8493 C 8460,8213 7947,8776 8341,9291 8734,9805 9470,9050 8798,8493 Z M 7767,8469 C 8030,8278 7960,7981 7988,7678 8023,7309 8217,7103 8145,6859 8096,6691 7778,6589 7577,6838 7315,7197 7135,7618 7063,8077 7011,8623 7517,8651 7767,8469 Z M 10725,10355 C 10255,10636 9662,10304 9790,9787 9897,9355 9179,9154 8952,9892 8774,10473 7955,10103 7946,9221 7939,8575 7016,8876 7179,9439 7561,10568 8626,11380 9883,11380 10267,11380 10632,11308 10964,11168 11768,10827 11320,9997 10725,10355 Z M 12728,8251 C 12737,8340 12742,8430 12742,8522 12742,8989 12639,9434 12429,9817 12173,10284 11852,10368 11606,10250 11353,10127 11191,9704 11549,9403 11818,9176 11988,8662 11964,8264 11939,7866 12607,7664 12728,8251 Z"/>
      </g>
     </g>
     <g class="com.sun.star.drawing.ClosedBezierShape">
      <g id="id4">
       <path fill="rgb(35,31,32)" stroke="none" d="M 7853,12779 C 7853,12885 7755,12896 7557,12903 L 7557,13164 C 7557,13164 8175,13243 8229,12854 8267,12580 8132,12296 7684,12296 7237,12296 7107,12544 7107,12835 L 7107,13151 C 7107,13482 7273,13698 7709,13698 7897,13698 8094,13656 8215,13612 L 8157,13314 C 8038,13350 7872,13372 7748,13372 7566,13372 7505,13330 7505,13175 L 7505,12779 C 7505,12685 7549,12608 7687,12608 7826,12608 7853,12685 7853,12779 Z M 8742,13217 C 8742,13094 8854,13079 9052,13072 L 9051,12787 C 9051,12787 8834,12759 8698,12797 8419,12876 8391,13041 8380,13140 8351,13415 8477,13698 8925,13698 9373,13698 9503,13449 9503,13159 L 9503,12843 C 9503,12511 9337,12296 8900,12296 8712,12296 8516,12337 8394,12381 L 8452,12680 C 8571,12644 8737,12622 8861,12622 9044,12622 9104,12663 9104,12818 L 9104,13214 C 9104,13308 9060,13386 8922,13386 8784,13386 8742,13310 8742,13217 Z M 10124,13670 L 10124,11718 9726,11735 9726,13670 10124,13670 Z M 10138,12993 L 10497,13670 10923,13670 10553,12993 10906,12323 10481,12323 10138,12993 Z M 6967,12672 L 6971,12296 C 6779,12301 6609,12310 6507,12453 L 6513,12323 6147,12323 6147,13670 6545,13670 6545,12945 C 6545,12809 6674,12694 6967,12672 Z M 5252,13670 L 4838,13670 4838,11829 6007,11829 6007,12196 5252,12196 5252,12589 5949,12589 5949,12957 5252,12957 5252,13670 Z"/>
      </g>
     </g>
     <g class="com.sun.star.drawing.ClosedBezierShape">
      <g id="id5">
       <path fill="rgb(173,37,43)" stroke="none" d="M 13456,12323 L 13456,13240 C 13456,13319 13366,13379 13262,13379 13159,13379 13069,13319 13069,13240 L 13069,12323 12671,12323 12671,13248 C 12671,13478 12818,13697 13262,13697 13708,13697 13855,13478 13855,13248 L 13855,12323 13456,12323 Z M 12030,12488 C 12028,12348 11938,12262 11738,12262 11538,12262 11448,12348 11445,12488 L 11445,13180 C 11448,13320 11538,13406 11738,13405 11938,13406 12028,13320 12030,13180 L 12030,12488 Z M 12451,12483 L 12451,13184 C 12451,13438 12257,13698 11738,13698 11218,13698 11025,13438 11025,13184 L 11025,12483 C 11025,12229 11218,11970 11738,11970 12257,11970 12451,12229 12451,12483 Z M 14907,13648 C 14818,13679 14710,13698 14619,13698 14362,13698 14213,13601 14213,13352 L 14213,12644 14030,12644 14030,12323 14213,12323 14213,12000 14611,11983 14611,12323 14918,12323 14896,12644 14611,12644 14611,13297 C 14611,13352 14644,13372 14694,13372 14738,13372 14802,13366 14860,13347 L 14907,13648 Z"/>
      </g>
     </g>
    </g>
   </g>
  </g>
 </g>
</svg>