<?xml version="1.0" encoding="UTF-8"?>

<svg version="1.2" baseProfile="tiny" width="201.68mm" height="20.01mm" viewBox="5331 7318 20168 2001" preserveAspectRatio="xMidYMid" fill-rule="evenodd" stroke-width="28.222" stroke-linejoin="round" xmlns="http://www.w3.org/2000/svg" xmlns:ooo="http://xml.openoffice.org/svg/export" xmlns:xlink="http://www.w3.org/1999/xlink" xml:space="preserve">
 <defs class="ClipPathGroup">
  <clipPath id="presentation_clip_path" clipPathUnits="userSpaceOnUse">
   <rect x="5331" y="7318" width="20168" height="2001"/>
  </clipPath>
 </defs>
 <defs class="TextShapeIndex">
  <g ooo:slide="id1" ooo:id-list="id3 id4 id5 id6 id7 id8 id9 id10 id11 id12 id13 id14 id15"/>
 </defs>
 <defs class="EmbeddedBulletChars">
  <g id="bullet-char-template(57356)" transform="scale(0.00048828125,-0.00048828125)">
   <path d="M 580,1141 L 1163,571 580,0 -4,571 580,1141 Z"/>
  </g>
  <g id="bullet-char-template(57354)" transform="scale(0.00048828125,-0.00048828125)">
   <path d="M 8,1128 L 1137,1128 1137,0 8,0 8,1128 Z"/>
  </g>
  <g id="bullet-char-template(10146)" transform="scale(0.00048828125,-0.00048828125)">
   <path d="M 174,0 L 602,739 174,1481 1456,739 174,0 Z M 1358,739 L 309,1346 659,739 1358,739 Z"/>
  </g>
  <g id="bullet-char-template(10132)" transform="scale(0.00048828125,-0.00048828125)">
   <path d="M 2015,739 L 1276,0 717,0 1260,543 174,543 174,936 1260,936 717,1481 1274,1481 2015,739 Z"/>
  </g>
  <g id="bullet-char-template(10007)" transform="scale(0.00048828125,-0.00048828125)">
   <path d="M 0,-2 C -7,14 -16,27 -25,37 L 356,567 C 262,823 215,952 215,954 215,979 228,992 255,992 264,992 276,990 289,987 310,991 331,999 354,1012 L 381,999 492,748 772,1049 836,1024 860,1049 C 881,1039 901,1025 922,1006 886,937 835,863 770,784 769,783 710,716 594,584 L 774,223 C 774,196 753,168 711,139 L 727,119 C 717,90 699,76 672,76 641,76 570,178 457,381 L 164,-76 C 142,-110 111,-127 72,-127 30,-127 9,-110 8,-76 1,-67 -2,-52 -2,-32 -2,-23 -1,-13 0,-2 Z"/>
  </g>
  <g id="bullet-char-template(10004)" transform="scale(0.00048828125,-0.00048828125)">
   <path d="M 285,-33 C 182,-33 111,30 74,156 52,228 41,333 41,471 41,549 55,616 82,672 116,743 169,778 240,778 293,778 328,747 346,684 L 369,508 C 377,444 397,411 428,410 L 1163,1116 C 1174,1127 1196,1133 1229,1133 1271,1133 1292,1118 1292,1087 L 1292,965 C 1292,929 1282,901 1262,881 L 442,47 C 390,-6 338,-33 285,-33 Z"/>
  </g>
  <g id="bullet-char-template(9679)" transform="scale(0.00048828125,-0.00048828125)">
   <path d="M 813,0 C 632,0 489,54 383,161 276,268 223,411 223,592 223,773 276,916 383,1023 489,1130 632,1184 813,1184 992,1184 1136,1130 1245,1023 1353,916 1407,772 1407,592 1407,412 1353,268 1245,161 1136,54 992,0 813,0 Z"/>
  </g>
  <g id="bullet-char-template(8226)" transform="scale(0.00048828125,-0.00048828125)">
   <path d="M 346,457 C 273,457 209,483 155,535 101,586 74,649 74,723 74,796 101,859 155,911 209,963 273,989 346,989 419,989 480,963 531,910 582,859 608,796 608,723 608,648 583,586 532,535 482,483 420,457 346,457 Z"/>
  </g>
  <g id="bullet-char-template(8211)" transform="scale(0.00048828125,-0.00048828125)">
   <path d="M -4,459 L 1135,459 1135,606 -4,606 -4,459 Z"/>
  </g>
 </defs>
 <defs class="TextEmbeddedBitmaps"/>
 <g class="SlideGroup">
  <g>
   <g id="id1" class="Slide" clip-path="url(#presentation_clip_path)">
    <g class="Page">
     <g class="com.sun.star.drawing.ClosedBezierShape">
      <g id="id3">
       <path fill="rgb(28,99,183)" stroke="none" d="M 10223,9162 L 10356,9162 C 10363,9162 10371,9157 10375,9151 L 10924,8251 11223,9281 C 11225,9288 11232,9293 11239,9293 L 11815,9293 C 11822,9293 11826,9288 11824,9281 L 11216,7356 C 11214,7350 11207,7344 11200,7344 L 10983,7344 C 10976,7344 10967,7349 10964,7354 L 10223,8502 9483,7354 C 9479,7349 9471,7344 9464,7344 L 9248,7344 C 9241,7344 9234,7350 9232,7356 L 8624,9281 C 8622,9288 8626,9293 8633,9293 L 9209,9293 C 9216,9293 9223,9288 9224,9281 L 9523,8251 10072,9151 C 10075,9157 10084,9162 10091,9162 L 10223,9162 Z"/>
      </g>
     </g>
     <g class="com.sun.star.drawing.ClosedBezierShape">
      <g id="id4">
       <path fill="rgb(28,99,183)" stroke="none" d="M 8651,8202 C 8650,8196 8645,8192 8639,8192 L 8562,8192 7992,8192 6996,8192 C 6909,8192 6839,8263 6839,8349 6839,8436 6909,8507 6996,8507 L 7972,8507 C 7856,8814 7463,9040 6996,9040 6438,9040 5986,8716 5986,8318 5986,7919 6438,7596 6996,7596 7301,7596 7574,7693 7760,7845 7760,7846 7761,7846 7762,7847 7763,7848 7766,7849 7768,7849 L 8440,7849 C 8447,7849 8453,7843 8453,7836 8453,7834 8452,7831 8450,7829 8449,7828 8449,7828 8449,7828 8162,7523 7619,7318 6996,7318 6077,7318 5331,7766 5331,8318 5331,8870 6077,9319 6996,9319 7916,9319 8662,8870 8662,8318 8662,8279 8658,8240 8651,8202 Z"/>
      </g>
     </g>
     <g class="com.sun.star.drawing.ClosedBezierShape">
      <g id="id5">
       <path fill="rgb(28,99,183)" stroke="none" d="M 13450,9040 C 12892,9040 12440,8716 12440,8318 12440,7919 12892,7596 13450,7596 14009,7596 14461,7919 14461,8318 14461,8716 14009,9040 13450,9040 Z M 13450,7318 C 12531,7318 11786,7766 11786,8318 11786,8870 12531,9319 13450,9319 14370,9319 15117,8870 15117,8318 15117,7766 14370,7318 13450,7318 Z"/>
      </g>
     </g>
     <g class="com.sun.star.drawing.ClosedBezierShape">
      <g id="id6">
       <path fill="rgb(58,57,63)" stroke="none" d="M 22135,9262 C 22134,9279 22147,9293 22164,9293 L 22513,9293 C 22530,9293 22545,9279 22546,9262 L 22606,8464 C 22607,8447 22594,8433 22577,8433 L 22228,8433 C 22211,8433 22196,8447 22195,8464 L 22135,9262 Z"/>
      </g>
     </g>
     <g class="com.sun.star.drawing.ClosedBezierShape">
      <g id="id7">
       <path fill="rgb(58,57,63)" stroke="none" d="M 24147,8433 C 24130,8433 24117,8447 24119,8464 L 24179,9262 C 24180,9279 24195,9293 24212,9293 L 24561,9293 C 24578,9293 24611,9279 24610,9262 L 24530,8464 C 24528,8447 24513,8433 24496,8433 L 24147,8433 Z"/>
      </g>
     </g>
     <g class="com.sun.star.drawing.ClosedBezierShape">
      <g id="id8">
       <path fill="rgb(58,57,63)" stroke="none" d="M 24518,8039 C 24535,8039 24549,8025 24549,8008 L 24549,7673 C 24549,7656 24535,7642 24518,7642 L 23588,7642 C 23571,7642 23557,7628 23557,7611 L 23557,7375 C 23557,7358 23543,7344 23526,7344 L 23191,7344 C 23174,7344 23160,7358 23160,7375 L 23160,7611 C 23160,7628 23146,7642 23129,7642 L 22205,7642 C 22188,7642 22174,7656 22174,7673 L 22174,8008 C 22174,8025 22188,8039 22205,8039 L 23129,8039 C 23146,8039 23160,8053 23160,8070 L 23160,9261 C 23160,9279 23174,9293 23191,9293 L 23526,9293 C 23543,9293 23557,9279 23557,9261 L 23557,8070 C 23557,8053 23571,8039 23588,8039 L 24518,8039 Z"/>
      </g>
     </g>
     <g class="com.sun.star.drawing.ClosedBezierShape">
      <g id="id9">
       <path fill="rgb(79,110,152)" stroke="none" d="M 24742,7808 C 24742,7825 24756,7839 24773,7839 L 25010,7839 C 25027,7839 25041,7825 25041,7808 L 25041,7349 C 25041,7332 25027,7318 25010,7318 L 24773,7318 C 24756,7318 24742,7332 24742,7349 L 24742,7808 Z"/>
      </g>
     </g>
     <g class="com.sun.star.drawing.ClosedBezierShape">
      <g id="id10">
       <path fill="rgb(79,110,152)" stroke="none" d="M 25200,7808 C 25200,7825 25214,7839 25231,7839 L 25468,7839 C 25485,7839 25499,7825 25499,7808 L 25499,7349 C 25499,7332 25485,7318 25468,7318 L 25231,7318 C 25214,7318 25200,7332 25200,7349 L 25200,7808 Z"/>
      </g>
     </g>
     <g class="com.sun.star.drawing.ClosedBezierShape">
      <g id="id11">
       <path fill="rgb(58,57,63)" stroke="none" d="M 15631,8706 C 15623,8714 15623,8728 15631,8736 L 15882,8987 C 15890,8995 15904,8995 15912,8987 L 16821,8077 C 16830,8069 16843,8069 16851,8077 L 18040,9267 C 18048,9275 18062,9275 18070,9267 L 18321,9016 C 18329,9008 18329,8995 18321,8987 L 16851,7514 C 16843,7506 16830,7506 16822,7514 L 15631,8706 Z"/>
      </g>
     </g>
     <g class="com.sun.star.drawing.ClosedBezierShape">
      <g id="id12">
       <path fill="rgb(79,110,152)" stroke="none" d="M 18068,7905 C 18230,7905 18362,7774 18362,7612 18362,7450 18230,7318 18068,7318 17907,7318 17774,7450 17774,7612 17774,7774 17907,7905 18068,7905 Z"/>
      </g>
     </g>
     <g class="com.sun.star.drawing.ClosedBezierShape">
      <g id="id13">
       <path fill="rgb(58,57,63)" stroke="none" d="M 18983,9272 C 18982,9283 18990,9293 19001,9293 L 19387,9293 C 19399,9293 19410,9283 19411,9272 L 19620,7537 C 19621,7526 19613,7517 19601,7517 L 19215,7517 C 19203,7517 19193,7526 19191,7537 L 18983,9272 Z"/>
      </g>
     </g>
     <g class="com.sun.star.drawing.ClosedBezierShape">
      <g id="id14">
       <path fill="rgb(58,57,63)" stroke="none" d="M 20545,7517 C 20533,7517 20525,7526 20526,7537 L 20737,9272 C 20739,9283 20749,9293 20761,9293 L 21146,9293 C 21158,9293 21166,9283 21165,9272 L 20954,7537 C 20953,7526 20943,7517 20931,7517 L 20545,7517 Z"/>
      </g>
     </g>
     <g class="com.sun.star.drawing.ClosedBezierShape">
      <g id="id15">
       <path fill="rgb(79,110,152)" stroke="none" d="M 21520,7318 C 21357,7318 21226,7450 21226,7612 21226,7774 21357,7905 21520,7905 21682,7905 21813,7774 21813,7612 21813,7450 21682,7318 21520,7318 Z"/>
      </g>
     </g>
    </g>
   </g>
  </g>
 </g>
</svg>