<?xml version="1.0" encoding="UTF-8"?>

<svg version="1.2" baseProfile="tiny" width="109.18mm" height="103.51mm" viewBox="15525 9497 10918 10351" preserveAspectRatio="xMidYMid" fill-rule="evenodd" stroke-width="28.222" stroke-linejoin="round" xmlns="http://www.w3.org/2000/svg" xmlns:ooo="http://xml.openoffice.org/svg/export" xmlns:xlink="http://www.w3.org/1999/xlink" xml:space="preserve">
 <defs class="ClipPathGroup">
  <clipPath id="presentation_clip_path" clipPathUnits="userSpaceOnUse">
   <rect x="15525" y="9497" width="10918" height="10351"/>
  </clipPath>
 </defs>
 <defs class="TextShapeIndex">
  <g ooo:slide="id1" ooo:id-list="id3 id4 id5 id6 id7 id8 id9 id10 id11 id12"/>
 </defs>
 <defs class="EmbeddedBulletChars">
  <g id="bullet-char-template(57356)" transform="scale(0.00048828125,-0.00048828125)">
   <path d="M 580,1141 L 1163,571 580,0 -4,571 580,1141 Z"/>
  </g>
  <g id="bullet-char-template(57354)" transform="scale(0.00048828125,-0.00048828125)">
   <path d="M 8,1128 L 1137,1128 1137,0 8,0 8,1128 Z"/>
  </g>
  <g id="bullet-char-template(10146)" transform="scale(0.00048828125,-0.00048828125)">
   <path d="M 174,0 L 602,739 174,1481 1456,739 174,0 Z M 1358,739 L 309,1346 659,739 1358,739 Z"/>
  </g>
  <g id="bullet-char-template(10132)" transform="scale(0.00048828125,-0.00048828125)">
   <path d="M 2015,739 L 1276,0 717,0 1260,543 174,543 174,936 1260,936 717,1481 1274,1481 2015,739 Z"/>
  </g>
  <g id="bullet-char-template(10007)" transform="scale(0.00048828125,-0.00048828125)">
   <path d="M 0,-2 C -7,14 -16,27 -25,37 L 356,567 C 262,823 215,952 215,954 215,979 228,992 255,992 264,992 276,990 289,987 310,991 331,999 354,1012 L 381,999 492,748 772,1049 836,1024 860,1049 C 881,1039 901,1025 922,1006 886,937 835,863 770,784 769,783 710,716 594,584 L 774,223 C 774,196 753,168 711,139 L 727,119 C 717,90 699,76 672,76 641,76 570,178 457,381 L 164,-76 C 142,-110 111,-127 72,-127 30,-127 9,-110 8,-76 1,-67 -2,-52 -2,-32 -2,-23 -1,-13 0,-2 Z"/>
  </g>
  <g id="bullet-char-template(10004)" transform="scale(0.00048828125,-0.00048828125)">
   <path d="M 285,-33 C 182,-33 111,30 74,156 52,228 41,333 41,471 41,549 55,616 82,672 116,743 169,778 240,778 293,778 328,747 346,684 L 369,508 C 377,444 397,411 428,410 L 1163,1116 C 1174,1127 1196,1133 1229,1133 1271,1133 1292,1118 1292,1087 L 1292,965 C 1292,929 1282,901 1262,881 L 442,47 C 390,-6 338,-33 285,-33 Z"/>
  </g>
  <g id="bullet-char-template(9679)" transform="scale(0.00048828125,-0.00048828125)">
   <path d="M 813,0 C 632,0 489,54 383,161 276,268 223,411 223,592 223,773 276,916 383,1023 489,1130 632,1184 813,1184 992,1184 1136,1130 1245,1023 1353,916 1407,772 1407,592 1407,412 1353,268 1245,161 1136,54 992,0 813,0 Z"/>
  </g>
  <g id="bullet-char-template(8226)" transform="scale(0.00048828125,-0.00048828125)">
   <path d="M 346,457 C 273,457 209,483 155,535 101,586 74,649 74,723 74,796 101,859 155,911 209,963 273,989 346,989 419,989 480,963 531,910 582,859 608,796 608,723 608,648 583,586 532,535 482,483 420,457 346,457 Z"/>
  </g>
  <g id="bullet-char-template(8211)" transform="scale(0.00048828125,-0.00048828125)">
   <path d="M -4,459 L 1135,459 1135,606 -4,606 -4,459 Z"/>
  </g>
 </defs>
 <defs class="TextEmbeddedBitmaps"/>
 <g class="SlideGroup">
  <g>
   <g id="id1" class="Slide" clip-path="url(#presentation_clip_path)">
    <g class="Page">
     <g class="com.sun.star.drawing.ClosedBezierShape">
      <g id="id3">
       <path fill="rgb(0,173,239)" stroke="none" d="M 18196,17920 L 18047,18819 C 18037,18896 18022,18926 18005,18926 17988,18926 17974,18896 17963,18819 L 17815,17920 17560,17920 17878,19833 18005,19833 18132,19833 18451,17920 18196,17920 Z"/>
      </g>
     </g>
     <g class="com.sun.star.drawing.PolyPolygonShape">
      <g id="id4">
       <path fill="rgb(0,173,239)" stroke="none" d="M 17087,19834 L 16831,19834 16831,17920 17087,17920 17087,19834 Z"/>
      </g>
     </g>
     <g class="com.sun.star.drawing.ClosedBezierShape">
      <g id="id5">
       <path fill="rgb(0,173,239)" stroke="none" d="M 15804,19579 C 15783,19579 15778,19569 15779,19548 L 15779,17920 15525,17920 15525,17921 15525,19834 16459,19834 16459,19579 15804,19579 Z"/>
      </g>
     </g>
     <g class="com.sun.star.drawing.ClosedBezierShape">
      <g id="id6">
       <path fill="rgb(0,173,239)" stroke="none" d="M 19447,19004 L 19214,19004 C 19193,19004 19182,19015 19182,19036 L 19182,19547 C 19182,19569 19193,19579 19214,19579 L 19741,19579 19741,19834 18927,19834 18927,17919 19741,17919 19741,18175 19214,18175 C 19193,18175 19182,18185 19182,18207 L 19182,18718 C 19182,18739 19193,18750 19214,18750 L 19447,18750 19447,19004 Z"/>
      </g>
     </g>
     <g class="com.sun.star.drawing.ClosedBezierShape">
      <g id="id7">
       <path fill="rgb(0,173,239)" stroke="none" d="M 22072,19004 L 21839,19004 C 21818,19004 21807,19015 21807,19036 L 21807,19547 C 21807,19569 21818,19579 21839,19579 L 22368,19579 22368,19834 21553,19834 21553,17919 22368,17919 22368,18175 21839,18175 C 21818,18175 21807,18185 21807,18207 L 21807,18718 C 21807,18739 21818,18750 21839,18750 L 22072,18750 22072,19004 Z"/>
      </g>
     </g>
     <g class="com.sun.star.drawing.ClosedBezierShape">
      <g id="id8">
       <path fill="rgb(0,173,239)" stroke="none" d="M 26148,19004 L 25914,19004 C 25893,19004 25883,19015 25883,19036 L 25883,19547 C 25883,19569 25893,19579 25914,19579 L 26443,19579 26443,19834 25628,19834 25628,17919 26443,17919 26443,18175 25914,18175 C 25893,18175 25883,18185 25883,18207 L 25883,18718 C 25883,18739 25893,18750 25914,18750 L 26148,18750 26148,19004 Z"/>
      </g>
     </g>
     <g class="com.sun.star.drawing.ClosedBezierShape">
      <g id="id9">
       <path fill="rgb(0,173,239)" stroke="none" d="M 23391,18982 C 23397,19000 23416,19010 23433,19006 23450,19002 23459,18989 23459,18966 L 23459,17919 23714,17919 23714,19834 23459,19834 23137,18818 C 23131,18803 23113,18795 23098,18799 23083,18804 23076,18817 23077,18839 L 23077,19834 22823,19834 22823,17919 23077,17919 23391,18982 Z"/>
      </g>
     </g>
     <g class="com.sun.star.drawing.ClosedBezierShape">
      <g id="id10">
       <path fill="rgb(0,173,239)" stroke="none" d="M 21058,18485 L 20785,18485 20785,18421 C 20785,18292 20731,18185 20592,18185 20442,18185 20407,18308 20407,18437 20407,18590 20420,18619 20562,18676 L 20771,18762 C 21012,18855 21058,18989 21058,19274 21058,19604 20940,19848 20587,19848 20321,19848 20119,19648 20119,19384 L 20119,19280 20394,19280 20394,19368 C 20394,19469 20447,19568 20587,19568 20771,19568 20785,19456 20785,19277 20785,19068 20761,19058 20627,19003 L 20431,18921 C 20196,18822 20133,18686 20133,18440 20133,18144 20289,17905 20603,17905 20876,17905 21058,18130 21058,18347 L 21058,18485 Z"/>
      </g>
     </g>
     <g class="com.sun.star.drawing.ClosedBezierShape">
      <g id="id11">
       <path fill="rgb(0,173,239)" stroke="none" d="M 25133,18485 L 24860,18485 24860,18421 C 24860,18292 24805,18185 24666,18185 24516,18185 24481,18308 24481,18437 24481,18590 24494,18619 24636,18676 L 24846,18762 C 25088,18855 25133,18989 25133,19274 25133,19604 25015,19848 24661,19848 24395,19848 24195,19648 24195,19384 L 24195,19280 24468,19280 24468,19368 C 24468,19469 24521,19568 24661,19568 24846,19568 24860,19456 24860,19277 24860,19068 24836,19058 24701,19003 L 24505,18921 C 24270,18822 24208,18686 24208,18440 24208,18144 24363,17905 24677,17905 24951,17905 25133,18130 25133,18347 L 25133,18485 Z"/>
      </g>
     </g>
     <g class="com.sun.star.drawing.ClosedBezierShape">
      <g id="id12">
       <path fill="rgb(0,173,239)" stroke="none" d="M 22854,14126 C 22694,13599 22349,13184 22003,12790 22003,12790 21756,13144 21637,13322 21576,13415 21377,13686 21377,13686 21546,13910 21705,14129 21769,14251 21832,14373 21869,14510 21869,14657 21869,15139 21478,15530 20994,15531 20733,15530 20499,15415 20339,15234 20203,15080 20120,14878 20120,14657 20120,14510 20157,14373 20220,14251 20351,13998 20984,13198 20993,13186 20994,13185 20994,13185 20994,13185 21148,12990 21397,12634 21596,12317 21388,12060 21164,11751 20998,11420 20997,11419 20995,11416 20995,11413 20995,11410 20997,11406 20998,11406 21074,11259 21179,11124 21267,11022 21424,10841 21606,10661 21679,10415 21702,10342 21706,10289 21706,10222 21706,9824 21385,9500 20986,9497 20985,9497 20984,9497 20983,9497 20982,9497 20981,9497 20980,9497 20583,9500 20261,9824 20261,10222 20261,10289 20266,10342 20288,10415 20362,10661 20544,10841 20699,11022 20787,11124 20892,11258 20969,11405 20969,11406 20971,11410 20971,11413 20971,11416 20969,11419 20969,11420 20761,11833 20465,12213 20220,12498 19802,12984 19313,13468 19114,14126 19054,14323 19042,14466 19042,14646 19042,15717 19906,16586 20975,16595 L 20992,16595 C 22062,16586 22925,15717 22925,14646 22925,14466 22913,14323 22854,14126 Z"/>
      </g>
     </g>
    </g>
   </g>
  </g>
 </g>
</svg>