<?xml version="1.0" encoding="UTF-8"?>

<svg version="1.2" baseProfile="tiny" width="54.99mm" height="54.47mm" viewBox="9301 11353 5499 5447" preserveAspectRatio="xMidYMid" fill-rule="evenodd" stroke-width="28.222" stroke-linejoin="round" xmlns="http://www.w3.org/2000/svg" xmlns:ooo="http://xml.openoffice.org/svg/export" xmlns:xlink="http://www.w3.org/1999/xlink" xml:space="preserve">
 <defs class="ClipPathGroup">
  <clipPath id="presentation_clip_path" clipPathUnits="userSpaceOnUse">
   <rect x="9301" y="11353" width="5499" height="5447"/>
  </clipPath>
 </defs>
 <defs class="TextShapeIndex">
  <g ooo:slide="id1" ooo:id-list="id3 id4 id5 id6 id7 id8 id9 id10"/>
 </defs>
 <defs class="EmbeddedBulletChars">
  <g id="bullet-char-template(57356)" transform="scale(0.00048828125,-0.00048828125)">
   <path d="M 580,1141 L 1163,571 580,0 -4,571 580,1141 Z"/>
  </g>
  <g id="bullet-char-template(57354)" transform="scale(0.00048828125,-0.00048828125)">
   <path d="M 8,1128 L 1137,1128 1137,0 8,0 8,1128 Z"/>
  </g>
  <g id="bullet-char-template(10146)" transform="scale(0.00048828125,-0.00048828125)">
   <path d="M 174,0 L 602,739 174,1481 1456,739 174,0 Z M 1358,739 L 309,1346 659,739 1358,739 Z"/>
  </g>
  <g id="bullet-char-template(10132)" transform="scale(0.00048828125,-0.00048828125)">
   <path d="M 2015,739 L 1276,0 717,0 1260,543 174,543 174,936 1260,936 717,1481 1274,1481 2015,739 Z"/>
  </g>
  <g id="bullet-char-template(10007)" transform="scale(0.00048828125,-0.00048828125)">
   <path d="M 0,-2 C -7,14 -16,27 -25,37 L 356,567 C 262,823 215,952 215,954 215,979 228,992 255,992 264,992 276,990 289,987 310,991 331,999 354,1012 L 381,999 492,748 772,1049 836,1024 860,1049 C 881,1039 901,1025 922,1006 886,937 835,863 770,784 769,783 710,716 594,584 L 774,223 C 774,196 753,168 711,139 L 727,119 C 717,90 699,76 672,76 641,76 570,178 457,381 L 164,-76 C 142,-110 111,-127 72,-127 30,-127 9,-110 8,-76 1,-67 -2,-52 -2,-32 -2,-23 -1,-13 0,-2 Z"/>
  </g>
  <g id="bullet-char-template(10004)" transform="scale(0.00048828125,-0.00048828125)">
   <path d="M 285,-33 C 182,-33 111,30 74,156 52,228 41,333 41,471 41,549 55,616 82,672 116,743 169,778 240,778 293,778 328,747 346,684 L 369,508 C 377,444 397,411 428,410 L 1163,1116 C 1174,1127 1196,1133 1229,1133 1271,1133 1292,1118 1292,1087 L 1292,965 C 1292,929 1282,901 1262,881 L 442,47 C 390,-6 338,-33 285,-33 Z"/>
  </g>
  <g id="bullet-char-template(9679)" transform="scale(0.00048828125,-0.00048828125)">
   <path d="M 813,0 C 632,0 489,54 383,161 276,268 223,411 223,592 223,773 276,916 383,1023 489,1130 632,1184 813,1184 992,1184 1136,1130 1245,1023 1353,916 1407,772 1407,592 1407,412 1353,268 1245,161 1136,54 992,0 813,0 Z"/>
  </g>
  <g id="bullet-char-template(8226)" transform="scale(0.00048828125,-0.00048828125)">
   <path d="M 346,457 C 273,457 209,483 155,535 101,586 74,649 74,723 74,796 101,859 155,911 209,963 273,989 346,989 419,989 480,963 531,910 582,859 608,796 608,723 608,648 583,586 532,535 482,483 420,457 346,457 Z"/>
  </g>
  <g id="bullet-char-template(8211)" transform="scale(0.00048828125,-0.00048828125)">
   <path d="M -4,459 L 1135,459 1135,606 -4,606 -4,459 Z"/>
  </g>
 </defs>
 <defs class="TextEmbeddedBitmaps"/>
 <g class="SlideGroup">
  <g>
   <g id="id1" class="Slide" clip-path="url(#presentation_clip_path)">
    <g class="Page">
     <g class="com.sun.star.drawing.ClosedBezierShape">
      <g id="id3">
       <path fill="rgb(35,31,32)" stroke="none" d="M 11278,16647 L 11278,16619 11273,16619 C 11196,16619 11192,16604 11191,16547 L 11187,16421 11181,16164 C 11181,16141 11184,16128 11194,16121 11203,16114 11220,16112 11246,16112 L 11252,16112 11252,16080 11176,16082 11106,16080 11105,16083 C 11060,16185 11010,16286 10961,16384 10961,16384 10902,16504 10893,16523 10883,16502 10681,16080 10681,16080 L 10625,16082 10534,16080 10534,16086 10534,16112 10540,16112 C 10567,16112 10582,16116 10591,16124 10601,16132 10605,16147 10605,16175 L 10599,16404 10596,16504 C 10593,16611 10557,16619 10506,16619 L 10500,16619 10500,16653 10613,16651 10719,16653 10719,16647 10719,16619 10713,16619 C 10683,16619 10663,16617 10651,16607 10640,16598 10636,16579 10636,16539 L 10637,16489 C 10637,16489 10642,16253 10643,16218 10652,16236 10665,16261 10665,16261 10730,16390 10797,16523 10857,16656 L 10858,16660 10882,16660 10883,16656 C 10890,16635 10906,16595 10914,16576 10914,16576 11078,16235 11095,16202 11095,16239 11100,16563 11100,16563 11100,16598 11091,16608 11082,16613 11070,16619 11050,16619 11024,16619 L 11017,16619 11017,16653 11140,16651 11279,16653 11278,16647 Z"/>
      </g>
     </g>
     <g class="com.sun.star.drawing.ClosedBezierShape">
      <g id="id4">
       <path fill="rgb(35,31,32)" stroke="none" d="M 11704,16368 C 11676,16342 11639,16334 11612,16332 11662,16307 11713,16259 11713,16194 11713,16125 11661,16074 11591,16074 11516,16074 11473,16117 11431,16165 L 11428,16168 11447,16192 11452,16188 C 11483,16156 11509,16134 11549,16134 11575,16134 11597,16143 11613,16160 11628,16176 11636,16199 11636,16226 11636,16298 11568,16341 11501,16346 L 11496,16347 11496,16379 11502,16379 C 11559,16375 11600,16386 11625,16409 11646,16429 11657,16459 11657,16499 11657,16575 11607,16627 11536,16627 11487,16627 11469,16603 11455,16584 11446,16571 11438,16560 11424,16560 11416,16560 11408,16563 11402,16569 11396,16575 11392,16583 11392,16592 11392,16621 11443,16665 11520,16665 11683,16665 11743,16543 11743,16467 11743,16425 11730,16392 11704,16368 Z"/>
      </g>
     </g>
     <g class="com.sun.star.drawing.ClosedBezierShape">
      <g id="id5">
       <path fill="rgb(35,31,32)" stroke="none" d="M 11892,16781 C 11937,16773 11984,16738 11984,16688 11984,16657 11969,16649 11939,16649 11913,16649 11892,16627 11892,16601 11892,16567 11921,16552 11951,16552 12003,16552 12033,16605 12033,16647 12033,16738 11970,16784 11897,16800 L 11892,16781 Z"/>
      </g>
     </g>
     <g class="com.sun.star.drawing.ClosedBezierShape">
      <g id="id6">
       <path fill="rgb(35,31,32)" stroke="none" d="M 12361,16164 C 12361,16108 12329,16107 12287,16107 L 12287,16086 C 12324,16087 12362,16087 12398,16087 12435,16087 12472,16087 12512,16086 L 12512,16107 C 12470,16107 12439,16108 12439,16164 L 12439,16568 C 12439,16624 12470,16625 12512,16626 L 12512,16647 C 12474,16647 12439,16645 12404,16645 12365,16645 12327,16646 12287,16647 L 12287,16626 C 12329,16625 12361,16624 12361,16568 L 12361,16164 Z"/>
      </g>
     </g>
     <g class="com.sun.star.drawing.ClosedBezierShape">
      <g id="id7">
       <path fill="rgb(35,31,32)" stroke="none" d="M 12659,16387 C 12659,16357 12650,16349 12612,16334 L 12612,16319 C 12647,16307 12680,16296 12719,16279 12721,16279 12724,16281 12724,16287 L 12724,16340 C 12770,16307 12809,16279 12863,16279 12931,16279 12955,16330 12955,16392 L 12955,16600 C 12955,16626 12973,16626 12995,16626 L 13010,16626 13010,16647 C 12982,16647 12953,16645 12925,16645 12896,16645 12867,16646 12838,16647 L 12838,16626 12852,16626 C 12875,16626 12891,16626 12891,16600 L 12891,16392 C 12891,16346 12863,16323 12817,16323 12791,16323 12750,16344 12724,16362 L 12724,16600 C 12724,16626 12742,16626 12764,16626 L 12778,16626 12778,16647 C 12750,16647 12722,16645 12693,16645 12664,16645 12635,16646 12606,16647 L 12606,16626 12620,16626 C 12643,16626 12659,16626 12659,16600 L 12659,16387 Z"/>
      </g>
     </g>
     <g class="com.sun.star.drawing.ClosedBezierShape">
      <g id="id8">
       <path fill="rgb(35,31,32)" stroke="none" d="M 13394,16575 C 13354,16621 13301,16660 13237,16660 13153,16660 13077,16578 13077,16493 13077,16376 13160,16279 13277,16279 13318,16279 13385,16293 13385,16335 13385,16354 13374,16371 13354,16371 13321,16371 13322,16306 13247,16306 13177,16306 13141,16383 13141,16444 13141,16527 13194,16600 13282,16600 13323,16600 13350,16585 13380,16562 L 13394,16575 Z"/>
      </g>
     </g>
     <g class="com.sun.star.drawing.ClosedBezierShape">
      <g id="id9">
       <path fill="rgb(35,31,32)" stroke="none" d="M 13521,16606 C 13521,16578 13546,16552 13574,16552 13602,16552 13628,16577 13628,16606 13628,16636 13603,16659 13574,16659 13546,16659 13521,16636 13521,16606 Z"/>
      </g>
     </g>
     <g class="com.sun.star.drawing.PolyPolygonShape">
      <g id="id10">
       <path fill="rgb(16,45,93)" stroke="none" d="M 10598,15310 L 10598,15322 10594,15317 10594,15315 10594,15314 10598,15314 10598,15310 Z M 10588,15291 L 10591,15291 10591,15295 10595,15295 10593,15297 10588,15299 10588,15291 Z M 10837,15227 L 10853,15226 10837,15227 Z M 10878,15144 L 10876,15153 10875,15155 10871,15157 10870,15149 10878,15144 Z M 10954,14977 L 10967,14976 10970,14989 10975,14994 10978,14994 10980,14995 10974,15005 10970,15010 10966,15012 10962,15012 10958,15012 10956,15012 10954,15011 10954,15010 10951,15010 10949,15006 10954,14998 10957,14994 10961,14993 10954,14977 Z M 10470,14960 L 10470,14960 Z M 10992,14855 L 11004,14854 11005,14861 10997,14861 10992,14855 Z M 9440,14867 L 9440,14867 Z M 9427,14864 L 9440,14863 9427,14864 Z M 11057,14685 L 11065,14685 11062,14691 11061,14692 11057,14694 11057,14685 Z M 9445,14838 L 9466,14841 9468,14848 9456,14845 9445,14838 Z M 11078,14647 L 11086,14647 11083,14653 11082,14655 11078,14656 11078,14647 Z M 11075,14623 L 11083,14630 11087,14633 11092,14634 11092,14638 11085,14639 11075,14623 Z M 10672,14646 L 10680,14646 10679,14651 10676,14653 10673,14653 10672,14646 Z M 9504,14725 L 9514,14727 9518,14730 9521,14735 9512,14731 9504,14725 Z M 11125,14456 L 11125,14456 Z M 11150,14342 L 11159,14341 11161,14341 11163,14345 11159,14348 11155,14349 11150,14342 Z M 9665,14375 L 9665,14375 Z M 10627,14249 L 10638,14247 10627,14249 Z M 9384,14362 L 9384,14362 Z M 9371,14348 L 9371,14348 Z M 10957,14106 L 10957,14106 Z M 9707,14002 L 9711,14002 9707,14002 Z M 9698,13986 L 9706,13986 9706,13990 9708,13992 9706,13994 9707,13998 9703,13998 9702,13994 9694,13995 9694,13991 9698,13990 9698,13986 Z M 11749,13613 L 11762,13613 11767,13614 11770,13615 11770,13619 11754,13624 11739,13630 11739,13622 11743,13622 11749,13613 Z M 11035,13649 L 11039,13648 11035,13649 Z M 11018,13643 L 11018,13643 Z M 12030,13538 L 12030,13538 Z M 11657,13574 L 11667,13574 11671,13576 11672,13577 11674,13580 11678,13580 11678,13584 11674,13584 11662,13589 11657,13589 11654,13588 11654,13585 11657,13574 Z M 11635,13509 L 11640,13507 11643,13507 11643,13511 11646,13511 11648,13515 11635,13509 Z M 11043,13561 L 11043,13561 Z M 12051,13457 L 12059,13455 12058,13462 12055,13463 12052,13464 12051,13457 Z M 11605,13415 L 11609,13415 11605,13415 Z M 11043,13464 L 11043,13464 Z M 9742,13564 L 9750,13563 9751,13567 9749,13588 9737,13589 9737,13585 9732,13585 9735,13574 9742,13564 Z M 11048,13432 L 11055,13437 11060,13442 11064,13450 11066,13458 11062,13459 11061,13455 11057,13455 11051,13449 11045,13446 11040,13445 11040,13441 11048,13432 Z M 10558,13479 L 10569,13477 10567,13481 10563,13481 10558,13479 Z M 11579,13354 L 11593,13358 11604,13365 11611,13376 11615,13390 11613,13394 11607,13395 11598,13393 11587,13393 11587,13385 11592,13380 11593,13378 11593,13377 11592,13377 11589,13377 11581,13369 11578,13367 11572,13367 11575,13363 11575,13359 11579,13354 Z M 9747,13528 L 9752,13533 9755,13536 9756,13538 9752,13540 9752,13544 9749,13544 9749,13540 9745,13537 9743,13532 9747,13528 Z M 14594,13064 L 14598,13064 14594,13064 Z M 14754,13040 L 14757,13044 14758,13048 14753,13047 14752,13045 14753,13045 14754,13045 14754,13040 Z M 14618,13053 L 14622,13062 14623,13073 14615,13074 14615,13070 14611,13070 14610,13064 14611,13062 14614,13062 14618,13053 Z M 14766,13035 L 14785,13039 14795,13043 14797,13045 14800,13048 14795,13049 14796,13053 14792,13053 14791,13049 14759,13056 14758,13048 14762,13048 14762,13044 14766,13035 Z M 14505,13061 L 14510,13065 14512,13068 14514,13071 14510,13071 14508,13064 14505,13061 Z M 12607,13241 L 12610,13241 12607,13241 Z M 14789,13030 L 14789,13030 Z M 14428,13064 L 14429,13071 14429,13074 14428,13071 14428,13064 Z M 14588,13044 L 14588,13044 Z M 14644,13035 L 14648,13035 14648,13039 14653,13039 14649,13042 14645,13043 14644,13035 Z M 11813,13304 L 11813,13304 Z M 12789,13199 L 12793,13199 12794,13203 12798,13203 12794,13205 12790,13207 12789,13199 Z M 13991,13069 L 13998,13069 13991,13073 13988,13073 13988,13074 13991,13073 13991,13069 Z M 14179,13048 L 14184,13052 14187,13055 14188,13058 14183,13060 14183,13055 14179,13056 14179,13048 Z M 12545,13191 L 12549,13190 12545,13191 Z M 14740,12974 L 14752,12974 14753,12986 14745,12980 14740,12974 Z M 11611,13272 L 11618,13276 11620,13278 11622,13282 11617,13284 11578,13311 11566,13316 11554,13319 11544,13317 11535,13311 11531,13308 11532,13307 11535,13307 11544,13299 11548,13294 11549,13289 11557,13289 11557,13297 11558,13299 11562,13300 11567,13299 11570,13297 11572,13293 11572,13287 11578,13286 11578,13290 11593,13289 11601,13280 11606,13277 11613,13276 11611,13272 Z M 11065,13315 L 11069,13315 11069,13319 11073,13319 11070,13323 11065,13324 11065,13315 Z M 11840,13238 L 11856,13241 11857,13244 11840,13238 Z M 11558,13260 L 11583,13263 11584,13274 11570,13269 11563,13267 11558,13260 Z M 14770,12952 L 14774,12952 14778,12954 14782,12954 14783,12958 14779,12958 14776,12963 14776,12969 14775,12974 14774,12975 14771,12975 14772,12979 14769,12979 14758,12973 14753,12970 14746,12970 14757,12960 14763,12957 14770,12956 14770,12952 Z M 14701,12958 L 14709,12962 14714,12963 14718,12965 14719,12969 14710,12970 14701,12958 Z M 12538,13160 L 12554,13163 12551,13173 12548,13177 12544,13179 12544,13183 12540,13183 12538,13160 Z M 14661,12950 L 14663,12953 14668,12953 14674,12954 14680,12958 14694,12969 14710,12979 14717,12983 14724,12984 14724,12988 14720,12988 14720,12992 14705,13000 14697,13008 14692,13017 14688,13032 14684,13042 14683,13047 14681,13052 14670,13053 14654,13022 14671,13005 14678,12995 14680,12984 14670,12978 14662,12970 14659,12966 14658,12961 14658,12956 14661,12950 Z M 14611,12954 L 14627,12969 14632,12978 14636,12988 14629,12990 14628,12988 14627,12986 14618,12990 14612,12990 14611,12988 14611,12987 14598,12988 14598,12982 14598,12980 14602,12979 14611,12954 Z M 11842,13213 L 11846,13213 11849,13216 11855,13216 11855,13225 11847,13225 11847,13229 11843,13230 11842,13213 Z M 9741,13414 L 9756,13416 9756,13420 9752,13420 9754,13424 9747,13425 9746,13424 9745,13420 9737,13421 9737,13417 9741,13417 9741,13414 Z M 11539,13230 L 11552,13233 11549,13246 11545,13246 11545,13250 11541,13250 11541,13246 11537,13247 11539,13230 Z M 14662,12926 L 14666,12931 14667,12937 14663,12937 14663,12941 14659,12943 14659,12939 14655,12939 14662,12926 Z M 11860,13192 L 11868,13196 11872,13198 11877,13199 11877,13203 11873,13203 11873,13207 11868,13208 11866,13207 11865,13204 11859,13199 11857,13198 11859,13196 11860,13196 11860,13192 Z M 11081,13267 L 11088,13265 11086,13272 11085,13273 11081,13274 11081,13267 Z M 9730,13394 L 9732,13406 9726,13401 9728,13399 9730,13398 9730,13394 Z M 14618,12926 L 14618,12926 Z M 14697,12915 L 14710,12918 14710,12926 14706,12926 14706,12930 14698,12931 14698,12927 14694,12923 14693,12919 14697,12915 Z M 14668,12914 L 14675,12921 14679,12928 14674,12928 14674,12924 14668,12914 Z M 14597,12921 L 14599,12926 14601,12931 14602,12944 14598,12944 14599,12948 14590,12949 14590,12941 14585,12930 14597,12921 Z M 14299,12945 L 14303,12944 14303,12948 14307,12948 14302,12950 14300,12953 14300,12957 14295,12952 14295,12950 14295,12949 14299,12949 14299,12945 Z M 14502,12901 L 14505,12906 14506,12908 14506,12905 14502,12901 Z M 11583,13178 L 11587,13183 11587,13185 11587,13182 11583,13178 Z M 14433,12904 L 14462,12905 14462,12909 14459,12913 14454,12914 14455,12922 14451,12922 14436,12917 14429,12913 14426,12911 14425,12909 14433,12904 Z M 14372,12910 L 14372,12910 Z M 14290,12901 L 14290,12901 Z M 11505,13163 L 11516,13161 11505,13163 Z M 11592,13142 L 11592,13142 Z M 11507,13150 L 11519,13150 11514,13151 11507,13150 Z M 13375,12969 L 13383,12967 13379,12970 13378,12970 13375,12969 Z M 11819,13112 L 11831,13112 11819,13112 Z M 11077,13183 L 11087,13186 11091,13189 11094,13194 11090,13194 11090,13198 11086,13198 11086,13194 11077,13183 Z M 12466,13047 L 12474,13047 12467,13053 12465,13055 12463,13053 12463,13051 12466,13047 Z M 11539,13135 L 11566,13139 11581,13142 11585,13144 11588,13147 11592,13146 11592,13150 11587,13150 11585,13151 11584,13155 11558,13151 11531,13148 11531,13144 11535,13143 11535,13139 11539,13135 Z M 11574,13127 L 11574,13127 Z M 12140,13070 L 12145,13070 12140,13070 Z M 11079,13170 L 11087,13170 11083,13173 11082,13173 11079,13170 Z M 14005,12889 L 14011,12888 14013,12889 14014,12892 14018,12892 14018,12896 14005,12889 Z M 9776,13278 L 9784,13278 9782,13284 9780,13286 9777,13286 9776,13278 Z M 12873,12973 L 12873,12973 Z M 12093,13043 L 12100,13042 12104,13042 12106,13045 12102,13045 12077,13052 12077,13048 12093,13043 Z M 12478,13003 L 12487,13005 12489,13008 12492,13013 12484,13008 12478,13003 Z M 11514,13094 L 11522,13092 11525,13094 11527,13096 11514,13094 Z M 11823,13060 L 11823,13060 Z M 12168,13023 L 12175,13029 12176,13031 12177,13035 12173,13035 12173,13031 12169,13031 12168,13023 Z M 12099,13026 L 12099,13026 Z M 11545,13079 L 11553,13078 11549,13081 11548,13081 11545,13079 Z M 11525,13081 L 11533,13079 11536,13081 11537,13083 11525,13081 Z M 13409,12897 L 13421,12897 13422,12905 13414,12905 13409,12897 Z M 11476,13081 L 11493,13079 11493,13083 11489,13084 11489,13088 11485,13088 11481,13092 11477,13094 11477,13090 11473,13090 11476,13081 Z M 9764,13243 L 9768,13243 9764,13243 Z M 9566,13251 L 9565,13259 9564,13261 9564,13259 9566,13251 Z M 13295,12888 L 13299,12888 13295,12888 Z M 12056,13003 L 12071,13008 12078,13010 12086,13012 12086,13019 12055,13026 12056,13003 Z M 12068,12990 L 12087,12987 12087,12991 12084,12992 12085,12996 12077,13001 12073,13004 12069,13005 12064,12993 12068,12990 Z M 11782,13009 L 11790,13008 11788,13014 11786,13016 11782,13017 11782,13009 Z M 12186,12962 L 12199,12961 12177,12995 12169,13003 12162,13008 12158,13013 12156,13025 12153,13025 12138,13029 12127,13027 12119,13021 12113,13012 12111,13003 12112,12995 12113,12992 12115,12990 12119,12988 12121,12990 12127,12991 12128,12992 12129,12995 12133,12995 12133,12991 12140,12986 12143,12983 12147,12982 12149,12986 12160,12984 12166,12978 12172,12973 12186,12962 Z M 11793,13000 L 11797,12999 11793,13000 Z M 11765,13003 L 11765,13003 Z M 10546,13110 L 10555,13109 10551,13112 10549,13112 10546,13110 Z M 11823,12984 L 11833,12991 11836,12993 11842,12995 11842,13003 11829,13001 11823,13001 11822,13003 11822,13005 11814,13005 11816,13016 11816,13019 11813,13021 11812,13022 11808,13025 11804,13026 11800,13016 11800,13012 11803,13010 11823,12984 Z M 13502,12809 L 13505,12809 13502,12809 Z M 11341,13014 L 11349,13014 11339,13021 11334,13022 11333,13022 11333,13019 11341,13018 11341,13014 Z M 11139,13034 L 11143,13039 11143,13038 11139,13034 Z M 13534,12802 L 13539,12805 13542,12806 13543,12809 13534,12810 13535,12814 13528,12815 13526,12807 13534,12802 Z M 12195,12930 L 12199,12928 12195,12930 Z M 13564,12784 L 13572,12783 13576,12783 13577,12787 13564,12784 Z M 13604,12776 L 13615,12776 13619,12779 13620,12780 13621,12783 13617,12783 13617,12787 13611,12784 13610,12783 13608,12779 13604,12776 Z M 12154,12914 L 12173,12918 12182,12922 12186,12924 12188,12926 12184,12927 12184,12931 12176,12932 12173,12931 12171,12927 12163,12923 12159,12922 12154,12922 12154,12914 Z M 12229,12902 L 12229,12902 Z M 13619,12754 L 13629,12755 13633,12757 13634,12759 13636,12761 13628,12762 13624,12774 13620,12774 13620,12770 13616,12771 13619,12754 Z M 11143,12990 L 11160,12992 11160,12996 11152,12996 11152,13000 11148,13001 11148,12997 11140,12997 11139,12993 11143,12993 11143,12990 Z M 13550,12757 L 13561,12755 13563,12763 13559,12764 13559,12768 13551,12767 13547,12764 13546,12762 13550,12761 13550,12757 Z M 13565,12744 L 13576,12744 13580,12746 13581,12748 13581,12750 13577,12750 13578,12758 13570,12759 13570,12753 13569,12751 13565,12751 13565,12744 Z M 13541,12746 L 13544,12749 13546,12753 13541,12751 13539,12750 13541,12750 13541,12746 Z M 11779,12901 L 11778,12910 11777,12913 11777,12911 11777,12909 11779,12901 Z M 12169,12861 L 12173,12859 12173,12866 12175,12867 12177,12867 12181,12870 12186,12870 12188,12870 12189,12870 12194,12871 12201,12875 12207,12885 12210,12889 12210,12892 12208,12895 12206,12897 12199,12898 12181,12900 12164,12901 12153,12902 12146,12901 12143,12900 12142,12898 12143,12895 12145,12892 12153,12887 12167,12880 12160,12874 12159,12870 12162,12869 12169,12861 Z M 13457,12725 L 13461,12725 13457,12725 Z M 12176,12848 L 12180,12848 12176,12848 Z M 11790,12884 L 11799,12883 11801,12884 11803,12887 11799,12891 11795,12892 11790,12884 Z M 10351,13021 L 10356,13021 10351,13021 Z M 12188,12839 L 12203,12837 12203,12841 12188,12839 Z M 12071,12850 L 12098,12853 12113,12854 12117,12856 12120,12857 12124,12857 12125,12869 12121,12869 12104,12878 12098,12884 12095,12888 12095,12891 12099,12891 12099,12887 12102,12887 12119,12896 12125,12901 12127,12904 12124,12904 12110,12908 12103,12909 12102,12909 12100,12910 12097,12910 12099,12935 12097,12939 12093,12944 12080,12953 12064,12960 12052,12962 12054,12966 12058,12966 12060,12970 12061,12975 12063,12986 12061,12988 12063,12988 12061,12990 12060,12990 12046,12993 12032,12995 12003,12995 12002,12987 12003,12984 12007,12983 12012,12976 12021,12974 12011,12943 12015,12943 12015,12939 12058,12937 12071,12935 12081,12931 12087,12924 12089,12921 12089,12915 12074,12908 12067,12905 12059,12906 12043,12908 12043,12904 12039,12905 12039,12887 12043,12871 12046,12865 12052,12859 12060,12856 12071,12854 12071,12850 Z M 12954,12762 L 12960,12766 12962,12767 12963,12768 12962,12768 12959,12770 12969,12771 12973,12772 12975,12774 12976,12776 12972,12776 12964,12776 12958,12775 12954,12770 12954,12762 Z M 10523,12992 L 10525,13000 10524,13003 10520,13005 10520,12999 10520,12997 10524,12996 10523,12992 Z M 11773,12866 L 11784,12869 11786,12876 11782,12878 11773,12866 Z M 12976,12732 L 12985,12740 12988,12745 12990,12750 12984,12751 12982,12750 12981,12748 12976,12732 Z M 11444,12870 L 11450,12869 11451,12870 11453,12872 11457,12872 11457,12876 11444,12870 Z M 11424,12871 L 11428,12871 11424,12871 Z M 13431,12660 L 13439,12660 13435,12662 13434,12663 13431,12660 Z M 11700,12826 L 11730,12835 11745,12839 11761,12839 11761,12831 11754,12832 11753,12831 11752,12828 11792,12824 11795,12832 11797,12839 11801,12844 11803,12852 11777,12854 11751,12848 11751,12852 11747,12853 11747,12857 11739,12857 11740,12865 11764,12867 11765,12871 11769,12870 11758,12896 11743,12910 11736,12919 11734,12924 11734,12930 11738,12930 11738,12934 11762,12935 11762,12931 11770,12927 11773,12926 11774,12922 11788,12922 11793,12922 11797,12921 11799,12918 11800,12914 11800,12900 11810,12902 11817,12906 11821,12911 11822,12917 11821,12930 11821,12945 11812,12940 11809,12939 11808,12940 11808,12943 11800,12943 11800,12947 11816,12957 11823,12963 11826,12969 11831,12970 11833,12971 11831,12971 11831,12980 11827,12980 11790,12970 11767,12966 11760,12965 11758,12966 11757,12967 11753,12967 11754,12975 11766,12978 11762,12979 11762,12982 11743,12983 11735,12986 11732,12990 11731,12993 11727,12993 11728,12997 11760,13014 11777,13026 11782,13031 11784,13036 11788,13035 11788,13031 11792,13031 11797,13027 11799,13027 11800,13031 11808,13030 11808,13034 11792,13039 11793,13047 11797,13047 11840,13074 11836,13075 11830,13084 11827,13090 11826,13096 11818,13091 11814,13090 11809,13090 11810,13097 11806,13097 11806,13101 11819,13104 11819,13108 11796,13125 11783,13133 11770,13137 11773,13143 11775,13144 11778,13144 11783,13150 11787,13151 11791,13151 11806,13150 11822,13146 11836,13135 11844,13131 11853,13129 11860,13138 11861,13143 11861,13150 11827,13182 11788,13208 11782,13208 11780,13207 11780,13204 11775,13204 11777,13208 11773,13208 11771,13244 11786,13247 11797,13247 11825,13243 11817,13251 11814,13255 11813,13260 11825,13267 11830,13272 11831,13278 11827,13278 11827,13282 11806,13284 11796,13286 11793,13287 11792,13290 11783,13302 11780,13308 11780,13311 11782,13311 11803,13317 11848,13308 11875,13306 11885,13307 11886,13310 11887,13312 11894,13336 11842,13345 11834,13346 11827,13359 11818,13369 11810,13380 11805,13393 11806,13398 11809,13402 11817,13407 11827,13408 11839,13407 11865,13401 11883,13397 11895,13375 11901,13364 11905,13360 11908,13359 11908,13355 11937,13356 11946,13345 11950,13338 11950,13330 11946,13332 11935,13339 11929,13343 11924,13346 11922,13337 11937,13265 11960,13226 11956,13218 11955,13211 11957,13196 11961,13183 11965,13169 11965,13151 11963,13131 11964,13122 11966,13113 11972,13108 11981,13105 11978,13092 11978,13082 11983,13074 11989,13068 12003,13058 12007,13053 12008,13047 12002,13042 12000,13039 11999,13035 12009,13030 12013,13027 12012,13026 12011,13026 12009,13018 12013,13018 12015,13022 12020,13023 12022,13026 12022,13030 12026,13026 12030,13025 12030,13021 12038,13022 12042,13023 12043,13027 12051,13027 12043,13034 12041,13038 12042,13039 12045,13039 12055,13047 12061,13048 12069,13049 12069,13053 12065,13053 12051,13074 12045,13087 12045,13092 12046,13097 12054,13107 12058,13112 12059,13117 12035,13123 12035,13127 12032,13127 12033,13131 12037,13131 12055,13139 12065,13142 12069,13142 12069,13140 12081,13104 12086,13083 12089,13077 12090,13075 12091,13074 12091,13070 12095,13070 12095,13074 12113,13079 12133,13079 12133,13083 12129,13083 12134,13087 12140,13088 12153,13086 12166,13081 12176,13077 12175,13074 12173,13071 12167,13066 12159,13065 12151,13065 12151,13061 12146,13042 12151,13042 12153,13040 12153,13036 12162,13040 12164,13044 12167,13048 12188,13042 12210,13039 12212,13023 12223,13017 12233,13008 12246,12996 12234,12979 12231,12970 12231,12967 12231,12966 12232,12966 12241,12962 12245,12960 12246,12958 12247,12957 12255,12944 12254,12937 12251,12931 12250,12927 12250,12924 12251,12924 12251,12921 12255,12919 12255,12915 12263,12915 12263,12919 12268,12918 12271,12932 12277,12947 12289,12956 12297,12958 12303,12958 12288,13013 12280,13026 12271,13036 12260,13044 12247,13048 12247,13052 12247,13058 12247,13068 12250,13075 12253,13078 12254,13079 12255,13083 12259,13083 12258,13078 12263,13078 12262,13074 12267,13066 12270,13062 12274,13061 12272,13057 12277,13057 12280,13071 12279,13078 12277,13081 12275,13081 12266,13086 12258,13087 12240,13088 12240,13096 12237,13109 12260,13103 12241,13129 12229,13144 12227,13150 12225,13153 12229,13153 12240,13156 12244,13159 12246,13164 12250,13163 12250,13166 12246,13168 12236,13176 12229,13179 12224,13182 12224,13190 12245,13191 12246,13203 12221,13213 12208,13217 12205,13217 12203,13216 12203,13215 12195,13207 12194,13202 12195,13200 12197,13200 12199,13194 12201,13192 12205,13191 12203,13183 12199,13183 12145,13161 12145,13165 12149,13165 12146,13168 12146,13173 12151,13177 12154,13181 12155,13183 12145,13183 12141,13185 12140,13187 12140,13190 12136,13190 12134,13186 12130,13186 12141,13198 12153,13203 12166,13205 12181,13205 12185,13220 12188,13233 12176,13238 12177,13242 12181,13241 12181,13246 12206,13243 12206,13248 12206,13250 12202,13251 12203,13259 12199,13259 12192,13257 12182,13257 12173,13260 12172,13263 12171,13267 12168,13282 12176,13281 12176,13277 12182,13277 12184,13276 12184,13273 12197,13277 12203,13281 12205,13284 12206,13286 12179,13294 12166,13295 12150,13293 12145,13290 12140,13286 12134,13284 12128,13282 12132,13317 12136,13317 12134,13313 12140,13313 12138,13308 12163,13311 12163,13315 12167,13313 12163,13324 12162,13329 12163,13330 12166,13330 12168,13326 12172,13325 12167,13330 12158,13337 12150,13341 12147,13343 12146,13345 12142,13345 12137,13354 12127,13368 12113,13382 12108,13386 12106,13388 12106,13391 12110,13391 12116,13395 12117,13399 12119,13402 12111,13402 12108,13404 12107,13407 12074,13407 12076,13411 12071,13411 12072,13415 12091,13412 12093,13416 12081,13428 12069,13436 12042,13447 12025,13447 12003,13447 11994,13449 11986,13453 11981,13458 11980,13467 11983,13467 11996,13464 12016,13464 12043,13466 12052,13464 12051,13488 12051,13505 12041,13511 12028,13514 12029,13518 12029,13537 12030,13546 12033,13549 12035,13549 12037,13558 12033,13558 12019,13559 12012,13561 12009,13562 12008,13564 11987,13589 11976,13602 11970,13606 11964,13607 11961,13600 11959,13597 11955,13597 11948,13602 11940,13605 11924,13604 11924,13607 11920,13609 11920,13623 11918,13630 11917,13632 11913,13633 11901,13637 11901,13630 11900,13623 11896,13618 11894,13613 11891,13607 11891,13594 11887,13591 11882,13589 11870,13588 11857,13585 11853,13583 11852,13579 11838,13583 11831,13583 11829,13580 11827,13577 11819,13577 11814,13588 11805,13598 11795,13609 11791,13611 11786,13613 11774,13610 11774,13606 11778,13606 11777,13602 11784,13596 11788,13594 11792,13593 11784,13577 11782,13570 11783,13567 11786,13566 11793,13572 11797,13575 11803,13575 11803,13571 11799,13572 11810,13558 11817,13553 11825,13550 11823,13541 11819,13542 11810,13537 11801,13535 11780,13536 11739,13542 11739,13546 11735,13546 11736,13550 11740,13550 11740,13554 11744,13553 11744,13557 11748,13554 11748,13549 11760,13548 11757,13559 11758,13572 11754,13572 11741,13567 11735,13563 11734,13561 11732,13558 11728,13559 11728,13563 11725,13563 11725,13567 11726,13579 11710,13583 11702,13583 11699,13583 11696,13581 11693,13579 11695,13576 11699,13572 11727,13532 11741,13485 11735,13486 11734,13488 11734,13490 11710,13498 11684,13497 11671,13498 11667,13501 11666,13505 11653,13481 11648,13468 11646,13464 11646,13463 11648,13450 11650,13445 11653,13444 11657,13442 11650,13433 11648,13429 11649,13428 11652,13427 11659,13424 11667,13425 11675,13427 11683,13428 11684,13432 11688,13432 11688,13428 11686,13411 11693,13408 11696,13406 11697,13402 11700,13399 11701,13395 11700,13386 11704,13386 11721,13389 11761,13341 11757,13336 11756,13334 11752,13334 11752,13329 11744,13336 11740,13338 11736,13339 11728,13334 11722,13333 11705,13336 11688,13341 11671,13346 11674,13358 11674,13363 11672,13364 11670,13365 11643,13376 11636,13364 11631,13359 11628,13358 11624,13358 11622,13355 11620,13356 11620,13358 11613,13359 11630,13333 11636,13308 11640,13308 11640,13312 11652,13311 11652,13307 11656,13307 11656,13303 11659,13303 11676,13303 11684,13300 11687,13299 11687,13297 11700,13302 11706,13303 11708,13303 11708,13302 11723,13285 11731,13276 11735,13273 11738,13272 11736,13264 11732,13264 11718,13257 11704,13255 11688,13255 11672,13260 11656,13268 11656,13259 11652,13260 11652,13256 11656,13255 11654,13251 11661,13243 11665,13239 11670,13238 11669,13230 11635,13221 11598,13224 11580,13228 11574,13231 11572,13233 11572,13235 11568,13235 11567,13231 11563,13233 11562,13220 11580,13212 11589,13207 11592,13204 11593,13202 11597,13202 11593,13191 11593,13187 11593,13186 11596,13185 11606,13181 11620,13177 11627,13177 11633,13177 11639,13181 11640,13185 11648,13185 11648,13181 11662,13168 11667,13160 11670,13151 11665,13151 11653,13156 11653,13148 11665,13143 11669,13146 11672,13146 11672,13142 11680,13142 11683,13129 11686,13123 11688,13121 11691,13121 11689,13109 11666,13121 11656,13130 11653,13135 11652,13140 11640,13138 11635,13137 11632,13135 11631,13134 11627,13135 11627,13131 11627,13118 11626,13113 11623,13112 11620,13112 11580,13112 11580,13103 11584,13103 11591,13095 11601,13087 11611,13082 11622,13079 11622,13075 11585,13066 11566,13064 11548,13064 11524,13071 11516,13073 11514,13074 11512,13078 11520,13077 11520,13081 11516,13082 11514,13084 11512,13082 11505,13083 11502,13082 11501,13079 11496,13068 11511,13060 11531,13056 11531,13052 11535,13052 11533,13040 11464,13035 11463,13031 11464,13017 11463,13010 11460,13008 11457,13008 11457,13004 11460,13003 11472,12997 11490,12993 11510,12992 11524,12992 11532,12996 11537,12999 11541,13000 11542,13008 11539,13008 11539,13012 11529,13009 11519,13009 11514,13010 11510,13013 11507,13017 11507,13022 11511,13022 11536,13023 11535,13016 11591,13043 11594,13042 11601,13030 11611,13012 11614,13004 11614,12996 11614,12992 11611,12990 11604,12986 11584,12984 11575,12984 11567,12982 11552,12969 11542,12962 11539,12961 11533,12961 11533,12957 11537,12956 11537,12952 11549,12947 11554,12943 11555,12940 11555,12939 11597,12935 11607,12931 11615,12927 11620,12921 11622,12913 11631,12911 11652,12937 11662,12984 11646,12990 11646,12997 11653,12996 11654,12997 11656,13000 11688,13009 11695,12999 11699,12995 11702,12992 11704,12979 11704,12974 11702,12973 11701,12973 11710,12958 11709,12947 11704,12932 11689,12911 11679,12902 11675,12897 11674,12892 11682,12887 11684,12883 11683,12883 11680,12883 11682,12880 11683,12879 11687,12878 11691,12878 11692,12876 11692,12874 11700,12872 11700,12869 11704,12869 11704,12865 11699,12865 11691,12862 11682,12862 11662,12865 11662,12861 11658,12861 11658,12854 11659,12853 11662,12852 11674,12852 11700,12826 Z M 13410,12655 L 13410,12659 13409,12663 13407,12666 13404,12667 13403,12663 13407,12663 13407,12659 13410,12659 13410,12655 Z M 11747,12809 L 11747,12814 11747,12816 11744,12820 11744,12824 11736,12826 11740,12816 11747,12809 Z M 10545,12919 L 10552,12918 10555,12918 10558,12922 10547,12926 10543,12927 10542,12926 10541,12923 10545,12919 Z M 10499,12904 L 10506,12910 10507,12913 10506,12914 10503,12915 10503,12910 10499,12911 10499,12904 Z M 11233,12822 L 11237,12829 11237,12832 11235,12833 11234,12833 11233,12829 11229,12829 11233,12822 Z M 13349,12608 L 13365,12607 13357,12610 13349,12608 Z M 13397,12601 L 13400,12603 13403,12606 13401,12610 13400,12611 13399,12612 13397,12601 Z M 12525,12679 L 12532,12679 12531,12684 12528,12686 12526,12688 12525,12679 Z M 11455,12768 L 11463,12768 11463,12772 11467,12771 11467,12776 11455,12776 11455,12780 11451,12781 11451,12774 11455,12772 11455,12768 Z M 12504,12666 L 12515,12664 12504,12666 Z M 12487,12667 L 12493,12671 12495,12673 12496,12677 12492,12679 12492,12671 12487,12667 Z M 9578,12943 L 9578,12943 Z M 12526,12643 L 12535,12649 12538,12653 12539,12658 12531,12651 12526,12643 Z M 13364,12556 L 13364,12556 Z M 9583,12910 L 9583,12910 Z M 12523,12624 L 12523,12624 Z M 13331,12543 L 13339,12547 13343,12549 13348,12550 13348,12554 13332,12555 13331,12543 Z M 13250,12503 L 13254,12503 13250,12503 Z M 13213,12498 L 13245,12495 13245,12499 13223,12506 13219,12507 13217,12506 13214,12503 13213,12498 Z M 10513,12755 L 10516,12758 10517,12762 10512,12761 10511,12759 10512,12759 10513,12759 10513,12755 Z M 13273,12489 L 13274,12504 13262,12506 13262,12498 13273,12489 Z M 9578,12815 L 9590,12814 9578,12815 Z M 9605,12809 L 9609,12809 9605,12809 Z M 9549,12814 L 9574,12813 9574,12820 9561,12818 9549,12814 Z M 11212,12653 L 11217,12653 11217,12656 11212,12660 11211,12660 11209,12656 11212,12653 Z M 9585,12796 L 9588,12794 9585,12796 Z M 9572,12784 L 9572,12784 Z M 12410,12499 L 12410,12499 Z M 12266,12477 L 12302,12473 12303,12477 12307,12477 12309,12496 12305,12496 12301,12498 12298,12499 12293,12504 12288,12512 12285,12513 12283,12515 12283,12519 12287,12519 12311,12524 12311,12520 12331,12511 12341,12504 12344,12500 12345,12498 12355,12502 12361,12503 12366,12503 12366,12499 12379,12493 12383,12489 12384,12482 12388,12481 12388,12477 12392,12477 12393,12482 12396,12483 12397,12485 12409,12483 12406,12494 12404,12498 12398,12500 12378,12513 12368,12522 12366,12526 12365,12532 12389,12529 12389,12533 12388,12560 12448,12567 12458,12573 12465,12576 12470,12577 12469,12589 12467,12594 12466,12597 12465,12597 12453,12602 12453,12606 12457,12606 12457,12610 12493,12615 12512,12621 12518,12627 12521,12632 12517,12632 12506,12628 12496,12627 12488,12645 12484,12651 12478,12656 12473,12662 12471,12664 12471,12668 12467,12660 12466,12658 12462,12658 12439,12672 12428,12681 12426,12684 12428,12684 12435,12697 12443,12705 12449,12707 12456,12707 12462,12706 12469,12702 12475,12698 12482,12696 12514,12696 12521,12692 12530,12690 12530,12694 12534,12694 12535,12698 12531,12698 12531,12702 12508,12712 12518,12724 12531,12732 12545,12736 12562,12736 12569,12737 12573,12741 12574,12746 12575,12751 12575,12764 12575,12776 12592,12805 12596,12836 12605,12843 12609,12845 12613,12846 12614,12854 12610,12854 12610,12858 12573,12850 12574,12854 12592,12871 12599,12882 12601,12895 12605,12895 12616,12889 12620,12889 12621,12891 12622,12893 12626,12892 12631,12911 12629,12913 12618,12915 12610,12921 12596,12937 12584,12953 12581,12958 12575,12961 12577,12965 12581,12965 12583,12970 12586,12971 12588,12971 12590,12975 12578,12976 12578,12984 12612,12975 12626,12967 12631,12962 12633,12956 12640,12954 12639,12979 12636,12991 12631,13000 12626,13009 12617,13016 12607,13021 12594,13023 12595,13031 12629,13040 12647,13044 12665,13044 12669,13062 12672,13079 12656,13084 12652,13083 12651,13082 12648,13082 12648,13086 12644,13086 12648,13094 12653,13099 12669,13105 12686,13108 12703,13108 12703,13104 12731,13090 12738,13084 12743,13077 12750,13070 12752,13068 12756,13068 12756,13061 12755,13060 12751,13060 12746,13040 12757,13031 12765,13027 12773,13026 12761,13008 12757,13000 12756,12996 12757,12996 12765,12980 12769,12973 12773,12971 12776,12970 12776,12974 12787,12973 12787,12969 12800,12918 12807,12900 12811,12891 12811,12879 12821,12866 12828,12859 12833,12857 12833,12849 12829,12845 12828,12840 12832,12828 12837,12820 12842,12816 12850,12816 12856,12819 12871,12828 12878,12831 12884,12832 12884,12828 12889,12800 12839,12789 12838,12784 12843,12784 12846,12774 12850,12770 12854,12767 12848,12751 12877,12719 12893,12703 12901,12697 12908,12693 12928,12693 12930,12682 12933,12677 12938,12676 12937,12668 12919,12672 12910,12677 12907,12680 12906,12682 12898,12684 12893,12675 12889,12671 12885,12669 12895,12647 12902,12636 12903,12633 12906,12630 12904,12627 12910,12627 12912,12632 12915,12633 12917,12634 12917,12630 12928,12608 12934,12593 12933,12585 12941,12576 12942,12573 12942,12568 12940,12562 12934,12552 12938,12552 12945,12533 12956,12517 12982,12486 12999,12464 13022,12456 13070,12430 13072,12428 13072,12424 13088,12435 13096,12443 13098,12450 13094,12450 13088,12461 13085,12468 13085,12474 13105,12476 13123,12480 13139,12483 13154,12483 13154,12480 13162,12472 13165,12469 13163,12468 13162,12468 13161,12464 13178,12461 13176,12457 13180,12457 13179,12468 13179,12472 13180,12473 13183,12473 13193,12477 13197,12480 13198,12482 13200,12483 13196,12485 13182,12498 13176,12506 13174,12509 13174,12513 13162,12509 13155,12508 13154,12509 13154,12512 13153,12516 13154,12520 13154,12522 13153,12524 13150,12524 13150,12528 13106,12528 13107,12533 13111,12532 13111,12535 13115,12535 13118,12541 13120,12545 13129,12551 13139,12556 13141,12559 13142,12560 13146,12560 13149,12545 13153,12543 13206,12545 13260,12532 13276,12524 13296,12519 13296,12522 13276,12537 13266,12547 13263,12552 13263,12558 13274,12564 13279,12569 13282,12576 13317,12568 13336,12564 13343,12563 13344,12562 13345,12562 13353,12560 13355,12576 13338,12588 13329,12593 13319,12595 13319,12599 13323,12599 13334,12606 13339,12608 13345,12610 13347,12621 13336,12627 13332,12630 13331,12634 13323,12636 13322,12628 13322,12617 13321,12607 13314,12608 13313,12610 13313,12612 13304,12621 13300,12628 13299,12633 13291,12634 13289,12619 13273,12621 13257,12627 13252,12630 13247,12636 13243,12642 13241,12651 13243,12659 13247,12666 13252,12668 13260,12669 13276,12668 13289,12663 13310,12656 13321,12651 13323,12647 13325,12643 13338,12645 13353,12645 13357,12640 13358,12640 13360,12640 13361,12643 13365,12643 13364,12640 13381,12630 13387,12624 13390,12620 13391,12617 13399,12616 13401,12619 13404,12619 13410,12619 13412,12623 13408,12623 13408,12632 13388,12633 13390,12645 13399,12643 13404,12643 13405,12645 13405,12647 13397,12647 13360,12663 13347,12673 13339,12680 13332,12682 13332,12686 13336,12685 13356,12698 13366,12701 13378,12702 13390,12694 13401,12690 13430,12685 13443,12671 13456,12663 13463,12663 13469,12663 13489,12668 13496,12672 13505,12673 13489,12688 13482,12697 13481,12702 13481,12707 13456,12706 13447,12720 13443,12728 13442,12736 13466,12732 13490,12727 13486,12740 13485,12745 13486,12746 13489,12746 13502,12735 13508,12727 13509,12722 13509,12718 13570,12715 13570,12719 13524,12744 13499,12768 13483,12779 13476,12783 13468,12785 13468,12789 13464,12789 13464,12793 13468,12793 13470,12798 13473,12800 13477,12800 13478,12807 13472,12813 13466,12822 13463,12829 13464,12832 13468,12832 13468,12836 13472,12836 13474,12820 13543,12826 13581,12831 13594,12835 13596,12837 13598,12840 13602,12840 13599,12852 13611,12850 13617,12848 13625,12846 13639,12848 13647,12862 13712,12875 13785,12882 13785,12885 13784,12892 13785,12893 13789,12893 13794,12891 13797,12888 13797,12884 13801,12884 13802,12888 13866,12888 13871,12891 13877,12895 13883,12898 13889,12900 13889,12904 13885,12905 13872,12911 13867,12917 13866,12919 13866,12922 13855,12917 13850,12917 13849,12918 13849,12919 13831,12926 13809,12927 13814,12939 13822,12949 13832,12957 13838,12960 13845,12960 13845,12956 13858,12952 13872,12949 13881,12939 13887,12934 13888,12928 13884,12928 13883,12924 13892,12923 13892,12927 13900,12927 13900,12923 13917,12913 13923,12906 13924,12901 13926,12897 13930,12896 13935,12901 13936,12902 13937,12902 13937,12901 13937,12900 13945,12897 13948,12895 13949,12891 13957,12895 13961,12896 13966,12897 13966,12893 13975,12893 13983,12897 13991,12900 13998,12901 13988,12915 13984,12927 13988,12958 13993,12958 13996,12957 13996,12954 14017,12945 14036,12934 14056,12923 14077,12918 14077,12914 14087,12905 14099,12897 14113,12892 14127,12889 14127,12893 14131,12893 14126,12901 14126,12904 14127,12905 14129,12905 14143,12931 14158,12936 14166,12940 14173,12941 14173,12936 14188,12935 14204,12934 14204,12930 14209,12927 14211,12924 14212,12921 14216,12921 14229,12927 14237,12930 14244,12930 14248,12921 14251,12918 14251,12919 14252,12921 14256,12921 14259,12922 14259,12923 14259,12926 14261,12927 14264,12927 14265,12928 14265,12932 14259,12945 14248,12960 14246,12967 14244,12974 14256,12973 14256,12969 14268,12967 14268,12963 14272,12963 14277,12971 14279,12974 14281,12973 14281,12970 14302,12966 14317,12963 14326,12956 14330,12950 14331,12945 14335,12945 14335,12941 14315,12932 14305,12927 14304,12924 14309,12921 14316,12919 14329,12918 14328,12914 14333,12914 14331,12910 14335,12909 14337,12917 14339,12928 14342,12935 14344,12936 14347,12936 14384,12940 14382,12932 14385,12927 14385,12922 14385,12909 14408,12902 14411,12904 14412,12904 14412,12906 14416,12906 14416,12901 14420,12901 14421,12909 14419,12913 14417,12917 14419,12919 14423,12921 14430,12923 14438,12923 14439,12927 14443,12927 14439,12935 14437,12939 14437,12944 14449,12943 14451,12944 14452,12944 14452,12941 14459,12934 14463,12931 14467,12928 14467,12924 14477,12939 14482,12948 14486,12950 14516,12941 14537,12927 14546,12921 14558,12915 14562,12914 14564,12913 14566,12914 14567,12922 14564,12930 14553,12944 14538,12958 14534,12966 14533,12974 14537,12974 14550,12983 14557,12988 14559,12996 14563,12995 14563,12991 14567,12983 14570,12980 14573,12978 14573,12982 14581,12982 14585,12995 14588,13001 14590,13004 14592,13004 14593,13008 14597,13008 14596,13004 14603,13001 14606,12999 14607,12995 14619,12999 14632,13000 14633,13005 14628,13005 14614,13018 14609,13025 14607,13035 14567,13029 14547,13027 14537,13029 14528,13031 14518,13042 14493,13057 14480,13061 14464,13064 14463,13056 14468,13053 14469,13052 14467,13052 14467,13048 14463,13048 14463,13044 14407,13053 14407,13057 14411,13065 14411,13068 14410,13069 14408,13070 14404,13078 14402,13081 14397,13083 14397,13079 14397,13061 14391,13044 14381,13031 14374,13026 14367,13023 14364,13022 14363,13022 14363,13026 14359,13026 14365,13040 14372,13047 14374,13048 14377,13048 14378,13057 14367,13057 14356,13051 14348,13048 14342,13051 14337,13055 14328,13068 14321,13073 14315,13074 14309,13070 14303,13069 14291,13070 14279,13075 14266,13079 14266,13071 14261,13060 14273,13049 14281,13044 14287,13042 14279,13034 14270,13029 14264,13027 14256,13027 14251,13030 14247,13036 14244,13045 14244,13057 14237,13058 14237,13062 14224,13060 14208,13061 14207,13045 14218,13044 14218,13040 14214,13040 14208,13038 14207,13036 14205,13034 14197,13034 14113,13078 14108,13058 14104,13051 14099,13045 14092,13040 14086,13039 14075,13039 14065,13042 14049,13052 14039,13052 14035,13055 14034,13056 14034,13057 14030,13057 14039,13068 14043,13074 14044,13081 14040,13081 14035,13078 14030,13078 14018,13077 14010,13073 14001,13066 13987,13051 13984,13048 13983,13047 13980,13047 13979,13043 13975,13043 13982,13062 13867,13069 13828,13084 13780,13092 13758,13100 13746,13103 13733,13104 13720,13101 13715,13101 13714,13103 13712,13104 13681,13114 13681,13110 13677,13110 13678,13091 13645,13110 13643,13107 13643,13099 13576,13117 13578,13100 13568,13103 13564,13101 13563,13100 13561,13097 13578,13096 13572,13088 13563,13083 13554,13081 13544,13081 13522,13084 13500,13088 13500,13084 13504,13083 13503,13079 13513,13066 13518,13061 13526,13057 13525,13051 13500,13044 13489,13039 13485,13035 13482,13030 13459,13040 13459,13036 13466,13025 13470,13018 13473,13016 13473,13012 13502,13013 13495,12993 13503,12990 13505,12988 13507,12984 13511,12983 13500,12973 13495,12967 13492,12961 13472,12971 13449,12978 13438,12979 13427,12978 13416,12974 13407,12967 13404,12963 13404,12962 13407,12962 13414,12950 13420,12947 13426,12944 13425,12931 13426,12926 13429,12924 13431,12923 13433,12927 13433,12935 13435,12941 13440,12948 13443,12949 13447,12950 13446,12947 13449,12945 13447,12931 13455,12905 13457,12892 13456,12887 13455,12885 13452,12885 13452,12882 13433,12887 13410,12897 13401,12904 13394,12911 13390,12921 13388,12931 13378,12927 13373,12926 13368,12926 13368,12930 13360,12940 13355,12944 13348,12945 13338,12944 13322,12940 13309,12934 13304,12930 13302,12927 13314,12927 13314,12923 13322,12927 13326,12928 13331,12930 13331,12924 13342,12913 13347,12906 13353,12904 13344,12897 13342,12893 13339,12888 13364,12887 13368,12878 13369,12875 13370,12875 13370,12878 13366,12870 13360,12865 13352,12861 13343,12861 13305,12863 13296,12870 13286,12874 13284,12870 13280,12858 13276,12843 13273,12829 13271,12824 13270,12824 13269,12823 13267,12819 13271,12819 13273,12811 13275,12809 13279,12806 13278,12798 13239,12827 13228,12833 13218,12836 13214,12835 13209,12833 13205,12829 13201,12826 13198,12816 13198,12813 13200,12810 13202,12810 13201,12800 13202,12796 13209,12793 13206,12777 13206,12762 13192,12764 13179,12764 13174,12763 13169,12761 13166,12757 13163,12750 13149,12755 13142,12758 13141,12758 13140,12757 13136,12757 13136,12753 13142,12738 13144,12731 13144,12728 13141,12728 13133,12724 13124,12722 13103,12720 13094,12719 13087,12716 13081,12711 13079,12702 13075,12703 13071,12702 13063,12698 13059,12693 13057,12688 13061,12681 13067,12676 13075,12672 13084,12669 13070,12658 13057,12656 13037,12659 13018,12664 13012,12667 13011,12668 13010,12669 13011,12685 12999,12690 12994,12696 12993,12702 12985,12709 12977,12716 12973,12725 12972,12736 12968,12737 12962,12733 12960,12733 12960,12737 12958,12738 12956,12741 12956,12745 12956,12749 12955,12749 12953,12750 12945,12759 12942,12767 12945,12787 12933,12794 12928,12798 12921,12801 12930,12809 12942,12811 12967,12813 12967,12816 12963,12816 12929,12836 12929,12840 12932,12850 12930,12861 12916,12879 12899,12901 12894,12914 12893,12931 12873,12928 12875,12940 12886,12943 12877,12957 12871,12962 12864,12966 12865,12986 12861,13003 12848,13035 12841,13064 12835,13069 12828,13074 12821,13079 12819,13082 12819,13086 12817,13100 12820,13113 12828,13140 12799,13168 12786,13186 12783,13194 12783,13200 12785,13204 12781,13204 12782,13212 12772,13208 12761,13205 12761,13209 12757,13211 12759,13222 12776,13225 12776,13229 12767,13225 12757,13220 12746,13212 12735,13211 12725,13212 12705,13216 12704,13225 12703,13230 12701,13231 12699,13231 12699,13228 12692,13221 12690,13218 12686,13217 12669,13229 12651,13237 12642,13237 12631,13235 12625,13231 12622,13231 12612,13233 12608,13235 12607,13238 12607,13241 12603,13241 12601,13233 12584,13205 12573,13194 12566,13190 12557,13190 12557,13186 12561,13185 12601,13142 12600,13138 12581,13143 12581,13139 12577,13140 12577,13137 12581,13130 12583,13127 12583,13123 12556,13122 12540,13120 12536,13118 12534,13116 12541,13116 12541,13112 12545,13110 12545,13116 12541,13104 12532,13087 12522,13073 12518,13068 12517,13066 12493,13064 12484,13061 12475,13055 12479,13053 12492,13039 12505,13027 12518,13006 12528,12997 12534,12993 12538,12992 12538,12988 12534,12988 12532,12980 12525,12982 12519,12986 12510,12987 12488,12990 12478,12992 12470,12996 12465,13004 12463,13016 12431,13018 12414,13018 12409,13017 12407,13016 12406,13013 12435,12991 12449,12975 12453,12970 12454,12965 12444,12954 12434,12950 12409,12953 12394,12945 12388,12941 12388,12940 12391,12939 12402,12940 12410,12937 12415,12932 12421,12926 12426,12914 12428,12909 12432,12906 12436,12913 12437,12914 12441,12914 12441,12910 12462,12892 12470,12880 12471,12878 12471,12876 12469,12876 12466,12876 12465,12865 12461,12865 12462,12869 12458,12869 12450,12874 12448,12878 12447,12882 12440,12883 12434,12884 12423,12888 12401,12878 12371,12875 12355,12872 12350,12870 12349,12869 12348,12867 12365,12861 12372,12856 12374,12853 12375,12849 12372,12844 12367,12840 12355,12835 12328,12833 12315,12856 12315,12870 12318,12880 12318,12885 12316,12891 12313,12896 12306,12902 12297,12909 12293,12911 12288,12913 12287,12895 12288,12891 12289,12888 12292,12885 12297,12884 12297,12880 12245,12849 12253,12831 12262,12816 12284,12785 12280,12787 12268,12774 12258,12766 12247,12763 12240,12766 12232,12772 12228,12781 12225,12794 12225,12811 12093,12831 12089,12832 12089,12828 12085,12828 12077,12789 12067,12789 12063,12787 12061,12785 12060,12783 12056,12780 12055,12775 12071,12761 12078,12755 12090,12753 12106,12754 12102,12740 12095,12728 12089,12716 12085,12705 12099,12697 12106,12692 12107,12689 12108,12686 12112,12686 12111,12682 12095,12680 12094,12668 12102,12666 12104,12663 12106,12659 12125,12662 12125,12658 12134,12649 12138,12646 12145,12643 12143,12636 12123,12634 12127,12621 12125,12616 12127,12614 12129,12614 12128,12590 12129,12582 12133,12576 12143,12563 12155,12537 12192,12504 12192,12500 12188,12495 12186,12494 12188,12493 12190,12491 12190,12487 12267,12489 12266,12477 Z M 11294,12533 L 11294,12533 Z M 11619,12498 L 11648,12495 11649,12502 11648,12503 11644,12504 11635,12512 11623,12519 11598,12525 11597,12520 11601,12520 11601,12516 11607,12509 11611,12507 11611,12503 11620,12503 11619,12498 Z M 9562,12690 L 9565,12693 9566,12697 9561,12696 9560,12694 9561,12694 9562,12694 9562,12690 Z M 9586,12643 L 9590,12643 9599,12659 9604,12667 9605,12669 9604,12669 9592,12679 9588,12680 9585,12680 9577,12679 9565,12677 9574,12671 9585,12668 9579,12658 9579,12654 9581,12653 9583,12653 9586,12643 Z M 11572,12431 L 11576,12431 11572,12431 Z M 11334,12442 L 11342,12441 11343,12444 11326,12456 11317,12461 11308,12464 11307,12456 11311,12456 11334,12442 Z M 9626,12604 L 9639,12608 9646,12612 9647,12615 9648,12617 9644,12619 9644,12623 9600,12627 9599,12619 9600,12616 9603,12615 9603,12610 9626,12604 Z M 9885,12556 L 9894,12555 9890,12558 9888,12558 9885,12556 Z M 9897,12542 L 9899,12546 9902,12550 9897,12549 9896,12547 9897,12547 9897,12542 Z M 11351,12400 L 11373,12404 11384,12409 11388,12413 11389,12417 11393,12416 11393,12420 11371,12425 11359,12425 11355,12424 11352,12420 11347,12416 11345,12413 11343,12409 11356,12412 11355,12408 11351,12408 11351,12400 Z M 11414,12374 L 11414,12374 Z M 11428,12353 L 11431,12359 11432,12359 11432,12357 11428,12353 Z M 10507,12394 L 10515,12392 10507,12395 10504,12396 10504,12398 10507,12398 10507,12394 Z M 9673,12456 L 9673,12456 Z M 10295,12255 L 10295,12255 Z M 10271,12256 L 10273,12265 10271,12268 10271,12266 10271,12264 10271,12256 Z M 10403,12200 L 10407,12200 10403,12200 Z M 10403,12192 L 10413,12193 10417,12195 10418,12196 10420,12199 10416,12199 10416,12202 10412,12202 10412,12199 10407,12200 10407,12196 10403,12192 Z M 9686,12248 L 9695,12252 9698,12255 9695,12256 9695,12260 9686,12248 Z M 9700,12187 L 9700,12187 Z M 10480,12105 L 10485,12110 10487,12117 10486,12119 10485,12122 10482,12124 10477,12126 10477,12122 10473,12122 10474,12114 10476,12110 10480,12109 10480,12105 Z M 10245,12115 L 10249,12115 10245,12115 Z M 10003,12127 L 10007,12126 9997,12140 9989,12147 9981,12149 9990,12136 10003,12127 Z M 9706,12111 L 9737,12114 9743,12117 9749,12121 9754,12124 9760,12126 9760,12130 9756,12130 9729,12156 9712,12169 9704,12174 9699,12175 9696,12141 9699,12126 9706,12111 Z M 9655,12088 L 9667,12087 9668,12093 9667,12094 9664,12094 9664,12098 9655,12088 Z M 10113,11963 L 10113,11967 10110,11970 10109,11971 10108,11971 10106,11971 10106,11968 10114,11967 10113,11963 Z M 9794,11975 L 9802,11981 9807,11985 9811,11985 9812,11989 9807,11990 9808,11994 9795,12005 9789,12010 9781,12013 9781,12009 9777,12009 9777,12005 9784,11989 9794,11975 Z M 10425,11620 L 10429,11620 10430,11624 10425,11626 10424,11627 10422,11627 10422,11624 10425,11620 Z M 10359,11478 L 10372,11478 10372,11483 10372,11484 10368,11486 10369,11490 10359,11478 Z M 10096,11444 L 10096,11444 Z M 10154,11375 L 10169,11383 10176,11387 10184,11388 10184,11392 10188,11391 10191,11387 10192,11386 10192,11387 10213,11389 10213,11386 10217,11384 10223,11378 10232,11371 10242,11367 10251,11365 10252,11371 10251,11373 10248,11374 10248,11388 10247,11401 10262,11404 10264,11412 10247,11409 10248,11413 10255,11423 10260,11427 10265,11427 10265,11423 10271,11423 10273,11422 10273,11419 10290,11421 10297,11423 10300,11426 10301,11428 10294,11428 10274,11431 10274,11435 10278,11435 10283,11440 10291,11445 10310,11451 10329,11454 10335,11457 10336,11458 10338,11461 10338,11479 10336,11488 10334,11492 10333,11493 10333,11497 10336,11496 10342,11504 10343,11510 10344,11527 10348,11527 10348,11531 10408,11518 10408,11522 10412,11521 10413,11529 10404,11530 10405,11534 10373,11536 10373,11540 10369,11542 10369,11546 10399,11551 10399,11555 10395,11555 10374,11596 10374,11600 10379,11600 10383,11600 10389,11603 10402,11613 10413,11626 10417,11631 10418,11637 10411,11647 10404,11663 10403,11669 10404,11676 10405,11678 10408,11680 10415,11680 10416,11683 10412,11685 10417,11691 10420,11695 10421,11699 10417,11700 10411,11709 10407,11720 10402,11730 10394,11739 10389,11742 10382,11741 10372,11737 10365,11735 10360,11735 10353,11738 10347,11746 10343,11751 10342,11759 10346,11759 10346,11763 10369,11752 10376,11764 10381,11769 10383,11771 10387,11771 10387,11767 10442,11748 10467,11755 10467,11759 10455,11764 10446,11771 10439,11781 10438,11794 10438,11799 10439,11801 10443,11801 10438,11810 10437,11817 10438,11824 10441,11830 10451,11842 10464,11855 10460,11855 10460,11859 10429,11869 10429,11873 10435,11880 10438,11884 10439,11889 10418,11884 10402,11880 10402,11884 10398,11889 10403,11888 10399,11895 10400,11899 10402,11901 10403,11901 10394,11907 10390,11911 10389,11918 10392,11918 10396,11920 10402,11920 10412,11919 10421,11921 10429,11925 10434,11931 10441,11942 10443,11946 10444,11948 10444,11951 10457,11951 10456,11946 10459,11944 10459,11941 10460,11938 10476,11941 10476,11937 10478,11949 10478,11954 10476,11957 10473,11957 10477,11945 10428,11987 10434,11996 10438,12006 10459,12002 10469,12000 10472,11997 10473,11994 10477,11994 10489,12000 10493,12003 10490,12005 10490,12009 10483,12019 10480,12024 10476,12026 10476,12036 10474,12045 10472,12053 10472,12062 10412,12096 10404,12104 10399,12108 10395,12109 10395,12113 10399,12113 10408,12126 10413,12132 10416,12135 10417,12135 10417,12139 10424,12139 10425,12137 10425,12135 10473,12122 10474,12137 10469,12143 10467,12145 10463,12147 10464,12150 10468,12150 10470,12156 10473,12157 10476,12157 10477,12161 10473,12162 10473,12166 10465,12161 10461,12160 10456,12160 10446,12173 10441,12178 10438,12179 10438,12176 10416,12176 10392,12173 10382,12173 10373,12175 10370,12178 10368,12182 10364,12192 10365,12209 10368,12215 10370,12218 10373,12219 10426,12206 10452,12199 10461,12197 10463,12197 10464,12199 10468,12197 10474,12219 10500,12252 10513,12271 10515,12278 10515,12281 10512,12281 10502,12287 10487,12292 10476,12299 10472,12304 10470,12309 10459,12305 10446,12304 10447,12320 10456,12321 10467,12325 10474,12331 10476,12335 10477,12340 10473,12340 10469,12347 10465,12348 10463,12349 10463,12356 10464,12357 10467,12357 10495,12403 10451,12413 10430,12422 10422,12429 10420,12438 10420,12444 10424,12450 10426,12455 10428,12460 10442,12459 10456,12457 10464,12448 10472,12441 10482,12437 10494,12434 10494,12430 10498,12418 10500,12412 10502,12411 10504,12409 10504,12405 10512,12404 10512,12408 10516,12408 10516,12412 10512,12412 10499,12444 10490,12460 10483,12465 10477,12468 10476,12477 10472,12485 10464,12491 10456,12494 10456,12506 10460,12504 10483,12515 10497,12517 10511,12517 10530,12511 10530,12507 10534,12506 10534,12509 10538,12509 10539,12521 10536,12522 10536,12525 10468,12535 10468,12545 10489,12552 10499,12560 10502,12564 10503,12568 10500,12575 10500,12582 10507,12599 10516,12617 10521,12634 10537,12629 10538,12633 10534,12633 10529,12641 10528,12645 10528,12650 10517,12646 10512,12645 10507,12643 10506,12649 10506,12651 10503,12651 10500,12653 10497,12653 10495,12654 10495,12656 10487,12651 10483,12651 10483,12653 10483,12654 10464,12666 10455,12672 10448,12680 10444,12689 10443,12698 10443,12705 10443,12706 10457,12697 10472,12692 10487,12689 10506,12690 10528,12694 10519,12706 10512,12718 10508,12732 10508,12748 10504,12748 10487,12755 10473,12764 10467,12770 10463,12777 10460,12785 10460,12796 10481,12798 10480,12793 10498,12785 10507,12779 10510,12775 10511,12771 10515,12771 10515,12775 10521,12781 10528,12792 10532,12802 10534,12813 10525,12818 10515,12822 10516,12829 10520,12829 10536,12840 10545,12845 10554,12846 10555,12854 10538,12857 10523,12857 10519,12870 10512,12880 10502,12888 10489,12892 10489,12908 10486,12914 10483,12917 10480,12917 10480,12924 10508,12922 10533,12921 10533,12924 10529,12924 10524,12930 10521,12932 10517,12934 10524,12940 10526,12944 10528,12948 10528,12960 10525,12970 10521,12976 10516,12980 10499,12987 10478,12988 10489,13012 10476,13022 10472,13030 10470,13038 10517,13053 10521,13048 10526,13044 10541,13039 10549,13039 10555,13040 10559,13045 10562,13053 10558,13053 10549,13066 10545,13071 10539,13075 10545,13084 10547,13088 10546,13090 10545,13090 10538,13107 10533,13116 10530,13118 10528,13120 10559,13200 10550,13211 10547,13224 10549,13252 10528,13259 10529,13263 10525,13263 10525,13270 10536,13276 10545,13284 10552,13293 10555,13302 10556,13312 10552,13320 10545,13326 10530,13330 10519,13351 10512,13362 10511,13372 10515,13372 10515,13368 10528,13365 10539,13362 10550,13358 10562,13355 10562,13359 10565,13359 10567,13363 10563,13363 10563,13367 10567,13367 10567,13371 10558,13376 10554,13378 10552,13384 10560,13401 10563,13411 10562,13414 10559,13415 10551,13416 10552,13424 10562,13428 10567,13433 10568,13441 10568,13447 10565,13460 10565,13464 10567,13466 10568,13466 10569,13473 10546,13473 10542,13476 10539,13479 10533,13489 10530,13497 10532,13501 10536,13501 10563,13518 10576,13528 10580,13535 10581,13541 10578,13568 10568,13593 10589,13635 10581,13639 10578,13640 10577,13644 10588,13661 10594,13667 10599,13669 10603,13670 10598,13698 10589,13705 10585,13709 10584,13715 10588,13722 10590,13731 10590,13735 10589,13739 10586,13741 10582,13743 10588,13748 10591,13749 10595,13751 10594,13758 10597,13767 10602,13790 10602,13800 10601,13809 10597,13813 10593,13816 10581,13819 10582,13823 10586,13822 10586,13826 10594,13840 10599,13845 10602,13848 10604,13848 10599,13857 10599,13860 10599,13861 10602,13861 10607,13895 10615,13912 10604,13914 10597,13920 10589,13924 10580,13926 10580,13930 10588,13933 10594,13937 10604,13947 10615,13955 10620,13957 10627,13957 10612,13982 10608,13996 10608,14012 10564,14020 10550,14000 10541,13994 10534,13991 10529,13991 10529,13987 10533,13986 10532,13982 10537,13976 10538,13970 10538,13966 10551,13961 10555,13957 10558,13953 10560,13943 10559,13929 10554,13929 10552,13930 10552,13933 10533,13946 10524,13950 10513,13952 10513,13957 10510,13957 10515,13964 10519,13966 10523,13968 10519,13985 10521,13998 10524,14004 10526,14007 10537,14005 10541,14007 10542,14008 10542,14009 10547,14009 10547,14013 10543,14013 10536,14026 10534,14034 10534,14042 10529,14043 10542,14046 10555,14047 10582,14046 10584,14050 10569,14058 10563,14061 10556,14064 10555,14060 10551,14060 10552,14068 10568,14069 10585,14065 10593,14060 10598,14055 10602,14048 10602,14039 10623,14038 10619,14056 10616,14067 10615,14069 10614,14071 10606,14073 10603,14076 10602,14080 10617,14078 10619,14082 10621,14090 10624,14093 10628,14093 10628,14100 10620,14106 10617,14110 10617,14113 10616,14132 10611,14139 10604,14147 10599,14156 10598,14168 10623,14176 10633,14184 10636,14189 10637,14195 10621,14193 10621,14201 10630,14206 10636,14212 10637,14218 10637,14224 10636,14229 10632,14236 10620,14245 10593,14260 10584,14263 10580,14262 10578,14260 10573,14257 10571,14254 10569,14250 10565,14250 10565,14254 10562,14262 10559,14271 10563,14271 10572,14270 10572,14273 10568,14273 10568,14277 10539,14276 10541,14280 10536,14281 10539,14288 10542,14293 10542,14309 10547,14307 10547,14311 10564,14306 10580,14302 10611,14302 10636,14299 10634,14296 10637,14292 10638,14286 10650,14370 10636,14387 10630,14397 10629,14407 10633,14407 10638,14407 10641,14410 10642,14414 10642,14418 10640,14435 10672,14435 10662,14462 10662,14492 10641,14497 10617,14502 10567,14517 10567,14525 10576,14525 10586,14526 10598,14525 10620,14519 10620,14523 10616,14525 10611,14538 10611,14545 10612,14548 10614,14548 10615,14552 10619,14552 10617,14548 10627,14547 10629,14531 10670,14539 10671,14547 10658,14551 10653,14551 10651,14551 10650,14548 10642,14549 10651,14560 10658,14562 10664,14564 10666,14575 10651,14575 10645,14578 10642,14579 10642,14582 10638,14584 10638,14590 10658,14588 10659,14591 10663,14591 10664,14597 10667,14601 10671,14605 10676,14606 10677,14609 10681,14609 10676,14619 10675,14630 10675,14635 10676,14636 10680,14638 10673,14643 10672,14647 10671,14651 10684,14674 10688,14691 10690,14709 10701,14731 10693,14734 10690,14737 10689,14740 10676,14742 10664,14746 10654,14750 10642,14752 10642,14764 10659,14766 10657,14780 10668,14778 10673,14774 10677,14772 10686,14772 10697,14773 10709,14774 10722,14833 10728,14842 10731,14846 10736,14847 10736,14855 10716,14863 10709,14869 10706,14873 10705,14878 10706,14885 10710,14890 10715,14894 10723,14895 10738,14897 10753,14894 10761,14893 10763,14893 10764,14897 10772,14895 10767,14877 10766,14868 10767,14865 10770,14864 10781,14855 10796,14848 10823,14837 10832,14828 10837,14824 10843,14821 10839,14807 10839,14795 10841,14783 10843,14769 10859,14765 10867,14763 10875,14759 10882,14751 10888,14742 10893,14733 10896,14729 10898,14727 10897,14716 10889,14717 10869,14714 10869,14707 10872,14707 10878,14701 10879,14698 10879,14694 10879,14678 10882,14669 10883,14666 10885,14666 10884,14661 10901,14661 10909,14659 10911,14657 10913,14655 10917,14642 10918,14631 10915,14613 10909,14595 10905,14573 10914,14566 10923,14562 10918,14549 10917,14535 10918,14505 10941,14453 10965,14428 10973,14410 10978,14402 10982,14398 10986,14397 10984,14393 10980,14394 10967,14392 10952,14393 10952,14388 10948,14389 10944,14365 10943,14352 10943,14348 10943,14346 10944,14345 10943,14337 10952,14327 10952,14324 10948,14301 10947,14290 10947,14277 10958,14249 10954,14249 10954,14245 10962,14245 10966,14247 10971,14247 10970,14244 10973,14238 10974,14236 10978,14234 10977,14227 10973,14228 10973,14224 10962,14225 10958,14225 10957,14224 10956,14221 10961,14218 10962,14218 10960,14216 10954,14202 10956,14189 10961,14177 10973,14165 10978,14159 10982,14156 10987,14155 10986,14147 10982,14147 10974,14142 10970,14141 10965,14141 10965,14137 10969,14137 10980,14132 10988,14126 10996,14120 10997,14116 10996,14112 10993,14108 10986,14103 10978,14102 10967,14102 10957,14100 10954,14100 10953,14098 10967,14090 10973,14084 10974,14080 10975,14076 10964,14063 10958,14056 10958,14055 10961,14054 10979,14041 10988,14033 10996,14024 10999,14018 10999,14013 10997,14005 10995,13999 10993,13995 10995,13991 11051,13934 11049,13926 11042,13927 11039,13926 11038,13922 11010,13931 11000,13939 10996,13944 10995,13951 10991,13951 10991,13947 10987,13947 10992,13924 10995,13912 10995,13899 11026,13865 11040,13843 11043,13835 11043,13831 11040,13827 11034,13822 11025,13817 11017,13810 11016,13806 11014,13801 11018,13795 11019,13787 11018,13770 11021,13762 11022,13753 11019,13745 11016,13743 11012,13743 11012,13734 11026,13719 11034,13711 11038,13709 11042,13708 11040,13704 11036,13704 11027,13701 11017,13702 11016,13698 11019,13697 11019,13693 11026,13685 11029,13682 11035,13680 11038,13678 11038,13672 11038,13669 11040,13663 11048,13652 11055,13636 11057,13630 11057,13623 11062,13619 11064,13619 11061,13618 11055,13610 11049,13598 11047,13587 11049,13575 11049,13580 11053,13579 11053,13583 11057,13583 11064,13571 11071,13559 11079,13549 11082,13545 11082,13541 11073,13536 11070,13531 11069,13525 11065,13523 11060,13523 11045,13527 11039,13527 11036,13524 11035,13522 11055,13502 11062,13492 11064,13488 11062,13486 11061,13486 11060,13483 11068,13486 11073,13489 11077,13489 11082,13483 11087,13476 11103,13467 11117,13459 11121,13454 11122,13449 11114,13450 11103,13447 11092,13447 11070,13450 11069,13446 11073,13446 11073,13442 11079,13432 11083,13427 11087,13425 11086,13416 11083,13417 11070,13412 11064,13408 11062,13406 11061,13403 11090,13404 11088,13397 11088,13394 11092,13393 11087,13377 11098,13381 11103,13382 11108,13382 11111,13371 11113,13364 11116,13363 11118,13362 11117,13354 11105,13355 11099,13355 11092,13356 11087,13356 11086,13355 11085,13354 11081,13354 11083,13351 11085,13349 11087,13346 11092,13345 11082,13321 11081,13308 11083,13303 11087,13302 11091,13304 11096,13304 11111,13294 11116,13289 11118,13286 11118,13282 11122,13282 11122,13278 11103,13284 11099,13276 11098,13273 11094,13273 11092,13269 11096,13268 11096,13264 11100,13264 11100,13256 11104,13256 11107,13257 11109,13257 11111,13256 11111,13254 11109,13248 11107,13246 11104,13244 11071,13255 11070,13247 11074,13247 11078,13239 11081,13234 11081,13230 11077,13230 11088,13228 11101,13228 11126,13230 11125,13226 11129,13225 11125,13221 11125,13220 11125,13218 11129,13217 11130,13208 11126,13205 11125,13203 11125,13200 11126,13198 11127,13195 11130,13194 11130,13190 11144,13179 11152,13174 11160,13172 11160,13165 11159,13164 11156,13164 11146,13156 11137,13153 11114,13152 11094,13150 11094,13146 11098,13146 11101,13139 11105,13138 11108,13137 11103,13121 11113,13112 11120,13100 11122,13086 11122,13071 11114,13075 11112,13075 11111,13074 11111,13073 11107,13073 11105,13066 11107,13065 11111,13064 11109,13060 11138,13065 11138,13061 11165,13055 11198,13056 11205,13055 11216,13055 11224,13055 11225,13055 11226,13053 11232,13051 11233,13048 11234,13044 11233,13039 11232,13038 11229,13038 11160,13031 11159,13019 11159,13014 11160,13013 11161,13012 11163,13016 11166,13016 11165,13012 11169,13010 11163,12975 11153,12982 11148,12984 11143,12986 11143,12982 11139,12982 11138,12978 11143,12963 11156,12952 11161,12947 11164,12939 11164,12935 11163,12932 11156,12930 11142,12930 11140,12922 11140,12914 11155,12897 11163,12888 11166,12884 11169,12883 11169,12875 11135,12867 11135,12863 11139,12862 11148,12856 11159,12853 11159,12857 11163,12856 11163,12849 11169,12843 11173,12840 11173,12836 11177,12835 11178,12839 11182,12839 11182,12843 11187,12862 11191,12867 11194,12870 11199,12871 11205,12872 11204,12869 11218,12858 11225,12852 11226,12849 11228,12846 11235,12849 11238,12849 11239,12848 11239,12845 11250,12845 11254,12843 11255,12841 11255,12840 11256,12827 11256,12822 11255,12820 11252,12820 11252,12815 11213,12811 11205,12810 11202,12807 11203,12806 11204,12805 11215,12803 11204,12793 11189,12784 11168,12772 11208,12748 11220,12731 11226,12723 11229,12719 11232,12719 11230,12715 11234,12714 11242,12719 11251,12720 11251,12712 11280,12718 11280,12714 11284,12714 11277,12686 11284,12681 11286,12677 11287,12673 11284,12673 11256,12662 11242,12659 11225,12659 11224,12647 11234,12647 11238,12646 11239,12643 11241,12642 11238,12632 11239,12628 11241,12627 11242,12625 11246,12573 11269,12564 11269,12568 11265,12568 11265,12572 11281,12578 11287,12581 11290,12584 11291,12585 11295,12585 11298,12573 11302,12572 11319,12575 11316,12585 11316,12589 11317,12590 11320,12590 11321,12594 11326,12594 11328,12593 11328,12590 11333,12589 11332,12585 11336,12585 11337,12589 11341,12577 11345,12562 11349,12546 11352,12542 11356,12539 11346,12528 11341,12522 11338,12517 11321,12520 11312,12519 11306,12516 11304,12513 11303,12509 11306,12503 11310,12498 11315,12495 11315,12491 11329,12498 11336,12500 11345,12500 11346,12494 11347,12493 11351,12493 11363,12491 11363,12487 11367,12486 11375,12470 11381,12464 11389,12460 11392,12457 11393,12452 11392,12441 11401,12430 11405,12426 11406,12426 11406,12428 11414,12426 11406,12411 11403,12391 11399,12392 11389,12386 11382,12383 11377,12382 11380,12378 11385,12377 11393,12374 11395,12372 11397,12369 11408,12368 11410,12383 11416,12399 11423,12415 11427,12429 11442,12424 11447,12420 11449,12416 11449,12411 11457,12403 11459,12399 11464,12398 11464,12394 11468,12394 11468,12398 11475,12404 11476,12407 11475,12408 11473,12409 11489,12411 11489,12403 11497,12396 11510,12391 11523,12390 11527,12391 11528,12395 11535,12404 11539,12415 11524,12424 11511,12433 11498,12441 11480,12444 11476,12444 11477,12448 11470,12448 11470,12454 11466,12454 11473,12461 11481,12467 11492,12469 11503,12469 11503,12465 11559,12468 11554,12444 11559,12442 11561,12439 11561,12437 11572,12444 11576,12448 11579,12455 11574,12476 11568,12487 11566,12490 11562,12491 11563,12500 11571,12499 11571,12503 11587,12498 11596,12496 11598,12498 11600,12500 11604,12500 11604,12504 11600,12504 11592,12512 11587,12516 11581,12519 11584,12524 11587,12525 11589,12525 11591,12537 11606,12535 11622,12537 11652,12539 11652,12543 11644,12546 11641,12549 11641,12552 11637,12552 11637,12556 11649,12563 11656,12571 11662,12590 11665,12599 11669,12607 11679,12612 11695,12614 11715,12616 11717,12624 11713,12625 11697,12630 11697,12638 11706,12643 11710,12647 11712,12653 11705,12660 11705,12668 11709,12675 11715,12680 11732,12688 11752,12689 11752,12693 11762,12716 11758,12716 11758,12720 11747,12722 11740,12712 11736,12702 11727,12706 11717,12709 11722,12728 11717,12731 11712,12736 11709,12741 11706,12748 11706,12755 11708,12761 11712,12767 11718,12771 11723,12772 11730,12774 11741,12771 11754,12766 11766,12763 11767,12770 11766,12771 11764,12771 11735,12792 11721,12805 11717,12811 11714,12815 11704,12814 11700,12814 11699,12815 11699,12818 11658,12822 11658,12816 11654,12818 11650,12827 11648,12832 11648,12839 11637,12836 11633,12836 11632,12837 11632,12840 11627,12849 11626,12861 11619,12869 11615,12871 11610,12874 11614,12879 11615,12880 11619,12880 11619,12884 11615,12884 11619,12888 11620,12892 11607,12905 11602,12908 11597,12908 11585,12905 11576,12898 11574,12895 11571,12889 11576,12882 11578,12878 11578,12872 11574,12872 11574,12869 11563,12872 11550,12874 11539,12875 11535,12876 11533,12876 11528,12883 11523,12889 11520,12897 11520,12906 11542,12906 11553,12909 11557,12911 11558,12914 11562,12914 11562,12918 11558,12918 11545,12923 11537,12926 11536,12927 11535,12928 11536,12936 11512,12937 11492,12940 11492,12944 11488,12945 11484,12909 11503,12904 11493,12889 11488,12882 11485,12874 11494,12866 11498,12861 11499,12856 11503,12856 11509,12861 11515,12865 11524,12866 11532,12866 11540,12865 11546,12861 11550,12856 11552,12848 11529,12840 11523,12839 11519,12840 11509,12845 11490,12849 11485,12837 11481,12837 11458,12839 11446,12836 11442,12833 11440,12829 11453,12828 11446,12819 11445,12815 11445,12814 11447,12814 11464,12797 11475,12789 11485,12787 11484,12770 11466,12766 11445,12767 11424,12772 11415,12776 11408,12783 11393,12803 11389,12806 11385,12806 11382,12807 11381,12811 11377,12813 11384,12819 11385,12822 11385,12823 11382,12823 11363,12852 11352,12867 11349,12874 11347,12879 11380,12871 11381,12888 11381,12896 11380,12898 11378,12900 11343,12915 11343,12923 11347,12922 11349,12926 11354,12926 11355,12924 11355,12922 11360,12921 11359,12917 11363,12917 11364,12921 11372,12921 11367,12931 11360,12943 11342,12962 11319,12976 11293,12983 11293,12987 11297,12987 11326,13022 11342,13044 11346,13053 11349,13061 11341,13073 11336,13087 11328,13120 11324,13135 11317,13148 11308,13159 11300,13163 11293,13164 11285,13165 11282,13168 11282,13172 11278,13172 11278,13176 11299,13177 11307,13181 11312,13185 11316,13189 11317,13195 11319,13208 11312,13272 11295,13273 11277,13270 11260,13268 11242,13267 11243,13270 11241,13274 11239,13278 11235,13280 11235,13284 11268,13293 11284,13297 11302,13297 11285,13371 11294,13376 11297,13380 11294,13381 11274,13428 11265,13436 11255,13441 11224,13447 11221,13464 11192,13463 11191,13472 11191,13481 11194,13489 11199,13496 11205,13501 11213,13505 11222,13506 11233,13506 11238,13494 11246,13480 11258,13468 11263,13464 11269,13463 11269,13459 11273,13462 11277,13462 11280,13483 11276,13499 11269,13518 11265,13535 11265,13577 11259,13604 11237,13601 11226,13602 11224,13604 11222,13607 11218,13607 11218,13615 11222,13615 11224,13619 11235,13619 11247,13622 11252,13626 11256,13630 11259,13635 11259,13641 11258,13646 11255,13649 11246,13656 11239,13661 11237,13665 11237,13669 11241,13669 11250,13674 11261,13675 11261,13679 11232,13717 11218,13738 11216,13744 11217,13747 11220,13747 11230,13756 11238,13758 11245,13760 11245,13764 11241,13765 11238,13774 11238,13780 11239,13787 11245,13796 11241,13796 11222,13813 11215,13822 11212,13827 11211,13831 11220,13834 11226,13840 11229,13848 11232,13858 11229,13878 11221,13895 11202,13914 11189,13934 11179,13942 11176,13944 11169,13946 11169,13950 11173,13953 11174,13957 11190,13963 11196,13966 11199,13969 11200,13972 11208,13970 11204,13960 11204,13956 11204,13955 11207,13955 11211,13948 11213,13946 11213,13942 11217,13942 11217,13946 11222,13946 11217,13959 11211,13972 11204,13985 11203,13999 11163,14007 11163,14011 11159,14011 11168,14026 11172,14032 11176,14034 11187,14035 11205,14034 11205,14041 11202,14067 11198,14081 11196,14085 11195,14087 11164,14093 11124,14106 11124,14110 11146,14123 11153,14123 11164,14121 11174,14121 11177,14123 11178,14124 11182,14124 11182,14132 11168,14137 11168,14145 11200,14142 11195,14162 11191,14171 11189,14175 11187,14176 11182,14175 11178,14176 11170,14181 11166,14186 11166,14189 11168,14189 11168,14185 11179,14188 11183,14190 11185,14195 11170,14258 11163,14290 11155,14302 11151,14305 11147,14306 11147,14310 11164,14312 11165,14324 11152,14335 11142,14348 11135,14362 11134,14380 11107,14389 11107,14394 11103,14394 11108,14400 11111,14401 11112,14405 11121,14411 11124,14414 11122,14415 11121,14417 11109,14420 11090,14426 11057,14431 11066,14449 11074,14457 11079,14459 11085,14459 11088,14453 11090,14452 11091,14452 11091,14453 11092,14456 11107,14461 11113,14463 11121,14465 11122,14473 11103,14473 11094,14475 11091,14476 11090,14479 11086,14479 11086,14483 11090,14487 11091,14491 11108,14500 11113,14506 11117,14517 11118,14522 11118,14523 11114,14525 11114,14528 11074,14517 11079,14536 11074,14538 11069,14541 11065,14547 11065,14553 11074,14549 11079,14548 11081,14549 11081,14552 11088,14551 11088,14554 11094,14554 11094,14562 11090,14562 11053,14604 11032,14627 11026,14633 11025,14634 11023,14634 11023,14633 11013,14638 11004,14646 10996,14656 10995,14661 10995,14668 10999,14666 10999,14662 11043,14662 11043,14659 11039,14656 11034,14656 11034,14652 11042,14651 11055,14661 11060,14666 11061,14668 11060,14669 11060,14677 11035,14690 11027,14701 11018,14721 11009,14740 11006,14753 11010,14753 11013,14757 11014,14763 11014,14773 11013,14782 11013,14783 11013,14785 11014,14785 11004,14795 10990,14806 10978,14816 10974,14822 10973,14829 10974,14839 10978,14848 10982,14858 10986,14867 11018,14872 11018,14876 11014,14876 11003,14885 10997,14889 10996,14891 10996,14894 10980,14895 10967,14899 10957,14904 10944,14907 10944,14911 10977,14912 10978,14920 10966,14925 10953,14934 10943,14945 10936,14956 10943,14975 10908,14990 10913,14997 10922,15006 10934,15015 10930,15016 10931,15020 10914,15021 10915,15029 10936,15031 10936,15034 10932,15036 10932,15040 10927,15045 10924,15053 10923,15068 10938,15075 10943,15080 10944,15080 10943,15081 10940,15083 10936,15087 10931,15089 10917,15096 10904,15100 10900,15103 10898,15106 10895,15106 10895,15114 10904,15118 10906,15120 10906,15122 10904,15122 10878,15139 10863,15148 10859,15152 10858,15154 10854,15154 10861,15161 10862,15165 10861,15165 10859,15166 10849,15174 10835,15183 10823,15193 10819,15200 10819,15205 10823,15211 10826,15217 10826,15228 10824,15240 10823,15253 10819,15253 10819,15257 10802,15253 10783,15253 10788,15258 10791,15260 10796,15260 10763,15283 10746,15295 10740,15297 10738,15297 10727,15301 10720,15283 10716,15283 10716,15279 10709,15279 10709,15283 10705,15284 10705,15288 10709,15287 10703,15300 10694,15312 10683,15319 10667,15323 10668,15334 10666,15338 10660,15340 10662,15344 10658,15344 10657,15340 10653,15340 10653,15335 10653,15332 10657,15332 10663,15319 10668,15313 10675,15310 10668,15301 10667,15297 10667,15296 10668,15295 10683,15280 10686,15273 10686,15262 10679,15267 10676,15271 10675,15275 10671,15275 10671,15271 10642,15266 10632,15271 10616,15279 10602,15286 10597,15286 10595,15284 10594,15283 10590,15283 10608,15248 10621,15228 10627,15222 10629,15219 10629,15211 10624,15211 10624,15207 10616,15209 10616,15213 10594,15232 10581,15240 10576,15240 10575,15239 10575,15236 10550,15235 10550,15231 10554,15231 10552,15227 10558,15221 10559,15218 10560,15214 10558,15211 10558,15210 10559,15210 10559,15202 10560,15194 10568,15183 10576,15170 10578,15163 10578,15157 10547,15167 10499,15168 10498,15161 10507,15145 10512,15137 10516,15135 10520,15135 10519,15127 10515,15127 10504,15123 10500,15120 10499,15119 10498,15116 10498,15107 10497,15100 10494,15081 10500,15053 10495,15053 10482,15045 10476,15040 10472,15033 10470,15028 10470,15019 10472,15001 10476,14985 10476,14981 10477,14979 10485,14979 10487,14977 10489,14973 10513,14967 10526,14967 10532,14969 10533,14973 10541,14973 10537,14966 10537,14963 10538,14962 10539,14962 10542,14950 10542,14943 10541,14937 10537,14928 10532,14921 10526,14919 10521,14917 10510,14919 10497,14925 10485,14933 10473,14937 10468,14937 10463,14936 10459,14930 10455,14924 10451,14908 10454,14895 10459,14886 10468,14878 10486,14869 10491,14865 10494,14864 10494,14861 10500,14861 10502,14861 10503,14865 10511,14864 10512,14859 10515,14856 10517,14856 10517,14848 10513,14848 10512,14845 10450,14847 10447,14845 10446,14841 10443,14833 10442,14816 10438,14796 10435,14781 10439,14766 10450,14750 10456,14742 10460,14739 10465,14738 10465,14734 10461,14734 10461,14730 10457,14730 10447,14729 10442,14727 10441,14726 10441,14724 10433,14725 10438,14713 10442,14709 10443,14709 10443,14712 10443,14705 10441,14701 10438,14698 10433,14696 10424,14694 10413,14695 10412,14687 10422,14677 10428,14665 10429,14652 10428,14638 10438,14633 10442,14629 10443,14623 10422,14582 10429,14567 10431,14561 10437,14554 10483,14534 10490,14530 10493,14525 10498,14521 10510,14518 10513,14506 10508,14506 10497,14504 10472,14502 10472,14506 10425,14526 10425,14522 10424,14501 10424,14491 10426,14482 10431,14475 10438,14470 10443,14463 10446,14456 10444,14449 10442,14445 10433,14437 10424,14431 10421,14428 10420,14423 10421,14414 10420,14407 10417,14392 10418,14359 10415,14342 10413,14335 10415,14326 10434,14297 10438,14285 10442,14280 10443,14279 10447,14277 10447,14281 10454,14275 10457,14270 10459,14264 10459,14260 10455,14255 10452,14253 10444,14254 10438,14262 10430,14267 10421,14271 10409,14273 10411,14251 10405,14229 10409,14229 10412,14219 10416,14215 10420,14212 10420,14205 10408,14195 10400,14182 10398,14168 10396,14152 10400,14091 10391,14085 10389,14081 10391,14080 10398,14063 10400,14054 10400,14043 10399,14016 10390,13973 10390,13961 10391,13951 10396,13943 10400,13940 10407,13939 10405,13935 10395,13922 10391,13916 10391,13913 10390,13895 10390,13879 10392,13862 10391,13845 10387,13839 10382,13834 10377,13829 10376,13822 10379,13822 10391,13778 10387,13778 10386,13774 10376,13771 10366,13765 10361,13757 10360,13744 10356,13745 10355,13741 10360,13738 10361,13738 10363,13738 10363,13740 10373,13732 10377,13728 10378,13723 10373,13719 10377,13719 10377,13715 10373,13715 10373,13719 10368,13721 10365,13719 10365,13717 10369,13715 10369,13693 10369,13682 10369,13678 10369,13676 10372,13670 10373,13669 10377,13667 10376,13663 10372,13663 10363,13652 10356,13648 10350,13646 10350,13639 10391,13602 10390,13598 10386,13598 10369,13594 10361,13592 10359,13591 10357,13589 10353,13589 10355,13576 10357,13564 10360,13554 10360,13541 10370,13544 10376,13544 10377,13542 10377,13540 10404,13529 10424,13523 10424,13515 10422,13512 10418,13512 10418,13509 10391,13509 10377,13507 10365,13503 10360,13498 10357,13490 10356,13485 10355,13485 10355,13486 10359,13485 10366,13480 10369,13477 10370,13473 10374,13472 10368,13459 10365,13453 10366,13450 10368,13449 10381,13408 10356,13402 10355,13399 10359,13398 10359,13394 10365,13386 10370,13377 10374,13367 10376,13356 10379,13356 10379,13352 10363,13350 10361,13345 10363,13342 10366,13342 10365,13338 10386,13336 10377,13325 10373,13319 10372,13313 10368,13311 10366,13306 10383,13287 10387,13281 10387,13273 10383,13268 10377,13265 10365,13263 10351,13264 10350,13256 10357,13255 10357,13251 10353,13251 10353,13247 10357,13247 10356,13243 10360,13243 10364,13248 10366,13250 10369,13250 10369,13246 10373,13246 10372,13230 10355,13228 10353,13212 10360,13198 10363,13191 10366,13185 10382,13173 10390,13168 10394,13165 10398,13164 10396,13156 10383,13155 10366,13155 10351,13155 10346,13155 10344,13153 10340,13153 10339,13150 10343,13150 10355,13134 10363,13126 10369,13122 10369,13114 10355,13113 10350,13110 10348,13108 10347,13105 10374,13094 10377,13078 10373,13078 10356,13087 10346,13088 10343,13088 10342,13086 10338,13086 10340,13075 10347,13064 10364,13040 10379,13019 10385,13010 10387,13005 10385,12990 10373,12995 10365,12992 10356,12991 10347,12990 10339,12984 10336,12980 10336,12979 10339,12978 10348,12974 10359,12973 10359,12965 10364,12967 10365,12967 10366,12967 10366,12963 10370,12963 10370,12960 10364,12957 10363,12957 10363,12960 10347,12954 10339,12952 10333,12950 10377,12898 10376,12891 10372,12892 10372,12888 10368,12888 10347,12897 10336,12900 10333,12900 10331,12900 10327,12900 10327,12896 10331,12896 10335,12883 10335,12872 10331,12848 10343,12843 10342,12835 10334,12831 10329,12824 10327,12818 10327,12810 10331,12803 10335,12797 10340,12793 10346,12790 10346,12783 10342,12783 10340,12779 10323,12776 10317,12771 10310,12763 10304,12758 10301,12755 10297,12755 10299,12723 10353,12675 10338,12656 10321,12663 10313,12668 10310,12671 10310,12675 10307,12675 10305,12658 10305,12650 10307,12647 10308,12647 10316,12614 10313,12595 10312,12586 10313,12584 10314,12582 10318,12555 10320,12541 10316,12528 10310,12516 10303,12509 10286,12494 10290,12494 10282,12463 10313,12447 10313,12443 10309,12444 10295,12433 10287,12428 10279,12426 10278,12422 10283,12422 10282,12418 10295,12417 10288,12408 10286,12404 10284,12399 10291,12392 10295,12390 10300,12388 10300,12382 10303,12377 10314,12368 10327,12360 10331,12353 10333,12346 10329,12347 10299,12360 10281,12364 10275,12364 10273,12361 10273,12360 10269,12360 10268,12344 10278,12334 10283,12330 10286,12329 10286,12330 10288,12318 10290,12313 10290,12310 10292,12310 10299,12288 10300,12265 10305,12260 10309,12253 10309,12236 10294,12238 10278,12235 10270,12232 10265,12228 10261,12222 10258,12214 10262,12205 10266,12202 10270,12201 10269,12193 10252,12191 10257,12183 10258,12179 10257,12178 10256,12178 10248,12171 10243,12169 10238,12167 10238,12163 10278,12160 10271,12149 10270,12144 10270,12141 10271,12141 10274,12135 10275,12134 10279,12132 10268,12122 10256,12115 10242,12113 10225,12114 10225,12110 10221,12110 10221,12106 10226,12091 10227,12080 10232,12070 10245,12057 10252,12050 10255,12048 10258,12046 10258,12035 10252,12029 10249,12028 10245,12028 10243,12029 10242,12029 10242,12032 10226,12037 10229,12028 10227,12023 10226,12022 10225,12022 10223,12018 10219,12018 10221,12023 10209,12026 10192,12028 10178,12026 10174,12023 10171,12019 10171,12016 10173,12015 10176,12013 10187,12010 10178,11993 10163,11977 10144,11966 10135,11963 10126,11962 10126,11958 10130,11958 10131,11951 10132,11950 10136,11949 10136,11941 10111,11924 10098,11916 10092,11915 10084,11915 10095,11941 10059,11945 10058,11972 10053,11975 10053,11970 10039,11971 10026,11976 10001,11983 9974,11983 9970,11994 9970,12007 9971,12014 9975,12018 9980,12020 9989,12020 10010,12005 10023,12000 10036,11996 10036,12000 10040,12000 10040,12003 10036,12003 10036,12007 10032,12009 10023,12013 10013,12014 10013,12018 10009,12019 10007,12033 10002,12044 9997,12052 9990,12057 9976,12066 9970,12072 9964,12081 9959,12126 9967,12143 9966,12162 9983,12166 9992,12170 9994,12173 9996,12175 10000,12175 10000,12179 9988,12180 9936,12180 9929,12210 9927,12226 9927,12231 9927,12232 9928,12234 9935,12234 9944,12235 9953,12238 9961,12238 9962,12245 9938,12266 9910,12281 9905,12287 9901,12294 9896,12309 9885,12322 9877,12331 9872,12343 9871,12362 9914,12352 9937,12351 9945,12353 9948,12355 9948,12359 9942,12360 9941,12359 9940,12355 9928,12365 9916,12378 9906,12390 9902,12394 9899,12395 9899,12408 9902,12413 9903,12415 9905,12415 9914,12422 9918,12428 9919,12433 9902,12441 9884,12444 9884,12448 9880,12448 9877,12472 9876,12494 9882,12520 9873,12522 9864,12528 9858,12534 9856,12538 9856,12542 9860,12542 9871,12546 9875,12549 9877,12552 9881,12552 9881,12556 9877,12556 9858,12576 9854,12585 9853,12597 9847,12607 9843,12610 9838,12612 9856,12630 9868,12638 9881,12640 9882,12643 9873,12645 9855,12671 9843,12682 9836,12686 9829,12688 9836,12716 9843,12729 9847,12733 9854,12733 9855,12745 9845,12753 9832,12763 9821,12772 9814,12777 9830,12793 9841,12801 9845,12806 9853,12815 9855,12819 9855,12820 9854,12822 9817,12859 9812,12870 9808,12882 9807,12895 9808,12909 9810,12915 9810,12917 9807,12918 9799,12931 9798,12937 9797,12947 9804,12945 9817,12940 9817,12944 9821,12944 9821,12952 9814,12957 9806,12963 9801,12971 9797,12979 9797,12987 9801,12992 9810,12995 9821,12996 9823,13000 9815,13008 9812,13012 9807,13013 9816,13019 9819,13023 9821,13027 9811,13032 9801,13040 9791,13048 9782,13051 9782,13047 9785,13042 9785,13040 9785,13039 9781,13039 9772,13056 9769,13065 9769,13068 9772,13068 9773,13075 9789,13070 9786,13087 9790,13086 9790,13090 9765,13084 9765,13088 9762,13088 9763,13100 9775,13101 9789,13104 9801,13110 9803,13114 9806,13121 9795,13129 9789,13139 9780,13161 9771,13170 9760,13177 9750,13186 9747,13191 9747,13198 9749,13202 9750,13205 9756,13209 9763,13212 9765,13213 9765,13216 9772,13222 9775,13226 9776,13230 9762,13238 9750,13250 9746,13256 9743,13264 9743,13272 9746,13281 9747,13285 9752,13285 9752,13281 9756,13281 9756,13285 9759,13281 9760,13276 9768,13276 9768,13281 9769,13282 9772,13284 9776,13286 9777,13290 9769,13291 9745,13294 9746,13298 9741,13298 9751,13325 9752,13339 9749,13352 9730,13369 9721,13381 9716,13397 9713,13412 9713,13428 9737,13434 9746,13442 9751,13446 9755,13447 9756,13455 9752,13455 9745,13463 9742,13467 9743,13468 9746,13468 9749,13476 9750,13479 9755,13480 9755,13484 9751,13484 9739,13509 9700,13545 9700,13550 9702,13551 9704,13551 9706,13555 9737,13553 9738,13557 9717,13605 9707,13656 9730,13653 9730,13657 9725,13662 9724,13665 9724,13670 9730,13676 9733,13684 9724,13693 9720,13700 9719,13706 9711,13706 9711,13702 9703,13695 9699,13693 9698,13693 9698,13696 9689,13701 9681,13711 9674,13723 9673,13734 9677,13734 9677,13730 9681,13730 9715,13727 9734,13727 9741,13728 9746,13731 9763,13760 9776,13773 9781,13779 9784,13787 9768,13788 9758,13780 9749,13777 9722,13778 9730,13788 9742,13801 9755,13809 9763,13812 9769,13812 9772,13832 9730,13829 9732,13836 9703,13839 9704,13843 9712,13849 9716,13853 9717,13857 9752,13842 9752,13845 9756,13845 9735,13868 9730,13879 9729,13896 9678,13909 9673,13909 9670,13920 9668,13924 9663,13926 9664,13934 9668,13934 9668,13938 9682,13934 9689,13931 9691,13930 9691,13927 9699,13926 9695,13934 9694,13938 9695,13939 9696,13939 9696,13943 9713,13946 9713,13942 9735,13929 9742,13927 9747,13927 9751,13931 9754,13938 9747,13938 9746,13939 9746,13942 9721,13950 9711,13957 9708,13964 9708,13969 9713,13974 9717,13976 9721,13976 9721,13979 9695,13976 9681,13973 9668,13973 9668,13977 9672,13977 9676,13982 9676,13983 9673,13985 9673,13989 9669,13989 9664,13992 9663,13994 9663,13992 9661,13990 9651,13986 9641,13983 9644,13995 9650,14003 9656,14009 9665,14015 9685,14018 9708,14017 9715,14013 9724,14012 9724,14016 9729,14015 9729,14018 9725,14020 9725,14024 9711,14034 9703,14039 9694,14042 9695,14046 9699,14046 9715,14048 9716,14052 9712,14052 9702,14063 9698,14068 9699,14069 9702,14069 9677,14076 9678,14084 9711,14089 9715,14100 9720,14106 9722,14107 9725,14107 9725,14111 9709,14116 9706,14130 9699,14141 9693,14150 9687,14160 9689,14202 9700,14202 9704,14205 9706,14206 9706,14208 9702,14208 9703,14212 9689,14219 9676,14231 9665,14246 9663,14253 9663,14260 9667,14260 9678,14259 9680,14267 9637,14290 9642,14305 9646,14311 9648,14312 9651,14314 9667,14307 9667,14303 9670,14303 9670,14296 9672,14289 9677,14284 9685,14283 9683,14311 9682,14327 9678,14340 9674,14345 9669,14350 9655,14359 9642,14370 9638,14375 9638,14381 9667,14383 9672,14398 9676,14398 9676,14402 9672,14402 9650,14420 9641,14432 9638,14439 9637,14446 9642,14466 9669,14458 9669,14454 9673,14454 9673,14458 9677,14458 9674,14476 9668,14493 9656,14508 9642,14519 9626,14526 9620,14531 9613,14538 9586,14604 9561,14670 9556,14675 9551,14679 9540,14683 9527,14687 9516,14692 9509,14699 9503,14708 9494,14726 9491,14733 9491,14737 9492,14740 9497,14748 9504,14756 9508,14765 9507,14793 9455,14802 9455,14806 9458,14808 9460,14813 9464,14812 9468,14806 9469,14806 9470,14806 9471,14808 9474,14813 9477,14815 9481,14815 9481,14822 9452,14817 9449,14828 9447,14833 9441,14834 9428,14835 9418,14839 9408,14843 9397,14847 9404,14851 9410,14855 9427,14856 9427,14864 9413,14869 9408,14874 9405,14878 9405,14882 9401,14882 9393,14881 9384,14881 9376,14882 9374,14881 9373,14881 9365,14877 9361,14874 9356,14874 9358,14869 9358,14868 9358,14867 9356,14867 9361,14859 9361,14855 9358,14855 9343,14838 9334,14832 9328,14830 9323,14830 9323,14822 9331,14821 9332,14815 9335,14808 9339,14803 9345,14800 9344,14796 9339,14791 9335,14790 9331,14790 9331,14785 9365,14750 9383,14729 9391,14722 9397,14720 9397,14712 9375,14712 9365,14709 9361,14707 9358,14703 9360,14701 9361,14701 9365,14699 9370,14696 9370,14694 9371,14690 9375,14690 9375,14694 9378,14686 9378,14677 9380,14669 9382,14666 9384,14665 9388,14670 9389,14672 9393,14672 9393,14668 9392,14652 9399,14644 9402,14640 9406,14639 9405,14631 9388,14622 9379,14617 9376,14613 9375,14610 9380,14604 9383,14603 9387,14601 9386,14593 9374,14595 9374,14591 9370,14591 9358,14623 9348,14639 9341,14643 9335,14646 9344,14661 9350,14669 9354,14672 9357,14672 9357,14675 9353,14675 9353,14679 9337,14674 9321,14664 9306,14649 9302,14642 9301,14633 9315,14618 9324,14613 9335,14610 9327,14599 9323,14593 9323,14592 9324,14591 9340,14565 9348,14551 9348,14547 9347,14545 9345,14545 9328,14543 9328,14539 9332,14539 9332,14535 9327,14535 9327,14531 9332,14509 9334,14486 9339,14463 9345,14454 9354,14446 9358,14445 9360,14444 9360,14440 9362,14436 9362,14432 9353,14426 9350,14423 9350,14422 9353,14420 9366,14396 9371,14383 9373,14367 9387,14371 9401,14372 9404,14361 9413,14359 9418,14370 9421,14376 9421,14383 9419,14389 9415,14396 9404,14413 9388,14424 9382,14430 9375,14431 9375,14439 9386,14445 9391,14452 9392,14461 9392,14470 9386,14488 9379,14506 9376,14530 9374,14541 9370,14545 9365,14548 9371,14558 9375,14564 9376,14565 9379,14566 9378,14590 9386,14590 9386,14586 9399,14571 9406,14565 9415,14562 9414,14556 9414,14548 9419,14530 9430,14515 9436,14510 9443,14508 9443,14504 9451,14509 9455,14510 9460,14510 9458,14506 9483,14461 9482,14457 9460,14458 9448,14456 9443,14453 9438,14453 9438,14449 9445,14446 9448,14444 9448,14440 9452,14440 9448,14423 9448,14418 9451,14415 9453,14413 9458,14411 9455,14396 9451,14381 9453,14378 9457,14375 9461,14372 9462,14367 9466,14367 9439,14302 9435,14302 9415,14307 9415,14311 9422,14323 9422,14328 9421,14331 9419,14333 9415,14336 9408,14337 9387,14337 9370,14336 9369,14329 9370,14328 9373,14328 9379,14318 9383,14312 9387,14310 9380,14299 9379,14294 9379,14292 9382,14290 9397,14253 9410,14233 9417,14227 9423,14223 9423,14215 9414,14207 9410,14198 9410,14188 9413,14179 9421,14158 9423,14147 9423,14136 9435,14130 9428,14120 9427,14113 9427,14112 9430,14111 9434,14106 9436,14103 9436,14099 9445,14082 9455,14068 9464,14020 9464,14015 9465,14013 9469,14012 9462,14003 9460,13999 9461,13998 9464,13996 9471,13982 9474,13974 9474,13973 9474,13972 9473,13972 9473,13956 9470,13940 9474,13940 9474,13944 9481,13948 9483,13951 9487,13951 9483,13920 9481,13903 9481,13898 9481,13896 9482,13895 9500,13870 9503,13862 9503,13856 9501,13848 9497,13840 9494,13838 9488,13835 9486,13832 9483,13827 9497,13797 9500,13783 9500,13771 9501,13766 9505,13761 9509,13757 9517,13754 9522,13753 9525,13752 9525,13748 9529,13748 9521,13735 9514,13731 9507,13730 9507,13726 9501,13721 9500,13717 9500,13708 9501,13697 9503,13687 9507,13687 9512,13691 9514,13693 9520,13693 9523,13689 9529,13687 9533,13684 9534,13682 9534,13679 9533,13656 9527,13656 9525,13669 9514,13658 9510,13653 9509,13650 9512,13650 9518,13639 9521,13632 9521,13626 9525,13624 9525,13620 9517,13622 9513,13624 9509,13626 9509,13622 9512,13610 9514,13605 9516,13606 9526,13583 9534,13572 9539,13568 9544,13567 9543,13559 9530,13553 9522,13545 9518,13536 9517,13525 9521,13477 9520,13451 9521,13440 9527,13429 9534,13423 9543,13420 9562,13417 9561,13415 9566,13406 9569,13403 9573,13402 9572,13393 9557,13388 9547,13380 9536,13371 9525,13362 9525,13367 9520,13351 9547,13339 9542,13328 9538,13324 9535,13321 9533,13321 9533,13317 9536,13317 9540,13312 9544,13310 9548,13308 9547,13300 9539,13300 9531,13299 9527,13298 9526,13294 9522,13295 9525,13286 9527,13280 9534,13274 9544,13273 9539,13278 9538,13281 9538,13285 9542,13285 9556,13286 9562,13287 9565,13289 9566,13290 9573,13280 9578,13263 9579,13248 9578,13243 9575,13242 9574,13242 9565,13238 9562,13235 9561,13231 9570,13222 9578,13209 9583,13199 9582,13195 9579,13194 9577,13194 9577,13190 9562,13192 9556,13191 9553,13190 9552,13189 9548,13189 9547,13173 9551,13173 9551,13169 9575,13170 9569,13139 9570,13122 9573,13117 9575,13116 9578,13114 9577,13107 9557,13108 9556,13100 9560,13100 9561,13090 9561,13081 9557,13061 9561,13055 9564,13052 9568,13052 9569,13045 9572,13040 9575,13036 9582,13035 9595,13031 9600,13027 9605,13023 9602,13025 9596,13019 9592,13018 9588,13018 9588,13010 9607,13003 9616,12999 9618,12997 9620,12995 9624,12995 9617,12987 9611,12983 9603,12982 9595,12982 9577,12986 9557,12988 9557,12984 9561,12984 9569,12970 9585,12950 9600,12932 9607,12926 9612,12924 9641,12921 9651,12918 9661,12921 9669,12927 9677,12935 9690,12952 9694,12957 9695,12960 9696,12960 9698,12963 9706,12962 9707,12957 9709,12954 9713,12954 9711,12945 9712,12937 9715,12935 9717,12932 9726,12928 9726,12924 9730,12924 9729,12917 9717,12911 9704,12904 9693,12896 9681,12892 9635,12904 9570,12908 9570,12904 9574,12904 9574,12900 9596,12885 9609,12882 9625,12879 9625,12871 9622,12869 9620,12867 9611,12863 9608,12861 9607,12857 9639,12818 9638,12810 9634,12810 9613,12800 9604,12796 9592,12794 9582,12771 9588,12771 9590,12771 9590,12775 9603,12755 9607,12746 9607,12742 9605,12742 9603,12741 9603,12737 9594,12741 9588,12742 9587,12741 9587,12740 9583,12740 9583,12707 9588,12707 9605,12720 9615,12723 9626,12724 9624,12707 9626,12699 9628,12697 9631,12696 9631,12699 9635,12698 9635,12694 9639,12694 9639,12698 9643,12698 9644,12702 9648,12702 9650,12675 9652,12659 9654,12655 9655,12654 9656,12653 9664,12658 9673,12659 9681,12646 9687,12640 9695,12637 9690,12632 9682,12628 9676,12623 9673,12620 9654,12625 9652,12617 9656,12617 9665,12606 9672,12602 9680,12599 9678,12588 9669,12584 9663,12577 9654,12564 9647,12551 9643,12546 9637,12541 9630,12539 9624,12539 9609,12539 9592,12535 9595,12533 9599,12532 9602,12524 9603,12520 9607,12519 9607,12513 9609,12509 9615,12504 9624,12502 9633,12500 9634,12504 9617,12509 9618,12513 9622,12513 9622,12517 9651,12515 9667,12493 9670,12480 9670,12464 9674,12464 9683,12474 9690,12477 9696,12478 9696,12482 9700,12482 9700,12457 9698,12446 9691,12434 9695,12434 9698,12429 9699,12426 9703,12426 9703,12418 9698,12418 9698,12415 9690,12415 9686,12420 9681,12424 9665,12430 9648,12430 9642,12429 9638,12425 9638,12424 9638,12422 9642,12420 9652,12412 9663,12402 9667,12398 9668,12394 9681,12400 9687,12403 9696,12403 9698,12407 9700,12403 9704,12402 9699,12388 9696,12382 9696,12379 9699,12378 9708,12370 9716,12362 9719,12359 9720,12353 9720,12347 9717,12339 9716,12335 9713,12334 9711,12334 9715,12326 9717,12322 9717,12317 9711,12317 9709,12318 9709,12322 9702,12322 9685,12346 9673,12353 9660,12359 9654,12344 9648,12338 9646,12336 9642,12336 9642,12333 9646,12331 9646,12327 9655,12321 9659,12320 9660,12321 9661,12322 9665,12305 9665,12286 9668,12283 9673,12282 9683,12277 9693,12270 9702,12265 9712,12261 9711,12258 9698,12245 9690,12241 9681,12240 9681,12235 9681,12234 9685,12232 9687,12228 9687,12225 9696,12223 9696,12227 9703,12234 9704,12238 9706,12243 9709,12241 9709,12238 9715,12235 9716,12232 9717,12230 9721,12228 9721,12236 9725,12236 9720,12261 9726,12261 9728,12260 9728,12256 9742,12244 9747,12235 9749,12226 9720,12210 9706,12200 9706,12197 9704,12196 9707,12195 9709,12195 9717,12188 9720,12186 9720,12182 9724,12180 9725,12184 9745,12179 9752,12187 9756,12188 9758,12188 9758,12186 9769,12188 9767,12178 9767,12173 9768,12167 9775,12157 9785,12147 9795,12135 9804,12122 9808,12122 9801,12109 9797,12094 9763,12096 9754,12094 9747,12092 9742,12087 9739,12080 9746,12072 9750,12068 9754,12066 9764,12071 9775,12072 9775,12068 9771,12068 9780,12059 9784,12054 9785,12048 9789,12048 9789,12044 9778,12037 9776,12035 9776,12033 9780,12032 9798,12037 9808,12039 9811,12039 9812,12039 9812,12037 9821,12029 9828,12022 9832,12011 9832,12000 9829,11994 9828,11993 9824,11992 9824,11984 9830,11975 9833,11964 9836,11954 9840,11944 9846,11936 9854,11931 9863,11925 9871,11919 9889,11890 9910,11863 9914,11863 9903,11858 9894,11858 9886,11862 9877,11867 9859,11879 9849,11884 9838,11886 9838,11882 9834,11882 9833,11867 9837,11867 9845,11849 9849,11841 9851,11838 9854,11837 9862,11845 9873,11849 9879,11850 9884,11847 9886,11845 9886,11838 9876,11834 9866,11832 9864,11824 9873,11823 9897,11814 9897,11817 9901,11816 9901,11812 9905,11812 9905,11808 9914,11808 9919,11807 9919,11806 9920,11803 9940,11758 9941,11734 9944,11722 9944,11721 9945,11725 9949,11724 9949,11720 9964,11703 9974,11694 9977,11690 9981,11690 9983,11694 9994,11693 9997,11689 10002,11687 10003,11656 10000,11656 9989,11652 9979,11650 9977,11646 9974,11647 9990,11624 10002,11612 10006,11609 10011,11607 10005,11600 10003,11598 10003,11596 10006,11596 10022,11568 10032,11555 10039,11549 10045,11548 10039,11542 10037,11538 10039,11538 10041,11536 10046,11533 10053,11531 10069,11530 10067,11526 10093,11509 10101,11497 10104,11491 10104,11483 10097,11482 10093,11480 10092,11477 10096,11477 10096,11478 10097,11478 10100,11478 10108,11474 10108,11470 10113,11464 10117,11458 10117,11441 10124,11441 10124,11438 10131,11436 10132,11436 10132,11440 10140,11439 10136,11388 10154,11375 Z M 10209,11353 L 10214,11353 10209,11353 Z"/>
      </g>
     </g>
    </g>
   </g>
  </g>
 </g>
</svg>