<?xml version="1.0" encoding="UTF-8"?>

<svg version="1.2" baseProfile="tiny" width="90.55mm" height="60.87mm" viewBox="10770 5424 9055 6087" preserveAspectRatio="xMidYMid" fill-rule="evenodd" stroke-width="28.222" stroke-linejoin="round" xmlns="http://www.w3.org/2000/svg" xmlns:ooo="http://xml.openoffice.org/svg/export" xmlns:xlink="http://www.w3.org/1999/xlink" xml:space="preserve">
 <defs class="ClipPathGroup">
  <clipPath id="presentation_clip_path" clipPathUnits="userSpaceOnUse">
   <rect x="10770" y="5424" width="9055" height="6087"/>
  </clipPath>
 </defs>
 <defs class="TextShapeIndex">
  <g ooo:slide="id1" ooo:id-list="id3 id4 id5 id6 id7 id8 id9 id10 id11 id12 id13 id14 id15 id16"/>
 </defs>
 <defs class="EmbeddedBulletChars">
  <g id="bullet-char-template(57356)" transform="scale(0.00048828125,-0.00048828125)">
   <path d="M 580,1141 L 1163,571 580,0 -4,571 580,1141 Z"/>
  </g>
  <g id="bullet-char-template(57354)" transform="scale(0.00048828125,-0.00048828125)">
   <path d="M 8,1128 L 1137,1128 1137,0 8,0 8,1128 Z"/>
  </g>
  <g id="bullet-char-template(10146)" transform="scale(0.00048828125,-0.00048828125)">
   <path d="M 174,0 L 602,739 174,1481 1456,739 174,0 Z M 1358,739 L 309,1346 659,739 1358,739 Z"/>
  </g>
  <g id="bullet-char-template(10132)" transform="scale(0.00048828125,-0.00048828125)">
   <path d="M 2015,739 L 1276,0 717,0 1260,543 174,543 174,936 1260,936 717,1481 1274,1481 2015,739 Z"/>
  </g>
  <g id="bullet-char-template(10007)" transform="scale(0.00048828125,-0.00048828125)">
   <path d="M 0,-2 C -7,14 -16,27 -25,37 L 356,567 C 262,823 215,952 215,954 215,979 228,992 255,992 264,992 276,990 289,987 310,991 331,999 354,1012 L 381,999 492,748 772,1049 836,1024 860,1049 C 881,1039 901,1025 922,1006 886,937 835,863 770,784 769,783 710,716 594,584 L 774,223 C 774,196 753,168 711,139 L 727,119 C 717,90 699,76 672,76 641,76 570,178 457,381 L 164,-76 C 142,-110 111,-127 72,-127 30,-127 9,-110 8,-76 1,-67 -2,-52 -2,-32 -2,-23 -1,-13 0,-2 Z"/>
  </g>
  <g id="bullet-char-template(10004)" transform="scale(0.00048828125,-0.00048828125)">
   <path d="M 285,-33 C 182,-33 111,30 74,156 52,228 41,333 41,471 41,549 55,616 82,672 116,743 169,778 240,778 293,778 328,747 346,684 L 369,508 C 377,444 397,411 428,410 L 1163,1116 C 1174,1127 1196,1133 1229,1133 1271,1133 1292,1118 1292,1087 L 1292,965 C 1292,929 1282,901 1262,881 L 442,47 C 390,-6 338,-33 285,-33 Z"/>
  </g>
  <g id="bullet-char-template(9679)" transform="scale(0.00048828125,-0.00048828125)">
   <path d="M 813,0 C 632,0 489,54 383,161 276,268 223,411 223,592 223,773 276,916 383,1023 489,1130 632,1184 813,1184 992,1184 1136,1130 1245,1023 1353,916 1407,772 1407,592 1407,412 1353,268 1245,161 1136,54 992,0 813,0 Z"/>
  </g>
  <g id="bullet-char-template(8226)" transform="scale(0.00048828125,-0.00048828125)">
   <path d="M 346,457 C 273,457 209,483 155,535 101,586 74,649 74,723 74,796 101,859 155,911 209,963 273,989 346,989 419,989 480,963 531,910 582,859 608,796 608,723 608,648 583,586 532,535 482,483 420,457 346,457 Z"/>
  </g>
  <g id="bullet-char-template(8211)" transform="scale(0.00048828125,-0.00048828125)">
   <path d="M -4,459 L 1135,459 1135,606 -4,606 -4,459 Z"/>
  </g>
 </defs>
 <defs class="TextEmbeddedBitmaps"/>
 <g class="SlideGroup">
  <g>
   <g id="id1" class="Slide" clip-path="url(#presentation_clip_path)">
    <g class="Page">
     <g class="com.sun.star.drawing.PolyPolygonShape">
      <g id="id3">
       <path fill="rgb(34,27,25)" stroke="none" d="M 11551,10572 L 11548,10572 11328,11187 11263,11187 11050,10572 11048,10572 10961,11174 10770,11174 10934,10178 11068,10178 11307,10818 11536,10178 11673,10178 11818,11174 11628,11174 11551,10572 Z"/>
      </g>
     </g>
     <g class="com.sun.star.drawing.ClosedBezierShape">
      <g id="id4">
       <path fill="rgb(34,27,25)" stroke="none" d="M 12066,10858 C 12066,10943 12123,11035 12215,11035 12309,11035 12366,10943 12366,10858 12366,10771 12309,10681 12215,10681 12123,10681 12066,10771 12066,10858 Z M 12548,10858 C 12548,11054 12415,11195 12215,11195 12017,11195 11884,11054 11884,10858 11884,10662 12019,10521 12215,10521 12413,10521 12548,10662 12548,10858 Z"/>
      </g>
     </g>
     <g class="com.sun.star.drawing.ClosedBezierShape">
      <g id="id5">
       <path fill="rgb(34,27,25)" stroke="none" d="M 12845,10600 L 12848,10600 C 12885,10543 12948,10521 13012,10521 13182,10521 13231,10641 13231,10789 L 13231,11174 13051,11174 13051,10840 C 13051,10764 13055,10665 12953,10665 12846,10665 12845,10786 12845,10862 L 12845,11174 12664,11174 12664,10542 12845,10542 12845,10600 Z"/>
      </g>
     </g>
     <g class="com.sun.star.drawing.ClosedBezierShape">
      <g id="id6">
       <path fill="rgb(34,27,25)" stroke="none" d="M 13782,10775 C 13773,10710 13732,10647 13663,10647 13590,10647 13550,10709 13541,10775 L 13782,10775 Z M 13536,10887 C 13536,10966 13567,11056 13662,11056 13721,11056 13758,11020 13782,10970 L 13948,10997 C 13905,11124 13794,11195 13662,11195 13465,11195 13346,11055 13346,10863 13346,10672 13447,10521 13653,10521 13860,10521 13952,10674 13952,10865 L 13952,10887 13536,10887 Z"/>
      </g>
     </g>
     <g class="com.sun.star.drawing.PolyPolygonShape">
      <g id="id7">
       <path fill="rgb(34,27,25)" stroke="none" d="M 13979,10542 L 14185,10542 14335,10901 14497,10542 14698,10542 14239,11511 14041,11511 14249,11077 13979,10542 Z"/>
      </g>
     </g>
     <g class="com.sun.star.drawing.PolyPolygonShape">
      <g id="id8">
       <path fill="rgb(227,101,32)" stroke="none" d="M 15264,10368 L 15264,10582 15538,10582 15538,10746 15264,10746 15264,11174 15074,11174 15074,10204 15555,10204 15555,10368 15264,10368 Z"/>
      </g>
     </g>
     <g class="com.sun.star.drawing.ClosedBezierShape">
      <g id="id9">
       <path fill="rgb(227,101,32)" stroke="none" d="M 15772,10858 C 15772,10943 15828,11035 15921,11035 16014,11035 16070,10943 16070,10858 16070,10771 16014,10681 15921,10681 15828,10681 15772,10771 15772,10858 Z M 16254,10858 C 16254,11054 16119,11195 15921,11195 15723,11195 15589,11054 15589,10858 15589,10662 15724,10521 15921,10521 16118,10521 16254,10662 16254,10858 Z"/>
      </g>
     </g>
     <g class="com.sun.star.drawing.ClosedBezierShape">
      <g id="id10">
       <path fill="rgb(227,101,32)" stroke="none" d="M 16550,10608 L 16552,10608 C 16588,10552 16642,10521 16709,10521 16735,10521 16761,10528 16785,10537 L 16762,10704 C 16740,10688 16714,10681 16687,10681 16562,10681 16550,10792 16550,10890 L 16550,11174 16370,11174 16370,10542 16550,10542 16550,10608 Z"/>
      </g>
     </g>
     <g class="com.sun.star.drawing.ClosedBezierShape">
      <g id="id11">
       <path fill="rgb(227,101,32)" stroke="none" d="M 17847,10662 L 17598,11187 17506,11187 17371,10803 17221,11187 17128,11187 16837,10543 17034,10543 17174,10876 17320,10522 17420,10522 17563,10870 17687,10601 C 17687,10601 17843,10209 18206,10208 L 18241,10360 C 18241,10360 17988,10342 17847,10662 Z"/>
      </g>
     </g>
     <g class="com.sun.star.drawing.ClosedBezierShape">
      <g id="id12">
       <path fill="rgb(227,101,32)" stroke="none" d="M 18402,10857 C 18402,10772 18344,10681 18250,10681 18158,10681 18101,10772 18101,10857 18101,10942 18158,11035 18250,11035 18344,11035 18402,10942 18402,10857 Z M 18561,11174 L 18384,11174 18384,11116 18381,11116 C 18343,11167 18276,11195 18209,11195 18024,11195 17919,11025 17919,10854 17919,10687 18025,10521 18207,10521 18273,10521 18340,10550 18384,10601 L 18384,10542 18561,10542 18561,11174 Z"/>
      </g>
     </g>
     <g class="com.sun.star.drawing.ClosedBezierShape">
      <g id="id13">
       <path fill="rgb(227,101,32)" stroke="none" d="M 18903,10608 L 18906,10608 C 18942,10552 18996,10521 19063,10521 19088,10521 19114,10528 19137,10537 L 19115,10704 C 19094,10688 19068,10681 19041,10681 18916,10681 18903,10792 18903,10890 L 18903,11174 18722,11174 18722,10542 18903,10542 18903,10608 Z"/>
      </g>
     </g>
     <g class="com.sun.star.drawing.ClosedBezierShape">
      <g id="id14">
       <path fill="rgb(227,101,32)" stroke="none" d="M 19663,10858 C 19663,10773 19607,10682 19513,10682 19420,10682 19364,10773 19364,10858 19364,10943 19420,11036 19513,11036 19607,11036 19663,10943 19663,10858 Z M 19645,11115 L 19643,11115 C 19605,11167 19537,11195 19472,11195 19287,11195 19181,11026 19181,10855 19181,10688 19288,10522 19469,10522 19535,10522 19603,10551 19643,10601 L 19645,10601 19645,10204 19825,10204 19825,11174 19645,11174 19645,11115 Z"/>
      </g>
     </g>
     <g class="com.sun.star.drawing.ClosedBezierShape">
      <g id="id15">
       <path fill="rgb(227,101,32)" stroke="none" d="M 16383,7923 C 16327,8015 16229,8072 16121,8075 16013,8079 15912,8027 15850,7939 L 15496,7433 15222,8234 C 15184,8344 15089,8425 14974,8445 14859,8464 14742,8419 14670,8328 L 14428,8022 14253,8584 C 14210,8721 14084,8809 13948,8809 13917,8809 13885,8804 13854,8794 13685,8742 13592,8563 13644,8395 L 13999,7254 C 14034,7141 14129,7057 14246,7035 14362,7014 14481,7058 14554,7151 L 14808,7473 15096,6633 C 15135,6520 15234,6438 15353,6421 15472,6404 15590,6456 15659,6554 L 16094,7176 16681,6218 C 16299,5757 15723,5464 15078,5464 13928,5464 12996,6396 12996,7545 12996,8694 13928,9626 15078,9626 16227,9626 17158,8694 17158,7545 17158,7302 17116,7069 17040,6853 L 16383,7923 Z"/>
      </g>
     </g>
     <g class="com.sun.star.drawing.ClosedBezierShape">
      <g id="id16">
       <path fill="rgb(227,101,32)" stroke="none" d="M 17699,5838 C 17699,6066 17514,6252 17286,6252 17057,6252 16871,6066 16871,5838 16871,5609 17057,5424 17286,5424 17514,5424 17699,5609 17699,5838 Z"/>
      </g>
     </g>
    </g>
   </g>
  </g>
 </g>
</svg>