<?xml version="1.0" encoding="UTF-8"?>

<svg version="1.2" baseProfile="tiny" width="73.19mm" height="25.83mm" viewBox="11468 9498 7319 2583" preserveAspectRatio="xMidYMid" fill-rule="evenodd" stroke-width="28.222" stroke-linejoin="round" xmlns="http://www.w3.org/2000/svg" xmlns:ooo="http://xml.openoffice.org/svg/export" xmlns:xlink="http://www.w3.org/1999/xlink" xml:space="preserve">
 <defs class="ClipPathGroup">
  <clipPath id="presentation_clip_path" clipPathUnits="userSpaceOnUse">
   <rect x="11468" y="9498" width="7319" height="2583"/>
  </clipPath>
 </defs>
 <defs class="TextShapeIndex">
  <g ooo:slide="id1" ooo:id-list="id3 id4 id5 id6 id7 id8 id9 id10 id11 id12 id13 id14 id15 id16 id17 id18 id19 id20 id21 id22 id23 id24 id25 id26 id27 id28 id29 id30 id31 id32 id33 id34"/>
 </defs>
 <defs class="EmbeddedBulletChars">
  <g id="bullet-char-template(57356)" transform="scale(0.00048828125,-0.00048828125)">
   <path d="M 580,1141 L 1163,571 580,0 -4,571 580,1141 Z"/>
  </g>
  <g id="bullet-char-template(57354)" transform="scale(0.00048828125,-0.00048828125)">
   <path d="M 8,1128 L 1137,1128 1137,0 8,0 8,1128 Z"/>
  </g>
  <g id="bullet-char-template(10146)" transform="scale(0.00048828125,-0.00048828125)">
   <path d="M 174,0 L 602,739 174,1481 1456,739 174,0 Z M 1358,739 L 309,1346 659,739 1358,739 Z"/>
  </g>
  <g id="bullet-char-template(10132)" transform="scale(0.00048828125,-0.00048828125)">
   <path d="M 2015,739 L 1276,0 717,0 1260,543 174,543 174,936 1260,936 717,1481 1274,1481 2015,739 Z"/>
  </g>
  <g id="bullet-char-template(10007)" transform="scale(0.00048828125,-0.00048828125)">
   <path d="M 0,-2 C -7,14 -16,27 -25,37 L 356,567 C 262,823 215,952 215,954 215,979 228,992 255,992 264,992 276,990 289,987 310,991 331,999 354,1012 L 381,999 492,748 772,1049 836,1024 860,1049 C 881,1039 901,1025 922,1006 886,937 835,863 770,784 769,783 710,716 594,584 L 774,223 C 774,196 753,168 711,139 L 727,119 C 717,90 699,76 672,76 641,76 570,178 457,381 L 164,-76 C 142,-110 111,-127 72,-127 30,-127 9,-110 8,-76 1,-67 -2,-52 -2,-32 -2,-23 -1,-13 0,-2 Z"/>
  </g>
  <g id="bullet-char-template(10004)" transform="scale(0.00048828125,-0.00048828125)">
   <path d="M 285,-33 C 182,-33 111,30 74,156 52,228 41,333 41,471 41,549 55,616 82,672 116,743 169,778 240,778 293,778 328,747 346,684 L 369,508 C 377,444 397,411 428,410 L 1163,1116 C 1174,1127 1196,1133 1229,1133 1271,1133 1292,1118 1292,1087 L 1292,965 C 1292,929 1282,901 1262,881 L 442,47 C 390,-6 338,-33 285,-33 Z"/>
  </g>
  <g id="bullet-char-template(9679)" transform="scale(0.00048828125,-0.00048828125)">
   <path d="M 813,0 C 632,0 489,54 383,161 276,268 223,411 223,592 223,773 276,916 383,1023 489,1130 632,1184 813,1184 992,1184 1136,1130 1245,1023 1353,916 1407,772 1407,592 1407,412 1353,268 1245,161 1136,54 992,0 813,0 Z"/>
  </g>
  <g id="bullet-char-template(8226)" transform="scale(0.00048828125,-0.00048828125)">
   <path d="M 346,457 C 273,457 209,483 155,535 101,586 74,649 74,723 74,796 101,859 155,911 209,963 273,989 346,989 419,989 480,963 531,910 582,859 608,796 608,723 608,648 583,586 532,535 482,483 420,457 346,457 Z"/>
  </g>
  <g id="bullet-char-template(8211)" transform="scale(0.00048828125,-0.00048828125)">
   <path d="M -4,459 L 1135,459 1135,606 -4,606 -4,459 Z"/>
  </g>
 </defs>
 <defs class="TextEmbeddedBitmaps"/>
 <g class="SlideGroup">
  <g>
   <g id="id1" class="Slide" clip-path="url(#presentation_clip_path)">
    <g class="Page">
     <g class="com.sun.star.drawing.ClosedBezierShape">
      <g id="id3">
       <path fill="rgb(239,48,51)" stroke="none" d="M 12520,11138 C 12495,11138 12475,11118 12475,11094 L 12475,10697 12299,10873 C 12283,10889 12253,10889 12237,10873 L 12060,10697 12060,11094 C 12060,11118 12040,11138 12015,11138 11991,11138 11971,11118 11971,11094 L 11971,10590 C 11971,10572 11982,10555 11998,10549 12015,10542 12034,10545 12047,10558 L 12268,10778 12488,10558 C 12501,10545 12520,10542 12537,10549 12553,10555 12564,10572 12564,10590 L 12564,11094 C 12564,11118 12544,11138 12520,11138 Z"/>
      </g>
     </g>
     <g class="com.sun.star.drawing.ClosedBezierShape">
      <g id="id4">
       <path fill="rgb(239,48,51)" stroke="none" d="M 13326,11138 C 13321,11138 13315,11137 13309,11135 13293,11128 13282,11112 13282,11094 L 13282,10590 C 13282,10565 13302,10545 13326,10545 13351,10545 13371,10565 13371,10590 L 13371,10987 13548,10810 C 13565,10792 13593,10792 13610,10810 13628,10827 13628,10855 13610,10873 L 13358,11125 C 13349,11134 13338,11138 13326,11138 Z"/>
      </g>
     </g>
     <g class="com.sun.star.drawing.ClosedBezierShape">
      <g id="id5">
       <path fill="rgb(239,48,51)" stroke="none" d="M 12923,11138 C 12898,11138 12878,11118 12878,11094 L 12878,10590 C 12878,10572 12889,10555 12906,10549 12922,10542 12941,10545 12954,10558 L 13207,10810 C 13224,10827 13224,10855 13207,10873 13189,10890 13161,10890 13144,10873 L 12967,10697 12967,11094 C 12967,11118 12947,11138 12923,11138 Z"/>
      </g>
     </g>
     <g class="com.sun.star.drawing.ClosedBezierShape">
      <g id="id6">
       <path fill="rgb(239,48,51)" stroke="none" d="M 12924,11138 C 12899,11138 12879,11118 12879,11094 L 12879,10697 12702,10873 C 12685,10890 12657,10890 12639,10873 12622,10855 12622,10827 12639,10810 L 12892,10558 C 12905,10545 12924,10542 12941,10549 12957,10555 12968,10572 12968,10590 L 12968,11094 C 12968,11118 12948,11138 12924,11138 Z"/>
      </g>
     </g>
     <g class="com.sun.star.drawing.ClosedBezierShape">
      <g id="id7">
       <path fill="rgb(239,48,51)" stroke="none" d="M 11557,11265 L 12276,11985 14038,11254 14038,10313 13319,9595 11557,10324 11557,11265 Z M 12266,12081 C 12254,12081 12243,12077 12234,12068 L 11481,11315 C 11472,11306 11468,11295 11468,11283 L 11468,10295 C 11468,10277 11479,10261 11495,10254 L 13313,9501 C 13329,9494 13348,9498 13361,9511 L 14114,10263 C 14122,10272 14127,10283 14127,10295 L 14127,11283 C 14127,11301 14116,11318 14099,11324 L 12283,12078 C 12277,12080 12271,12081 12266,12081 Z"/>
      </g>
     </g>
     <g class="com.sun.star.drawing.ClosedBezierShape">
      <g id="id8">
       <path fill="rgb(239,48,51)" stroke="none" d="M 15899,11011 C 15889,11011 15881,11003 15881,10993 L 15881,10690 C 15881,10680 15889,10672 15899,10672 15910,10672 15918,10680 15918,10690 L 15918,10993 C 15918,11003 15910,11011 15899,11011 Z"/>
      </g>
     </g>
     <g class="com.sun.star.drawing.ClosedBezierShape">
      <g id="id9">
       <path fill="rgb(239,48,51)" stroke="none" d="M 16202,10860 L 15899,10860 C 15889,10860 15881,10852 15881,10842 15881,10831 15889,10823 15899,10823 L 16202,10823 C 16212,10823 16220,10831 16220,10842 16220,10852 16212,10860 16202,10860 Z"/>
      </g>
     </g>
     <g class="com.sun.star.drawing.ClosedBezierShape">
      <g id="id10">
       <path fill="rgb(239,48,51)" stroke="none" d="M 16202,11011 C 16192,11011 16183,11003 16183,10993 L 16183,10690 C 16183,10680 16192,10672 16202,10672 16212,10672 16220,10680 16220,10690 L 16220,10993 C 16220,11003 16212,11011 16202,11011 Z"/>
      </g>
     </g>
     <g class="com.sun.star.drawing.ClosedBezierShape">
      <g id="id11">
       <path fill="rgb(239,48,51)" stroke="none" d="M 15615,10128 L 15615,10345 15724,10236 15615,10128 Z M 15597,10406 C 15595,10406 15593,10406 15590,10405 15584,10402 15579,10395 15579,10388 L 15579,10085 C 15579,10078 15584,10072 15590,10069 15597,10066 15605,10068 15610,10073 L 15762,10224 C 15769,10231 15769,10242 15762,10249 L 15610,10401 C 15606,10404 15602,10406 15597,10406 Z"/>
      </g>
     </g>
     <g class="com.sun.star.drawing.ClosedBezierShape">
      <g id="id12">
       <path fill="rgb(239,48,51)" stroke="none" d="M 15748,11010 C 15744,11010 15739,11008 15736,11005 L 15584,10853 C 15577,10846 15577,10835 15584,10828 L 15736,10677 C 15743,10670 15754,10670 15761,10677 15768,10684 15768,10695 15761,10702 L 15621,10840 15761,10980 C 15768,10987 15768,10998 15761,11005 15757,11008 15753,11010 15748,11010 Z"/>
      </g>
     </g>
     <g class="com.sun.star.drawing.ClosedBezierShape">
      <g id="id13">
       <path fill="rgb(239,48,51)" stroke="none" d="M 15447,10407 L 15295,10407 C 15285,10407 15277,10399 15277,10389 L 15277,10086 C 15277,10076 15285,10068 15295,10068 L 15447,10068 C 15457,10068 15465,10076 15465,10086 15465,10096 15457,10104 15447,10104 L 15313,10104 15313,10371 15447,10371 C 15457,10371 15465,10379 15465,10389 15465,10399 15457,10407 15447,10407 Z"/>
      </g>
     </g>
     <g class="com.sun.star.drawing.ClosedBezierShape">
      <g id="id14">
       <path fill="rgb(239,48,51)" stroke="none" d="M 15447,10256 L 15295,10256 C 15285,10256 15277,10248 15277,10237 15277,10227 15285,10219 15295,10219 L 15447,10219 C 15457,10219 15465,10227 15465,10237 15465,10248 15457,10256 15447,10256 Z"/>
      </g>
     </g>
     <g class="com.sun.star.drawing.ClosedBezierShape">
      <g id="id15">
       <path fill="rgb(239,48,51)" stroke="none" d="M 15447,11011 L 15295,11011 C 15285,11011 15277,11003 15277,10993 L 15277,10690 C 15277,10680 15285,10672 15295,10672 L 15447,10672 C 15457,10672 15465,10680 15465,10690 15465,10700 15457,10708 15447,10708 L 15313,10708 15313,10975 15447,10975 C 15457,10975 15465,10983 15465,10993 15465,11003 15457,11011 15447,11011 Z"/>
      </g>
     </g>
     <g class="com.sun.star.drawing.ClosedBezierShape">
      <g id="id16">
       <path fill="rgb(239,48,51)" stroke="none" d="M 15447,10860 L 15295,10860 C 15285,10860 15277,10852 15277,10842 15277,10831 15285,10823 15295,10823 L 15447,10823 C 15457,10823 15465,10831 15465,10842 15465,10852 15457,10860 15447,10860 Z"/>
      </g>
     </g>
     <g class="com.sun.star.drawing.ClosedBezierShape">
      <g id="id17">
       <path fill="rgb(239,48,51)" stroke="none" d="M 15145,10406 C 15135,10406 15127,10398 15127,10388 L 15127,10128 15007,10249 C 15000,10256 14988,10256 14981,10249 L 14860,10128 14860,10388 C 14860,10398 14852,10406 14842,10406 14832,10406 14824,10398 14824,10388 L 14824,10085 C 14824,10078 14829,10072 14835,10069 14842,10066 14850,10068 14855,10073 L 14993,10211 15133,10073 C 15138,10068 15145,10066 15152,10069 15159,10072 15163,10078 15163,10085 L 15163,10388 C 15163,10398 15155,10406 15145,10406 Z"/>
      </g>
     </g>
     <g class="com.sun.star.drawing.ClosedBezierShape">
      <g id="id18">
       <path fill="rgb(239,48,51)" stroke="none" d="M 15937,10407 C 15927,10407 15919,10399 15919,10389 L 15919,10086 C 15919,10076 15927,10068 15937,10068 15948,10068 15956,10076 15956,10086 L 15956,10389 C 15956,10399 15948,10407 15937,10407 Z"/>
      </g>
     </g>
     <g class="com.sun.star.drawing.ClosedBezierShape">
      <g id="id19">
       <path fill="rgb(239,48,51)" stroke="none" d="M 16830,10840 L 16956,10967 17083,10840 16956,10714 16830,10840 Z M 16956,11010 C 16952,11010 16946,11008 16942,11005 L 16792,10853 C 16786,10846 16786,10835 16792,10828 L 16942,10677 C 16949,10670 16962,10670 16969,10677 L 17121,10828 C 17128,10835 17128,10846 17121,10853 L 16969,11005 C 16965,11008 16961,11010 16956,11010 Z"/>
      </g>
     </g>
     <g class="com.sun.star.drawing.ClosedBezierShape">
      <g id="id20">
       <path fill="rgb(239,48,51)" stroke="none" d="M 17585,10840 L 17712,10967 17838,10840 17712,10714 17585,10840 Z M 17712,11010 C 17707,11010 17703,11008 17699,11005 L 17547,10853 C 17541,10846 17541,10835 17547,10828 L 17699,10677 C 17706,10670 17718,10670 17725,10677 L 17876,10828 C 17882,10835 17882,10846 17876,10853 L 17725,11005 C 17721,11008 17717,11010 17712,11010 Z"/>
      </g>
     </g>
     <g class="com.sun.star.drawing.ClosedBezierShape">
      <g id="id21">
       <path fill="rgb(239,48,51)" stroke="none" d="M 16655,11011 C 16650,11011 16646,11009 16642,11006 L 16371,10733 16371,10993 C 16371,11003 16363,11011 16353,11011 16342,11011 16334,11003 16334,10993 L 16334,10690 C 16334,10683 16339,10677 16346,10674 16353,10671 16361,10673 16366,10678 L 16637,10949 16637,10690 C 16637,10680 16645,10672 16655,10672 16665,10672 16673,10680 16673,10690 L 16673,10993 C 16673,11000 16668,11007 16662,11010 16660,11010 16657,11011 16655,11011 Z"/>
      </g>
     </g>
     <g class="com.sun.star.drawing.ClosedBezierShape">
      <g id="id22">
       <path fill="rgb(239,48,51)" stroke="none" d="M 18618,10859 C 18613,10859 18609,10857 18605,10854 L 18453,10703 C 18446,10696 18446,10684 18453,10677 18460,10670 18472,10670 18479,10677 L 18630,10829 C 18637,10836 18637,10847 18630,10854 18627,10857 18622,10859 18618,10859 Z"/>
      </g>
     </g>
     <g class="com.sun.star.drawing.ClosedBezierShape">
      <g id="id23">
       <path fill="rgb(239,48,51)" stroke="none" d="M 18466,11010 C 18461,11010 18457,11008 18453,11005 18446,10998 18446,10987 18453,10980 L 18756,10677 C 18763,10670 18775,10670 18781,10677 18788,10684 18788,10695 18781,10702 L 18479,11005 C 18475,11008 18470,11010 18466,11010 Z"/>
      </g>
     </g>
     <g class="com.sun.star.drawing.ClosedBezierShape">
      <g id="id24">
       <path fill="rgb(239,48,51)" stroke="none" d="M 14993,11010 C 14983,11010 14975,11002 14975,10992 L 14975,10689 C 14975,10682 14980,10676 14986,10673 14993,10670 15001,10672 15006,10677 L 15157,10828 C 15165,10835 15165,10846 15157,10853 15150,10860 15139,10860 15132,10853 L 15011,10732 15011,10992 C 15011,11002 15003,11010 14993,11010 Z"/>
      </g>
     </g>
     <g class="com.sun.star.drawing.ClosedBezierShape">
      <g id="id25">
       <path fill="rgb(239,48,51)" stroke="none" d="M 14993,11010 C 14983,11010 14975,11002 14975,10992 L 14975,10732 14854,10853 C 14847,10860 14836,10860 14829,10853 14822,10846 14822,10835 14829,10828 L 14981,10677 C 14986,10672 14993,10670 15000,10673 15007,10676 15011,10682 15011,10689 L 15011,10992 C 15011,11002 15003,11010 14993,11010 Z"/>
      </g>
     </g>
     <g class="com.sun.star.drawing.ClosedBezierShape">
      <g id="id26">
       <path fill="rgb(239,48,51)" stroke="none" d="M 17410,11011 L 17258,11011 C 17248,11011 17240,11003 17240,10993 L 17240,10690 C 17240,10680 17248,10672 17258,10672 17268,10672 17276,10680 17276,10690 L 17276,10975 17410,10975 C 17420,10975 17428,10983 17428,10993 17428,11003 17420,11011 17410,11011 Z"/>
      </g>
     </g>
     <g class="com.sun.star.drawing.ClosedBezierShape">
      <g id="id27">
       <path fill="rgb(239,48,51)" stroke="none" d="M 14994,11615 L 14842,11615 C 14832,11615 14824,11607 14824,11597 L 14824,11295 C 14824,11284 14832,11276 14842,11276 14852,11276 14860,11284 14860,11295 L 14860,11579 14994,11579 C 15004,11579 15012,11587 15012,11597 15012,11607 15004,11615 14994,11615 Z"/>
      </g>
     </g>
     <g class="com.sun.star.drawing.ClosedBezierShape">
      <g id="id28">
       <path fill="rgb(239,48,51)" stroke="none" d="M 18165,11010 C 18160,11010 18156,11008 18152,11005 L 18000,10853 C 17993,10846 17993,10835 18000,10828 L 18152,10677 C 18159,10670 18171,10670 18178,10677 18184,10684 18184,10695 18178,10702 L 18039,10840 18165,10967 18273,10858 18165,10858 C 18155,10858 18147,10850 18147,10840 18147,10830 18155,10822 18165,10822 L 18316,10822 C 18323,10822 18330,10827 18332,10833 18335,10840 18334,10848 18329,10853 L 18178,11005 C 18174,11008 18170,11010 18165,11010 Z"/>
      </g>
     </g>
     <g class="com.sun.star.drawing.ClosedBezierShape">
      <g id="id29">
       <path fill="rgb(239,48,51)" stroke="none" d="M 16126,10406 C 16116,10406 16108,10398 16108,10388 L 16108,10085 C 16108,10078 16112,10072 16119,10069 16125,10066 16133,10068 16138,10073 L 16441,10376 C 16448,10383 16448,10394 16441,10401 16434,10408 16423,10408 16416,10401 L 16143,10128 16143,10388 C 16143,10398 16135,10406 16126,10406 Z"/>
      </g>
     </g>
     <g class="com.sun.star.drawing.ClosedBezierShape">
      <g id="id30">
       <path fill="rgb(239,48,51)" stroke="none" d="M 16353,10331 L 16126,10331 C 16116,10331 16108,10324 16108,10314 16108,10303 16116,10295 16126,10295 L 16353,10295 C 16363,10295 16371,10303 16371,10314 16371,10324 16363,10331 16353,10331 Z"/>
      </g>
     </g>
     <g class="com.sun.star.drawing.ClosedBezierShape">
      <g id="id31">
       <path fill="rgb(239,48,51)" stroke="none" d="M 15446,11614 C 15436,11614 15428,11606 15428,11596 L 15428,11337 15156,11609 C 15149,11616 15138,11616 15131,11609 15124,11602 15124,11591 15131,11584 L 15434,11281 C 15439,11276 15446,11274 15453,11277 15460,11280 15464,11286 15464,11294 L 15464,11596 C 15464,11606 15456,11614 15446,11614 Z"/>
      </g>
     </g>
     <g class="com.sun.star.drawing.ClosedBezierShape">
      <g id="id32">
       <path fill="rgb(239,48,51)" stroke="none" d="M 15447,11539 L 15220,11539 C 15210,11539 15202,11530 15202,11521 15202,11511 15210,11503 15220,11503 L 15447,11503 C 15457,11503 15465,11511 15465,11521 15465,11530 15457,11539 15447,11539 Z"/>
      </g>
     </g>
     <g class="com.sun.star.drawing.ClosedBezierShape">
      <g id="id33">
       <path fill="rgb(239,48,51)" stroke="none" d="M 15615,11579 L 15857,11579 15737,11459 C 15733,11455 15731,11451 15731,11446 L 15731,11313 15615,11313 15615,11579 Z M 15900,11615 L 15597,11615 C 15587,11615 15579,11607 15579,11597 L 15579,11295 C 15579,11284 15587,11276 15597,11276 L 15749,11276 C 15759,11276 15767,11284 15767,11295 L 15767,11439 15913,11585 C 15918,11590 15919,11597 15917,11604 15914,11611 15907,11615 15900,11615 Z"/>
      </g>
     </g>
     <g class="com.sun.star.drawing.ClosedBezierShape">
      <g id="id34">
       <path fill="rgb(239,48,51)" stroke="none" d="M 15749,11465 L 15597,11465 C 15587,11465 15579,11456 15579,11446 15579,11436 15587,11427 15597,11427 L 15749,11427 C 15759,11427 15767,11436 15767,11446 15767,11456 15759,11465 15749,11465 Z"/>
      </g>
     </g>
    </g>
   </g>
  </g>
 </g>
</svg>