<?xml version="1.0" encoding="UTF-8"?>

<svg version="1.2" baseProfile="tiny" width="147.77mm" height="51.89mm" viewBox="2971 5926 14777 5189" preserveAspectRatio="xMidYMid" fill-rule="evenodd" stroke-width="28.222" stroke-linejoin="round" xmlns="http://www.w3.org/2000/svg" xmlns:ooo="http://xml.openoffice.org/svg/export" xmlns:xlink="http://www.w3.org/1999/xlink" xml:space="preserve">
 <defs class="ClipPathGroup">
  <clipPath id="presentation_clip_path" clipPathUnits="userSpaceOnUse">
   <rect x="2971" y="5926" width="14777" height="5189"/>
  </clipPath>
 </defs>
 <defs class="TextShapeIndex">
  <g ooo:slide="id1" ooo:id-list="id3 id4 id5 id6 id7 id8 id9 id10 id11 id12 id13 id14 id15 id16 id17 id18 id19 id20 id21 id22 id23 id24 id25 id26"/>
 </defs>
 <defs class="EmbeddedBulletChars">
  <g id="bullet-char-template(57356)" transform="scale(0.00048828125,-0.00048828125)">
   <path d="M 580,1141 L 1163,571 580,0 -4,571 580,1141 Z"/>
  </g>
  <g id="bullet-char-template(57354)" transform="scale(0.00048828125,-0.00048828125)">
   <path d="M 8,1128 L 1137,1128 1137,0 8,0 8,1128 Z"/>
  </g>
  <g id="bullet-char-template(10146)" transform="scale(0.00048828125,-0.00048828125)">
   <path d="M 174,0 L 602,739 174,1481 1456,739 174,0 Z M 1358,739 L 309,1346 659,739 1358,739 Z"/>
  </g>
  <g id="bullet-char-template(10132)" transform="scale(0.00048828125,-0.00048828125)">
   <path d="M 2015,739 L 1276,0 717,0 1260,543 174,543 174,936 1260,936 717,1481 1274,1481 2015,739 Z"/>
  </g>
  <g id="bullet-char-template(10007)" transform="scale(0.00048828125,-0.00048828125)">
   <path d="M 0,-2 C -7,14 -16,27 -25,37 L 356,567 C 262,823 215,952 215,954 215,979 228,992 255,992 264,992 276,990 289,987 310,991 331,999 354,1012 L 381,999 492,748 772,1049 836,1024 860,1049 C 881,1039 901,1025 922,1006 886,937 835,863 770,784 769,783 710,716 594,584 L 774,223 C 774,196 753,168 711,139 L 727,119 C 717,90 699,76 672,76 641,76 570,178 457,381 L 164,-76 C 142,-110 111,-127 72,-127 30,-127 9,-110 8,-76 1,-67 -2,-52 -2,-32 -2,-23 -1,-13 0,-2 Z"/>
  </g>
  <g id="bullet-char-template(10004)" transform="scale(0.00048828125,-0.00048828125)">
   <path d="M 285,-33 C 182,-33 111,30 74,156 52,228 41,333 41,471 41,549 55,616 82,672 116,743 169,778 240,778 293,778 328,747 346,684 L 369,508 C 377,444 397,411 428,410 L 1163,1116 C 1174,1127 1196,1133 1229,1133 1271,1133 1292,1118 1292,1087 L 1292,965 C 1292,929 1282,901 1262,881 L 442,47 C 390,-6 338,-33 285,-33 Z"/>
  </g>
  <g id="bullet-char-template(9679)" transform="scale(0.00048828125,-0.00048828125)">
   <path d="M 813,0 C 632,0 489,54 383,161 276,268 223,411 223,592 223,773 276,916 383,1023 489,1130 632,1184 813,1184 992,1184 1136,1130 1245,1023 1353,916 1407,772 1407,592 1407,412 1353,268 1245,161 1136,54 992,0 813,0 Z"/>
  </g>
  <g id="bullet-char-template(8226)" transform="scale(0.00048828125,-0.00048828125)">
   <path d="M 346,457 C 273,457 209,483 155,535 101,586 74,649 74,723 74,796 101,859 155,911 209,963 273,989 346,989 419,989 480,963 531,910 582,859 608,796 608,723 608,648 583,586 532,535 482,483 420,457 346,457 Z"/>
  </g>
  <g id="bullet-char-template(8211)" transform="scale(0.00048828125,-0.00048828125)">
   <path d="M -4,459 L 1135,459 1135,606 -4,606 -4,459 Z"/>
  </g>
 </defs>
 <defs class="TextEmbeddedBitmaps"/>
 <g class="SlideGroup">
  <g>
   <g id="id1" class="Slide" clip-path="url(#presentation_clip_path)">
    <g class="Page">
     <g class="com.sun.star.drawing.ClosedBezierShape">
      <g id="id3">
       <path fill="rgb(177,25,29)" stroke="none" d="M 10682,7846 L 10557,7846 10557,7927 10682,7927 10682,7846 Z M 10523,7846 L 10402,7846 10402,7927 10523,7927 10523,7846 Z M 10555,7760 L 10372,7760 10372,7816 10555,7816 10555,7760 Z M 10367,7846 L 10249,7846 10249,7927 10367,7927 10367,7846 Z M 10372,8134 C 10418,8164 10462,8206 10478,8229 10569,8192 10613,8136 10631,8112 L 10359,8112 C 10347,8120 10303,8149 10210,8182 L 10189,8149 C 10342,8105 10379,8058 10398,8032 L 10201,8032 10201,8122 10163,8122 10163,8000 10766,8000 10766,8122 10729,8122 10729,8032 10446,8032 C 10433,8048 10420,8063 10399,8082 L 10678,8082 10678,8111 C 10596,8234 10462,8304 10204,8318 L 10195,8280 C 10280,8277 10358,8267 10443,8241 10415,8208 10384,8179 10349,8156 L 10372,8134 Z M 10336,7728 L 10336,7674 10372,7674 10372,7728 10555,7728 10555,7674 10593,7674 10593,7728 10787,7728 10787,7760 10593,7760 10593,7816 10717,7816 10717,7958 10215,7958 10215,7816 10336,7816 10336,7760 10145,7760 10145,7728 10336,7728 Z"/>
      </g>
     </g>
     <g class="com.sun.star.drawing.ClosedBezierShape">
      <g id="id4">
       <path fill="rgb(177,25,29)" stroke="none" d="M 11189,7679 C 11185,7702 11182,7721 11170,7766 L 11486,7766 11486,7805 11158,7805 C 11130,7886 11110,7916 11099,7931 11121,7914 11168,7878 11236,7878 11323,7878 11333,7939 11338,7971 11445,7928 11457,7923 11527,7896 L 11542,7939 C 11475,7961 11405,7984 11343,8009 11346,8040 11347,8081 11347,8108 11347,8118 11347,8136 11344,8155 L 11302,8155 C 11304,8135 11305,8119 11305,8084 11305,8079 11305,8053 11304,8027 11213,8068 11131,8121 11131,8182 11131,8253 11232,8253 11305,8253 11403,8253 11469,8246 11500,8242 L 11504,8284 C 11467,8288 11410,8294 11324,8294 11248,8294 11091,8294 11091,8185 11091,8097 11196,8032 11300,7987 11294,7955 11287,7912 11230,7912 11159,7912 11092,7978 11083,7986 11074,7997 10989,8108 10969,8129 L 10939,8095 C 10976,8060 11051,7990 11113,7805 L 10953,7805 10953,7766 11125,7766 C 11138,7722 11140,7699 11142,7678 L 11189,7679 Z"/>
      </g>
     </g>
     <g class="com.sun.star.drawing.ClosedBezierShape">
      <g id="id5">
       <path fill="rgb(177,25,29)" stroke="none" d="M 12025,7674 L 12025,7734 12306,7734 12306,7871 12266,7871 12266,7767 11741,7767 11741,7871 11702,7871 11702,7734 11984,7734 11984,7674 12025,7674 Z M 11758,7883 L 11758,7851 11984,7851 11984,7796 12024,7796 12024,7851 12252,7851 12252,7883 12024,7883 12024,7960 12252,7960 12252,7992 12023,7992 C 12023,8016 12022,8038 12012,8075 L 12325,8075 12325,8108 12042,8108 C 12089,8196 12163,8245 12324,8280 L 12310,8316 C 12122,8273 12050,8201 12003,8108 L 12000,8108 C 11947,8237 11799,8289 11702,8312 L 11682,8276 C 11896,8229 11938,8152 11958,8108 L 11683,8108 11683,8075 11971,8075 C 11980,8044 11983,8018 11984,7992 L 11758,7992 11758,7960 11984,7960 11984,7883 11758,7883 Z"/>
      </g>
     </g>
     <g class="com.sun.star.drawing.ClosedBezierShape">
      <g id="id6">
       <path fill="rgb(177,25,29)" stroke="none" d="M 13031,7964 L 12742,7964 12742,8049 13031,8049 13031,7964 Z M 13031,7848 L 12742,7848 12742,7932 13031,7932 13031,7848 Z M 13031,7732 L 12742,7732 12742,7816 13031,7816 13031,7732 Z M 13069,7697 L 13069,8082 12953,8082 12953,8254 C 12953,8269 12956,8271 12972,8271 L 13018,8271 C 13039,8271 13044,8270 13046,8264 13051,8252 13053,8212 13056,8164 L 13097,8175 C 13087,8291 13086,8307 13027,8307 L 12962,8307 C 12925,8307 12914,8288 12914,8258 L 12914,8082 12837,8082 C 12816,8198 12764,8270 12611,8315 L 12593,8279 C 12716,8242 12784,8196 12800,8082 L 12705,8082 12705,7697 13069,7697 Z M 12681,8165 C 12614,8189 12539,8205 12455,8223 L 12451,8184 C 12474,8180 12492,8177 12541,8166 L 12541,7961 12459,7961 12459,7926 12541,7926 12541,7747 12459,7747 12459,7712 12674,7712 12674,7747 12580,7747 12580,7926 12659,7926 12659,7961 12580,7961 12580,8157 C 12609,8149 12654,8138 12678,8127 L 12681,8165 Z"/>
      </g>
     </g>
     <g class="com.sun.star.drawing.ClosedBezierShape">
      <g id="id7">
       <path fill="rgb(177,25,29)" stroke="none" d="M 13609,7988 C 13609,7983 13595,7912 13514,7912 13459,7912 13408,7946 13408,8016 13408,8054 13429,8121 13501,8121 13522,8121 13545,8115 13566,8102 13597,8084 13609,8034 13609,8023 L 13609,7988 Z M 13606,7686 L 13649,7686 13649,7774 13842,7774 13842,7813 13649,7813 13649,7958 C 13653,7969 13655,7983 13659,8002 13662,8021 13664,8042 13664,8068 13664,8197 13592,8289 13377,8299 L 13363,8258 C 13613,8261 13627,8124 13634,8066 13623,8093 13597,8158 13498,8158 13403,8158 13366,8082 13366,8020 13366,7948 13411,7873 13514,7873 13573,7873 13598,7900 13609,7911 L 13608,7813 13237,7813 13237,7774 13607,7774 13606,7686 Z"/>
      </g>
     </g>
     <g class="com.sun.star.drawing.ClosedBezierShape">
      <g id="id8">
       <path fill="rgb(177,25,29)" stroke="none" d="M 14355,8210 C 14355,8166 14322,8110 14255,8110 14208,8110 14170,8138 14170,8182 14170,8259 14300,8261 14340,8259 14347,8247 14355,8233 14355,8210 Z M 14460,7702 L 14460,7740 C 14439,7758 14392,7796 14365,7821 14278,7900 14268,7909 14240,7932 14276,7916 14322,7897 14390,7897 14526,7897 14580,7994 14580,8083 14580,8117 14572,8294 14320,8294 14243,8294 14208,8282 14180,8265 14153,8248 14131,8218 14131,8180 14131,8112 14195,8074 14256,8074 14350,8074 14396,8150 14396,8206 14396,8228 14390,8242 14383,8256 14490,8236 14538,8163 14538,8084 14538,7984 14471,7933 14379,7933 14301,7933 14225,7967 14177,8005 14154,8023 14072,8106 14046,8138 L 14007,8108 C 14041,8080 14180,7943 14209,7916 14239,7888 14371,7766 14397,7740 L 14068,7744 14068,7702 14460,7702 Z"/>
      </g>
     </g>
     <g class="com.sun.star.drawing.ClosedBezierShape">
      <g id="id9">
       <path fill="rgb(177,25,29)" stroke="none" d="M 15306,7744 C 15306,7768 15325,7787 15348,7787 15372,7787 15390,7767 15390,7744 15390,7720 15371,7702 15348,7702 15326,7702 15306,7720 15306,7744 Z M 14868,8250 C 15258,8202 15294,7890 15304,7802 L 14799,7802 14799,7762 15278,7762 C 15276,7758 15275,7754 15275,7744 15275,7702 15310,7671 15348,7671 15389,7671 15421,7703 15421,7744 15421,7782 15392,7817 15347,7817 15329,7943 15282,8225 14882,8292 L 14868,8250 Z"/>
      </g>
     </g>
     <g class="com.sun.star.drawing.PolyPolygonShape">
      <g id="id10">
       <path fill="rgb(177,25,29)" stroke="none" d="M 16080,7790 L 15620,7790 15620,8203 16080,8203 16080,7790 Z M 16122,8244 L 15578,8244 15578,7749 16122,7749 16122,8244 Z"/>
      </g>
     </g>
     <g class="com.sun.star.drawing.ClosedBezierShape">
      <g id="id11">
       <path fill="rgb(177,25,29)" stroke="none" d="M 16616,7962 L 16427,7962 16427,8023 16616,8023 16616,7962 Z M 16616,7873 L 16427,7873 16427,7931 16616,7931 16616,7873 Z M 16436,7780 C 16429,7788 16429,7789 16427,7792 L 16427,7842 16616,7842 16616,7780 16436,7780 Z M 16616,7749 C 16627,7723 16634,7703 16641,7677 L 16682,7686 C 16673,7707 16671,7711 16653,7749 L 16907,7749 16907,7780 16653,7780 16653,7842 16890,7842 16890,7873 16653,7873 16653,7931 16890,7931 16890,7962 16653,7962 16653,8023 16927,8023 16927,8056 16637,8056 16637,8115 16939,8115 16939,8147 16671,8147 C 16761,8216 16835,8241 16944,8266 L 16924,8303 C 16752,8254 16682,8205 16637,8162 L 16637,8317 16598,8317 16598,8166 C 16537,8220 16425,8277 16308,8303 L 16291,8266 C 16407,8242 16511,8192 16567,8147 L 16299,8147 16299,8115 16598,8115 16598,8056 16389,8056 16389,7837 C 16355,7875 16330,7891 16310,7904 L 16288,7871 C 16365,7823 16423,7747 16450,7674 L 16488,7684 C 16481,7702 16472,7723 16456,7749 L 16616,7749 Z"/>
      </g>
     </g>
     <g class="com.sun.star.drawing.ClosedBezierShape">
      <g id="id12">
       <path fill="rgb(177,25,29)" stroke="none" d="M 17234,7953 C 17282,8004 17322,8053 17351,8105 L 17317,8127 C 17278,8055 17222,7993 17206,7974 L 17234,7953 Z M 17509,8164 C 17509,8207 17491,8214 17463,8214 L 17370,8214 17362,8173 17457,8175 C 17472,8175 17472,8166 17472,8158 L 17472,7909 17161,7909 17161,7874 17472,7874 17472,7772 17509,7772 17509,7874 17607,7874 17607,7909 17509,7909 17509,8164 Z M 17131,8253 L 17639,8253 17639,7742 17131,7742 17131,8253 Z M 17680,7706 L 17680,8317 17639,8317 17639,8288 17131,8288 17131,8317 17091,8317 17091,7706 17680,7706 Z"/>
      </g>
     </g>
     <g class="com.sun.star.drawing.ClosedBezierShape">
      <g id="id13">
       <path fill="rgb(35,31,32)" stroke="none" d="M 8059,9645 L 7834,9645 7834,8989 8076,8989 C 8182,8989 8256,9004 8300,9034 8345,9064 8378,9100 8401,9144 8424,9188 8435,9238 8435,9293 8435,9357 8421,9417 8392,9473 8363,9529 8324,9572 8275,9601 8226,9630 8154,9645 8059,9645 Z M 8453,9940 C 8426,9898 8402,9867 8383,9848 8364,9829 8335,9808 8297,9787 8399,9747 8474,9700 8522,9649 8570,9598 8608,9540 8634,9477 8661,9413 8674,9347 8674,9278 8674,9192 8654,9113 8615,9039 8575,8966 8522,8910 8454,8871 8386,8832 8285,8813 8151,8813 L 7602,8813 7602,10584 7834,10584 7834,9822 8066,9822 C 8162,9907 8239,10006 8298,10118 L 8543,10584 8806,10584 8525,10060 C 8505,10023 8481,9983 8453,9940 Z"/>
      </g>
     </g>
     <g class="com.sun.star.drawing.PolyPolygonShape">
      <g id="id14">
       <path fill="rgb(35,31,32)" stroke="none" d="M 8811,9870 L 9521,9870 9521,9693 8811,9693 8811,9870 Z"/>
      </g>
     </g>
     <g class="com.sun.star.drawing.PolyPolygonShape">
      <g id="id15">
       <path fill="rgb(35,31,32)" stroke="none" d="M 9716,10584 L 9929,10584 9929,8743 9716,8743 9716,10584 Z"/>
      </g>
     </g>
     <g class="com.sun.star.drawing.ClosedBezierShape">
      <g id="id16">
       <path fill="rgb(35,31,32)" stroke="none" d="M 11038,9814 L 10369,9814 C 10391,9699 10434,9610 10499,9546 10563,9483 10634,9451 10711,9451 10776,9451 10833,9465 10882,9492 10931,9519 10969,9560 10996,9616 11024,9672 11038,9729 11038,9788 L 11038,9814 Z M 10991,9337 C 10914,9296 10828,9275 10734,9275 10561,9275 10421,9339 10310,9468 10201,9597 10146,9759 10146,9955 10146,10147 10198,10305 10301,10431 10406,10556 10552,10619 10743,10619 10837,10619 10920,10604 10992,10573 11065,10543 11123,10498 11167,10440 11211,10381 11233,10324 11233,10268 L 11233,10256 11021,10256 11021,10268 C 11021,10312 11000,10352 10958,10388 10916,10424 10850,10442 10759,10442 10634,10442 10535,10398 10464,10310 10393,10222 10356,10110 10356,9973 L 11241,9973 11241,9902 C 11241,9744 11219,9621 11174,9533 11129,9444 11068,9379 10991,9337 Z"/>
      </g>
     </g>
     <g class="com.sun.star.drawing.ClosedBezierShape">
      <g id="id17">
       <path fill="rgb(35,31,32)" stroke="none" d="M 12226,10066 C 12226,10144 12211,10211 12180,10269 12149,10327 12106,10373 12051,10408 11995,10442 11939,10459 11882,10459 11848,10459 11815,10451 11781,10436 11748,10420 11722,10397 11705,10368 11688,10339 11680,10308 11680,10275 11680,10209 11708,10153 11766,10106 11824,10058 11957,10008 12164,9956 L 12226,9940 12226,10066 Z M 12437,10206 L 12437,9710 C 12437,9575 12420,9483 12386,9434 12351,9385 12297,9346 12223,9317 12149,9288 12066,9273 11975,9273 11884,9273 11799,9289 11722,9319 11645,9349 11583,9395 11537,9455 11490,9515 11467,9573 11467,9629 L 11467,9646 11698,9646 11698,9628 C 11698,9576 11722,9531 11769,9492 11817,9453 11884,9434 11969,9434 12039,9434 12100,9450 12150,9481 12201,9513 12226,9568 12226,9646 L 12226,9790 12115,9811 C 11871,9860 11699,9917 11599,9984 11500,10051 11450,10147 11450,10270 11450,10379 11485,10464 11556,10526 11626,10588 11711,10619 11810,10619 11869,10619 11930,10607 11994,10582 12059,10558 12136,10500 12226,10408 12226,10457 12237,10516 12259,10584 L 12482,10584 C 12457,10505 12444,10436 12441,10376 12438,10317 12437,10260 12437,10206 Z"/>
      </g>
     </g>
     <g class="com.sun.star.drawing.ClosedBezierShape">
      <g id="id18">
       <path fill="rgb(35,31,32)" stroke="none" d="M 13193,9303 C 13145,9321 13100,9348 13057,9384 13015,9420 12975,9470 12939,9535 L 12939,9309 12726,9309 12726,10584 12939,10584 12939,9955 C 12939,9776 12978,9653 13055,9583 13132,9513 13211,9478 13293,9478 13351,9478 13406,9490 13457,9514 L 13457,9294 C 13424,9281 13385,9275 13340,9275 13290,9275 13241,9284 13193,9303 Z"/>
      </g>
     </g>
     <g class="com.sun.star.drawing.ClosedBezierShape">
      <g id="id19">
       <path fill="rgb(35,31,32)" stroke="none" d="M 14415,9324 C 14352,9291 14280,9275 14200,9275 14144,9275 14091,9283 14045,9301 14000,9317 13955,9343 13913,9376 13871,9410 13827,9461 13782,9530 L 13782,9309 13570,9309 13570,10584 13782,10584 13782,9959 C 13782,9837 13799,9743 13833,9677 13867,9612 13912,9561 13968,9525 14025,9488 14084,9470 14147,9470 14199,9470 14247,9483 14291,9510 14335,9537 14365,9574 14380,9622 14395,9669 14403,9750 14403,9865 L 14403,10584 14615,10584 14615,9773 C 14615,9633 14598,9532 14563,9468 14528,9404 14479,9356 14415,9324 Z"/>
      </g>
     </g>
     <g class="com.sun.star.drawing.PolyPolygonShape">
      <g id="id20">
       <path fill="rgb(35,31,32)" stroke="none" d="M 14874,9027 L 15088,9027 15088,8813 14874,8813 14874,9027 Z"/>
      </g>
     </g>
     <g class="com.sun.star.drawing.PolyPolygonShape">
      <g id="id21">
       <path fill="rgb(35,31,32)" stroke="none" d="M 14874,10584 L 15088,10584 15088,9309 14874,9309 14874,10584 Z"/>
      </g>
     </g>
     <g class="com.sun.star.drawing.ClosedBezierShape">
      <g id="id22">
       <path fill="rgb(35,31,32)" stroke="none" d="M 16210,9324 C 16145,9291 16074,9275 15994,9275 15937,9275 15886,9283 15840,9301 15794,9317 15750,9343 15708,9376 15666,9410 15622,9461 15577,9530 L 15577,9309 15365,9309 15365,10584 15577,10584 15577,9959 C 15577,9837 15594,9743 15628,9677 15662,9612 15707,9561 15763,9525 15819,9488 15879,9470 15941,9470 15993,9470 16041,9483 16085,9510 16129,9537 16159,9574 16174,9622 16190,9669 16198,9750 16198,9865 L 16198,10584 16410,10584 16410,9773 C 16410,9633 16393,9532 16358,9468 16323,9404 16273,9356 16210,9324 Z"/>
      </g>
     </g>
     <g class="com.sun.star.drawing.ClosedBezierShape">
      <g id="id23">
       <path fill="rgb(35,31,32)" stroke="none" d="M 17436,10275 C 17369,10370 17283,10417 17176,10417 17110,10417 17048,10398 16990,10361 16931,10323 16889,10268 16861,10195 16834,10122 16820,10036 16820,9938 16820,9784 16854,9664 16923,9579 16991,9494 17077,9451 17180,9451 17278,9451 17361,9493 17431,9578 17501,9662 17535,9772 17535,9909 17535,10058 17503,10180 17436,10275 Z M 17535,9309 L 17535,9514 C 17472,9418 17408,9353 17345,9322 17282,9291 17211,9275 17131,9275 17024,9275 16930,9301 16851,9352 16771,9404 16709,9482 16665,9587 16620,9692 16598,9808 16598,9936 16598,10131 16647,10287 16746,10406 16845,10525 16970,10584 17121,10584 17216,10584 17298,10562 17367,10517 17436,10472 17492,10405 17535,10315 L 17535,10468 C 17535,10623 17519,10730 17486,10789 17453,10848 17409,10890 17355,10917 17301,10943 17236,10956 17160,10956 17066,10956 16990,10939 16929,10905 16868,10871 16838,10826 16838,10770 L 16838,10752 16624,10752 16624,10771 C 16624,10829 16646,10886 16690,10940 16734,10994 16797,11037 16880,11068 16963,11100 17057,11115 17162,11115 17275,11115 17374,11095 17458,11055 17542,11014 17611,10952 17666,10869 17721,10785 17748,10613 17748,10351 L 17748,9309 17535,9309 Z"/>
      </g>
     </g>
     <g class="com.sun.star.drawing.ClosedBezierShape">
      <g id="id24">
       <path fill="rgb(177,25,29)" stroke="none" d="M 6917,8133 C 6707,8133 6537,8303 6537,8512 6537,8723 6707,8892 6917,8892 7126,8892 7297,8723 7297,8512 7297,8303 7126,8133 6917,8133 Z"/>
      </g>
     </g>
     <g class="com.sun.star.drawing.ClosedBezierShape">
      <g id="id25">
       <path fill="rgb(177,25,29)" stroke="none" d="M 2971,6479 L 2971,10591 4480,10591 4480,7808 4990,7808 4990,8350 C 5078,8194 5173,8073 5276,7987 5380,7901 5490,7836 5606,7791 5723,7746 5842,7723 5964,7723 6063,7723 6150,7737 6225,7762 L 6225,5926 3524,5926 C 3218,5926 2971,6174 2971,6479 Z"/>
      </g>
     </g>
     <g class="com.sun.star.drawing.ClosedBezierShape">
      <g id="id26">
       <path fill="rgb(177,25,29)" stroke="none" d="M 5270,8466 C 5083,8635 4989,8935 4989,9365 L 4989,10591 6225,10591 6225,8289 C 6107,8237 5981,8211 5850,8211 5651,8211 5457,8295 5270,8466 Z"/>
      </g>
     </g>
    </g>
   </g>
  </g>
 </g>
</svg>