<?xml version="1.0" encoding="UTF-8"?>

<svg version="1.2" baseProfile="tiny" width="297mm" height="209.99mm" viewBox="0 0 29700 20999" preserveAspectRatio="xMidYMid" fill-rule="evenodd" stroke-width="28.222" stroke-linejoin="round" xmlns="http://www.w3.org/2000/svg" xmlns:ooo="http://xml.openoffice.org/svg/export" xmlns:xlink="http://www.w3.org/1999/xlink" xml:space="preserve">
 <defs class="ClipPathGroup">
  <clipPath id="presentation_clip_path" clipPathUnits="userSpaceOnUse">
   <rect x="0" y="0" width="29700" height="20999"/>
  </clipPath>
 </defs>
 <defs class="TextShapeIndex">
  <g ooo:slide="id1" ooo:id-list="id3 id4 id5 id6 id7"/>
 </defs>
 <defs class="EmbeddedBulletChars">
  <g id="bullet-char-template(57356)" transform="scale(0.00048828125,-0.00048828125)">
   <path d="M 580,1141 L 1163,571 580,0 -4,571 580,1141 Z"/>
  </g>
  <g id="bullet-char-template(57354)" transform="scale(0.00048828125,-0.00048828125)">
   <path d="M 8,1128 L 1137,1128 1137,0 8,0 8,1128 Z"/>
  </g>
  <g id="bullet-char-template(10146)" transform="scale(0.00048828125,-0.00048828125)">
   <path d="M 174,0 L 602,739 174,1481 1456,739 174,0 Z M 1358,739 L 309,1346 659,739 1358,739 Z"/>
  </g>
  <g id="bullet-char-template(10132)" transform="scale(0.00048828125,-0.00048828125)">
   <path d="M 2015,739 L 1276,0 717,0 1260,543 174,543 174,936 1260,936 717,1481 1274,1481 2015,739 Z"/>
  </g>
  <g id="bullet-char-template(10007)" transform="scale(0.00048828125,-0.00048828125)">
   <path d="M 0,-2 C -7,14 -16,27 -25,37 L 356,567 C 262,823 215,952 215,954 215,979 228,992 255,992 264,992 276,990 289,987 310,991 331,999 354,1012 L 381,999 492,748 772,1049 836,1024 860,1049 C 881,1039 901,1025 922,1006 886,937 835,863 770,784 769,783 710,716 594,584 L 774,223 C 774,196 753,168 711,139 L 727,119 C 717,90 699,76 672,76 641,76 570,178 457,381 L 164,-76 C 142,-110 111,-127 72,-127 30,-127 9,-110 8,-76 1,-67 -2,-52 -2,-32 -2,-23 -1,-13 0,-2 Z"/>
  </g>
  <g id="bullet-char-template(10004)" transform="scale(0.00048828125,-0.00048828125)">
   <path d="M 285,-33 C 182,-33 111,30 74,156 52,228 41,333 41,471 41,549 55,616 82,672 116,743 169,778 240,778 293,778 328,747 346,684 L 369,508 C 377,444 397,411 428,410 L 1163,1116 C 1174,1127 1196,1133 1229,1133 1271,1133 1292,1118 1292,1087 L 1292,965 C 1292,929 1282,901 1262,881 L 442,47 C 390,-6 338,-33 285,-33 Z"/>
  </g>
  <g id="bullet-char-template(9679)" transform="scale(0.00048828125,-0.00048828125)">
   <path d="M 813,0 C 632,0 489,54 383,161 276,268 223,411 223,592 223,773 276,916 383,1023 489,1130 632,1184 813,1184 992,1184 1136,1130 1245,1023 1353,916 1407,772 1407,592 1407,412 1353,268 1245,161 1136,54 992,0 813,0 Z"/>
  </g>
  <g id="bullet-char-template(8226)" transform="scale(0.00048828125,-0.00048828125)">
   <path d="M 346,457 C 273,457 209,483 155,535 101,586 74,649 74,723 74,796 101,859 155,911 209,963 273,989 346,989 419,989 480,963 531,910 582,859 608,796 608,723 608,648 583,586 532,535 482,483 420,457 346,457 Z"/>
  </g>
  <g id="bullet-char-template(8211)" transform="scale(0.00048828125,-0.00048828125)">
   <path d="M -4,459 L 1135,459 1135,606 -4,606 -4,459 Z"/>
  </g>
 </defs>
 <defs class="TextEmbeddedBitmaps"/>
 <g>
  <g id="id2" class="Master_Slide">
   <g id="bg-id2" class="Background"/>
   <g id="bo-id2" class="BackgroundObjects"/>
  </g>
 </g>
 <g class="SlideGroup">
  <g>
   <g id="id1" class="Slide" clip-path="url(#presentation_clip_path)">
    <g class="Page">
     <g class="com.sun.star.drawing.ClosedBezierShape">
      <g id="id3">
       <path fill="rgb(183,32,45)" stroke="none" d="M 20974,10204 L 20974,9703 C 20974,9482 21158,9372 21526,9372 L 22189,9372 C 22507,9372 22666,9470 22666,9665 L 22666,9703 20974,10204 Z M 23280,9951 L 23280,9631 C 23280,9169 22982,8939 22387,8939 L 22253,8939 22080,8525 21875,8035 21656,8519 21467,8939 21332,8939 C 20693,8939 20373,9156 20373,9590 L 20373,10804 C 20373,11057 20471,11241 20666,11357 20821,11454 21061,11503 21386,11503 L 23273,11503 23273,11063 21499,11063 C 21326,11063 21204,11045 21134,11009 21032,10947 20981,10850 20981,10715 L 20981,10630 23280,9951 Z"/>
      </g>
     </g>
     <g class="com.sun.star.drawing.ClosedBezierShape">
      <g id="id4">
       <path fill="rgb(98,106,114)" stroke="none" d="M 8967,8591 L 7226,8591 C 6942,8591 6765,8643 6694,8748 6653,8811 6633,8956 6633,9181 6633,9299 6686,9391 6793,9457 6882,9509 7026,9535 7226,9535 L 7947,9535 C 8254,9535 8499,9597 8683,9720 8867,9842 8960,10015 8960,10238 L 8960,10777 C 8960,11011 8865,11191 8677,11316 8488,11441 8230,11503 7902,11503 L 5961,11503 5961,11005 7701,11005 C 7990,11005 8170,10948 8240,10835 8272,10776 8288,10622 8288,10374 8288,10143 8099,10027 7722,10027 L 7001,10027 C 6703,10027 6459,9970 6268,9856 6059,9731 5954,9560 5954,9345 L 5954,8812 C 5954,8574 6068,8383 6295,8242 6454,8142 6685,8092 6988,8092 L 8967,8092 8967,8591 Z"/>
      </g>
     </g>
     <g class="com.sun.star.drawing.ClosedBezierShape">
      <g id="id5">
       <path fill="rgb(98,106,114)" stroke="none" d="M 11595,8971 L 10520,8971 C 9928,8971 9633,9201 9633,9658 L 9633,12567 10234,12567 10234,11731 10234,11544 10234,10998 10234,10611 10234,9764 C 10234,9529 10400,9412 10731,9412 L 11465,9412 C 11785,9412 11946,9517 11946,9726 L 11946,10777 C 11946,10999 11797,11111 11499,11111 L 10564,11111 10564,11544 11659,11544 C 11916,11544 12127,11485 12292,11367 12457,11249 12539,11096 12539,10910 L 12539,9644 C 12539,9196 12224,8971 11595,8971 Z"/>
      </g>
     </g>
     <g class="com.sun.star.drawing.ClosedBezierShape">
      <g id="id6">
       <path fill="rgb(98,106,114)" stroke="none" d="M 14144,10105 L 14144,10534 16119,9951 16119,9631 C 16119,9169 15819,8938 15224,8938 L 14170,8938 C 13531,8938 13212,9156 13212,9590 L 13212,10804 C 13212,11057 13309,11241 13505,11357 13660,11454 13900,11503 14225,11503 L 16112,11503 16112,11063 14337,11063 C 14282,11063 14233,11061 14188,11057 14187,11057 14186,11057 14185,11057 13785,11057 13812,10710 13812,10710 L 13812,10204 13812,10018 13812,9734 13812,9703 C 13812,9482 13996,9372 14365,9372 L 15026,9372 C 15344,9372 15503,9470 15503,9665 L 15503,9703 14144,10105 Z"/>
      </g>
     </g>
     <g class="com.sun.star.drawing.ClosedBezierShape">
      <g id="id7">
       <path fill="rgb(98,106,114)" stroke="none" d="M 17725,10105 L 17725,10534 19699,9951 19699,9631 C 19699,9169 19401,8938 18804,8938 L 17750,8938 C 17111,8938 16792,9156 16792,9590 L 16792,10804 C 16792,11057 16889,11241 17085,11357 17240,11454 17480,11503 17805,11503 L 19692,11503 19692,11063 17917,11063 C 17862,11063 17813,11061 17768,11057 17767,11057 17766,11057 17765,11057 17365,11057 17392,10710 17392,10710 L 17392,10204 17392,10018 17392,9734 17392,9703 C 17392,9482 17576,9372 17945,9372 L 18606,9372 C 18926,9372 19085,9470 19085,9665 L 19085,9703 17725,10105 Z"/>
      </g>
     </g>
    </g>
   </g>
  </g>
 </g>
</svg>