<?xml version="1.0" encoding="utf-8"?>
<!-- Generator: Adobe Illustrator 19.1.0, SVG Export Plug-In . SVG Version: 6.00 Build 0)  -->
<svg version="1.1" xmlns="http://www.w3.org/2000/svg" xmlns:xlink="http://www.w3.org/1999/xlink" x="0px" y="0px"
	 viewBox="0 0 686.9 656.7" style="enable-background:new 0 0 686.9 656.7;" xml:space="preserve">
<style type="text/css">
	.st0{fill:url(#SVGID_1_);}
	.st1{opacity:0.4;fill:#FFFFFF;enable-background:new    ;}
	.st2{fill:url(#SVGID_2_);}
	.st3{opacity:0.69;fill:#FFFFFF;enable-background:new    ;}
	.st4{opacity:0.1;fill:#FFFFFF;enable-background:new    ;}
	.st5{opacity:0.25;fill:#FFFFFF;enable-background:new    ;}
	.st6{fill:#1F1F25;}
</style>
<g id="レイヤー_2">
</g>
<g id="トレジャーデータ">
	<g id="ロゴ赤">
		
			<linearGradient id="SVGID_1_" gradientUnits="userSpaceOnUse" x1="343.3556" y1="950.7994" x2="343.3556" y2="467.1316" gradientTransform="matrix(1 0 0 1 0 -465.9194)">
			<stop  offset="0" style="stop-color:#B800E0"/>
			<stop  offset="1" style="stop-color:#FF0630"/>
		</linearGradient>
		<path class="st0" d="M589.4,4.8c-2.4-2.4-4.8-3.6-8.5-3.6H104.6c-3.6,0-6.1,1.2-8.5,3.6L2.7,103c-3.6,4.8-3.6,10.9,0,15.8
			l332.1,362.4c4.8,4.8,12.1,4.8,15.8,0l0,0L684,118.8c3.6-4.8,3.6-10.9,0-15.8L589.4,4.8z"/>
		<path class="st1" d="M686.4,109.1c0-2.4-1.2-4.8-3.6-7.3L588.2,3.6c-1.2-1.2-2.4-2.4-3.6-2.4L439.1,229.1L686.4,109.1z"/>
		
			<linearGradient id="SVGID_2_" gradientUnits="userSpaceOnUse" x1="439.1194" y1="696.2374" x2="439.1194" y2="696.2374" gradientTransform="matrix(1 0 0 1 0 -465.9194)">
			<stop  offset="0" style="stop-color:#027E97"/>
			<stop  offset="1" style="stop-color:#4BB666"/>
		</linearGradient>
		<path class="st2" d="M439.1,230.3L439.1,230.3L439.1,230.3z"/>
		<path class="st3" d="M686.4,109.1L437.9,230.3l-95.8,254.6c3.6,0,6.1-1.2,8.5-3.6L684,117.6C686.4,115.2,687.6,111.5,686.4,109.1z
			"/>
		<path class="st4" d="M102.1,1.2c-1.2,0-3.6,1.2-4.8,2.4L3.9,101.8l0,0l-3.6,7.3c0-1.2,0-2.4,1.2-2.4c-1.2,1.2-1.2,2.4-1.2,3.6
			l438.8,118.8L102.1,1.2z"/>
		<path class="st5" d="M585.8,1.2C584.6,0,583.4,0,580.9,0H104.6c-1.2,0-2.4,0-3.6,0l338.2,229.1L585.8,1.2z"/>
	</g>
	<polygon class="st6" points="77.3,580.9 77.3,588.5 54.9,588.5 54.9,655.2 46.1,655.2 46.1,588.5 23.6,588.5 23.6,580.9 	"/>
	<g>
		<path class="st6" d="M134.4,617.5c9.9,0,16.4-5.7,16.4-16c0-12.6-7.6-13.7-21.3-13.7h-9.9v29.7H134.4L134.4,617.5z M120,655.2
			h-8.8v-74.2h23.6c15.6,0,25.1,5.3,25.1,20.2c0,12.6-7.6,18.3-14.1,20.6c3.8,1.1,4.9,3,7.2,7.6l12.2,26.3h-9.5l-11-23.2
			c-1.9-4.2-4.2-7.2-8.8-7.2h-16.4v30.1H120z"/>
	</g>
	<polygon class="st6" points="198.8,580.9 240.3,580.9 240.3,588.5 207.5,588.5 207.5,613.3 235.7,613.3 235.7,620.9 207.5,620.9 
		207.5,647.6 241,647.6 241,655.2 198.8,655.2 	"/>
	<path class="st6" d="M288.2,625.1h25.1l-12.6-36.2L288.2,625.1z M269.2,655.2l26.3-74.2h10.7l26.6,74.2h-9.1l-8-22.8h-29.3l-8,22.8
		H269.2z"/>
	<path class="st6" d="M364,642.2c3.4,2.3,11.4,6.5,20.2,6.5c7.6,0,15.6-2.3,15.6-13.7c0-8.8-8-11.8-16.8-14.5
		c-10.7-3-21.3-6.9-21.3-20.6c0-12.6,9.5-20.6,23.6-20.6c9.9,0,19,4.6,24,9.9l-4.9,6.1c-5.7-4.9-12.2-8.4-19.4-8.4
		c-6.1,0-14.5,2.7-14.5,12.2c0,8.8,7.6,11.4,17.1,14.5c10.3,3.4,20.9,7.2,20.9,21.3s-9.5,21.7-25.1,21.7c-10.7,0-20.6-4.2-23.6-6.9
		L364,642.2z"/>
	<path class="st6" d="M452.7,580.9v51c0,12.9,7.6,17.1,18.3,17.1c10.3,0,17.5-5.3,17.5-16.4v-51.8h8.8v53.3
		c0,14.5-10.7,22.1-26.6,22.1c-17.5,0-26.3-6.9-26.3-24.4v-51.4h8.4V580.9z"/>
	<path class="st6" d="M556.3,617.5c9.9,0,16.4-5.7,16.4-16c0-12.6-7.6-13.7-21.3-13.7h-9.9v29.7H556.3L556.3,617.5z M541.8,655.2
		H533v-74.2h23.6c15.6,0,25.1,5.3,25.1,20.2c0,12.6-7.6,18.3-14.1,20.6c3.8,1.1,4.9,3,7.2,7.6l12.2,26.3h-9.5l-11-23.2
		c-1.9-4.2-4.2-7.2-8.8-7.2h-16.4v30.1H541.8z"/>
	<polygon class="st6" points="621,580.9 662.5,580.9 662.5,588.5 629.7,588.5 629.7,613.3 657.9,613.3 657.9,620.9 629.7,620.9 
		629.7,647.6 663.2,647.6 663.2,655.2 621,655.2 	"/>
</g>
</svg>
