<?xml version="1.0" encoding="UTF-8"?>

<svg version="1.2" baseProfile="tiny" width="107.24mm" height="35.17mm" viewBox="10988 6464 10724 3517" preserveAspectRatio="xMidYMid" fill-rule="evenodd" stroke-width="28.222" stroke-linejoin="round" xmlns="http://www.w3.org/2000/svg" xmlns:ooo="http://xml.openoffice.org/svg/export" xmlns:xlink="http://www.w3.org/1999/xlink" xml:space="preserve">
 <defs class="ClipPathGroup">
  <clipPath id="presentation_clip_path" clipPathUnits="userSpaceOnUse">
   <rect x="10988" y="6464" width="10724" height="3517"/>
  </clipPath>
 </defs>
 <defs class="TextShapeIndex">
  <g ooo:slide="id1" ooo:id-list="id3 id4 id5 id6 id7 id8 id9 id10 id11 id12 id13 id14 id15 id16 id17 id18 id19 id20 id21 id22 id23 id24 id25 id26 id27 id28 id29 id30 id31 id32 id33 id34 id35 id36 id37 id38 id39 id40 id41 id42 id43 id44 id45 id46 id47 id48 id49 id50 id51 id52 id53 id54 id55 id56 id57 id58 id59"/>
 </defs>
 <defs class="EmbeddedBulletChars">
  <g id="bullet-char-template(57356)" transform="scale(0.00048828125,-0.00048828125)">
   <path d="M 580,1141 L 1163,571 580,0 -4,571 580,1141 Z"/>
  </g>
  <g id="bullet-char-template(57354)" transform="scale(0.00048828125,-0.00048828125)">
   <path d="M 8,1128 L 1137,1128 1137,0 8,0 8,1128 Z"/>
  </g>
  <g id="bullet-char-template(10146)" transform="scale(0.00048828125,-0.00048828125)">
   <path d="M 174,0 L 602,739 174,1481 1456,739 174,0 Z M 1358,739 L 309,1346 659,739 1358,739 Z"/>
  </g>
  <g id="bullet-char-template(10132)" transform="scale(0.00048828125,-0.00048828125)">
   <path d="M 2015,739 L 1276,0 717,0 1260,543 174,543 174,936 1260,936 717,1481 1274,1481 2015,739 Z"/>
  </g>
  <g id="bullet-char-template(10007)" transform="scale(0.00048828125,-0.00048828125)">
   <path d="M 0,-2 C -7,14 -16,27 -25,37 L 356,567 C 262,823 215,952 215,954 215,979 228,992 255,992 264,992 276,990 289,987 310,991 331,999 354,1012 L 381,999 492,748 772,1049 836,1024 860,1049 C 881,1039 901,1025 922,1006 886,937 835,863 770,784 769,783 710,716 594,584 L 774,223 C 774,196 753,168 711,139 L 727,119 C 717,90 699,76 672,76 641,76 570,178 457,381 L 164,-76 C 142,-110 111,-127 72,-127 30,-127 9,-110 8,-76 1,-67 -2,-52 -2,-32 -2,-23 -1,-13 0,-2 Z"/>
  </g>
  <g id="bullet-char-template(10004)" transform="scale(0.00048828125,-0.00048828125)">
   <path d="M 285,-33 C 182,-33 111,30 74,156 52,228 41,333 41,471 41,549 55,616 82,672 116,743 169,778 240,778 293,778 328,747 346,684 L 369,508 C 377,444 397,411 428,410 L 1163,1116 C 1174,1127 1196,1133 1229,1133 1271,1133 1292,1118 1292,1087 L 1292,965 C 1292,929 1282,901 1262,881 L 442,47 C 390,-6 338,-33 285,-33 Z"/>
  </g>
  <g id="bullet-char-template(9679)" transform="scale(0.00048828125,-0.00048828125)">
   <path d="M 813,0 C 632,0 489,54 383,161 276,268 223,411 223,592 223,773 276,916 383,1023 489,1130 632,1184 813,1184 992,1184 1136,1130 1245,1023 1353,916 1407,772 1407,592 1407,412 1353,268 1245,161 1136,54 992,0 813,0 Z"/>
  </g>
  <g id="bullet-char-template(8226)" transform="scale(0.00048828125,-0.00048828125)">
   <path d="M 346,457 C 273,457 209,483 155,535 101,586 74,649 74,723 74,796 101,859 155,911 209,963 273,989 346,989 419,989 480,963 531,910 582,859 608,796 608,723 608,648 583,586 532,535 482,483 420,457 346,457 Z"/>
  </g>
  <g id="bullet-char-template(8211)" transform="scale(0.00048828125,-0.00048828125)">
   <path d="M -4,459 L 1135,459 1135,606 -4,606 -4,459 Z"/>
  </g>
 </defs>
 <defs class="TextEmbeddedBitmaps"/>
 <g class="SlideGroup">
  <g>
   <g id="id1" class="Slide" clip-path="url(#presentation_clip_path)">
    <g class="Page">
     <g class="com.sun.star.drawing.PolyPolygonShape">
      <g id="id3">
       <path fill="rgb(79,76,77)" stroke="none" d="M 10988,9624 L 11042,9624 11042,9978 10988,9978 10988,9624 Z"/>
      </g>
     </g>
     <g class="com.sun.star.drawing.PolyPolygonShape">
      <g id="id4">
       <path fill="rgb(79,76,77)" stroke="none" d="M 11261,9672 L 11261,9978 11207,9978 11207,9672 11110,9672 11110,9624 11359,9624 11359,9672 11261,9672 Z"/>
      </g>
     </g>
     <g class="com.sun.star.drawing.ClosedBezierShape">
      <g id="id5">
       <path fill="rgb(79,76,77)" stroke="none" d="M 11666,9981 C 11630,9981 11598,9967 11574,9943 11539,9909 11539,9869 11539,9800 11539,9733 11539,9693 11574,9659 11598,9634 11630,9621 11666,9621 11732,9621 11781,9659 11793,9730 L 11739,9730 C 11730,9694 11705,9669 11666,9669 11645,9669 11627,9677 11614,9690 11597,9709 11593,9730 11593,9800 11593,9872 11597,9893 11614,9912 11627,9925 11645,9933 11666,9933 11705,9933 11731,9908 11739,9872 L 11793,9872 C 11781,9943 11731,9981 11666,9981 Z"/>
      </g>
     </g>
     <g class="com.sun.star.drawing.ClosedBezierShape">
      <g id="id6">
       <path fill="rgb(79,76,77)" stroke="none" d="M 12038,9691 C 12026,9677 12006,9669 11985,9669 11964,9669 11945,9677 11932,9691 11915,9710 11912,9730 11912,9800 11912,9872 11915,9892 11932,9911 11945,9924 11964,9933 11985,9933 12006,9933 12026,9924 12038,9911 12056,9892 12059,9872 12059,9800 12059,9730 12056,9710 12038,9691 Z M 12079,9943 C 12055,9967 12024,9981 11985,9981 11947,9981 11917,9967 11892,9943 11858,9909 11858,9869 11858,9800 11858,9733 11858,9693 11892,9659 11917,9634 11947,9621 11985,9621 12024,9621 12055,9634 12079,9659 12114,9693 12113,9733 12113,9800 12113,9869 12114,9909 12079,9943 Z"/>
      </g>
     </g>
     <g class="com.sun.star.drawing.PolyPolygonShape">
      <g id="id7">
       <path fill="rgb(79,76,77)" stroke="none" d="M 12416,9978 L 12252,9730 12252,9978 12198,9978 12198,9624 12248,9624 12412,9873 12412,9624 12465,9624 12465,9978 12416,9978 Z"/>
      </g>
     </g>
     <g class="com.sun.star.drawing.ClosedBezierShape">
      <g id="id8">
       <path fill="rgb(79,76,77)" stroke="none" d="M 12657,9981 C 12604,9981 12566,9968 12532,9934 L 12568,9899 C 12594,9925 12622,9933 12658,9933 12705,9933 12732,9913 12732,9879 12732,9863 12728,9851 12718,9841 12709,9833 12701,9829 12680,9826 L 12637,9820 C 12608,9816 12585,9806 12570,9792 12553,9776 12544,9753 12544,9725 12544,9663 12589,9621 12662,9621 12710,9621 12743,9633 12773,9661 L 12739,9695 C 12717,9674 12692,9668 12661,9668 12619,9668 12596,9691 12596,9723 12596,9736 12600,9747 12610,9755 12619,9763 12633,9769 12649,9772 L 12691,9778 C 12723,9783 12742,9790 12757,9804 12776,9821 12785,9847 12785,9877 12785,9942 12732,9981 12657,9981 Z"/>
      </g>
     </g>
     <g class="com.sun.star.drawing.ClosedBezierShape">
      <g id="id9">
       <path fill="rgb(79,76,77)" stroke="none" d="M 12984,9981 C 12913,9981 12858,9932 12858,9859 L 12858,9624 12912,9624 12912,9856 C 12912,9904 12940,9933 12984,9933 13029,9933 13059,9904 13059,9856 L 13059,9624 13112,9624 13112,9859 C 13112,9932 13057,9981 12984,9981 Z"/>
      </g>
     </g>
     <g class="com.sun.star.drawing.PolyPolygonShape">
      <g id="id10">
       <path fill="rgb(79,76,77)" stroke="none" d="M 13205,9978 L 13205,9624 13259,9624 13259,9930 13430,9930 13430,9978 13205,9978 Z"/>
      </g>
     </g>
     <g class="com.sun.star.drawing.PolyPolygonShape">
      <g id="id11">
       <path fill="rgb(79,76,77)" stroke="none" d="M 13617,9672 L 13617,9978 13563,9978 13563,9672 13466,9672 13466,9624 13715,9624 13715,9672 13617,9672 Z"/>
      </g>
     </g>
     <g class="com.sun.star.drawing.PolyPolygonShape">
      <g id="id12">
       <path fill="rgb(79,76,77)" stroke="none" d="M 13782,9624 L 13837,9624 13837,9978 13782,9978 13782,9624 Z"/>
      </g>
     </g>
     <g class="com.sun.star.drawing.PolyPolygonShape">
      <g id="id13">
       <path fill="rgb(79,76,77)" stroke="none" d="M 14152,9978 L 13989,9730 13989,9978 13935,9978 13935,9624 13985,9624 14148,9873 14148,9624 14202,9624 14202,9978 14152,9978 Z"/>
      </g>
     </g>
     <g class="com.sun.star.drawing.ClosedBezierShape">
      <g id="id14">
       <path fill="rgb(79,76,77)" stroke="none" d="M 14513,9941 C 14486,9969 14453,9981 14416,9981 14378,9981 14346,9968 14322,9943 14287,9909 14288,9869 14288,9800 14288,9733 14287,9693 14322,9659 14346,9634 14377,9621 14416,9621 14491,9621 14534,9670 14544,9731 L 14490,9731 C 14481,9692 14455,9669 14416,9669 14394,9669 14375,9677 14363,9691 14345,9710 14341,9730 14341,9800 14341,9872 14345,9893 14363,9912 14375,9925 14394,9933 14416,9933 14439,9933 14459,9924 14473,9908 14486,9893 14491,9875 14491,9853 L 14491,9832 14416,9832 14416,9786 14545,9786 14545,9840 C 14545,9887 14536,9916 14513,9941 Z"/>
      </g>
     </g>
     <g class="com.sun.star.drawing.ClosedBezierShape">
      <g id="id15">
       <path fill="rgb(79,76,77)" stroke="none" d="M 14864,9665 C 14842,9665 14829,9680 14829,9700 14829,9714 14839,9728 14857,9748 14862,9745 14874,9737 14874,9737 14888,9728 14899,9717 14899,9700 14899,9680 14885,9665 14864,9665 Z M 14842,9807 C 14817,9825 14795,9841 14795,9875 14795,9910 14822,9935 14859,9935 14883,9935 14903,9928 14926,9908 L 14842,9807 Z M 14985,9978 L 14956,9943 C 14941,9957 14912,9981 14859,9981 14784,9981 14744,9940 14744,9876 14744,9826 14779,9798 14815,9775 14799,9757 14777,9732 14777,9699 14777,9654 14812,9621 14864,9621 14914,9621 14948,9655 14948,9700 14948,9728 14933,9747 14910,9762 14910,9762 14893,9774 14885,9780 L 14959,9870 C 14972,9852 14977,9830 14978,9798 L 15026,9798 C 15025,9843 15015,9880 14991,9908 L 15050,9978 14985,9978 Z"/>
      </g>
     </g>
     <g class="com.sun.star.drawing.ClosedBezierShape">
      <g id="id16">
       <path fill="rgb(79,76,77)" stroke="none" d="M 15345,9981 C 15292,9981 15254,9968 15220,9934 L 15256,9899 C 15282,9925 15310,9933 15346,9933 15393,9933 15419,9913 15419,9879 15419,9863 15415,9851 15405,9841 15396,9833 15388,9829 15367,9826 L 15325,9820 C 15296,9816 15273,9806 15258,9792 15241,9776 15232,9753 15232,9725 15232,9663 15277,9621 15350,9621 15397,9621 15430,9633 15461,9661 L 15426,9695 C 15404,9674 15379,9668 15349,9668 15307,9668 15284,9691 15284,9723 15284,9736 15288,9747 15298,9755 15307,9763 15321,9769 15337,9772 L 15378,9778 C 15410,9783 15429,9790 15445,9804 15464,9821 15473,9847 15473,9877 15473,9942 15419,9981 15345,9981 Z"/>
      </g>
     </g>
     <g class="com.sun.star.drawing.ClosedBezierShape">
      <g id="id17">
       <path fill="rgb(79,76,77)" stroke="none" d="M 15719,9691 C 15707,9677 15687,9669 15667,9669 15646,9669 15626,9677 15614,9691 15597,9710 15593,9730 15593,9800 15593,9872 15597,9892 15614,9911 15626,9924 15646,9933 15667,9933 15687,9933 15707,9924 15719,9911 15737,9892 15740,9872 15740,9800 15740,9730 15737,9710 15719,9691 Z M 15760,9943 C 15735,9967 15704,9981 15667,9981 15629,9981 15598,9967 15574,9943 15538,9909 15539,9869 15539,9800 15539,9733 15538,9693 15574,9659 15598,9634 15629,9621 15667,9621 15704,9621 15735,9634 15760,9659 15794,9693 15793,9733 15793,9800 15793,9869 15794,9909 15760,9943 Z"/>
      </g>
     </g>
     <g class="com.sun.star.drawing.PolyPolygonShape">
      <g id="id18">
       <path fill="rgb(79,76,77)" stroke="none" d="M 15879,9978 L 15879,9624 15933,9624 15933,9930 16104,9930 16104,9978 15879,9978 Z"/>
      </g>
     </g>
     <g class="com.sun.star.drawing.ClosedBezierShape">
      <g id="id19">
       <path fill="rgb(79,76,77)" stroke="none" d="M 16292,9981 C 16220,9981 16166,9932 16166,9859 L 16166,9624 16219,9624 16219,9856 C 16219,9904 16248,9933 16292,9933 16337,9933 16366,9904 16366,9856 L 16366,9624 16420,9624 16420,9859 C 16420,9932 16365,9981 16292,9981 Z"/>
      </g>
     </g>
     <g class="com.sun.star.drawing.PolyPolygonShape">
      <g id="id20">
       <path fill="rgb(79,76,77)" stroke="none" d="M 16632,9672 L 16632,9978 16579,9978 16579,9672 16482,9672 16482,9624 16731,9624 16731,9672 16632,9672 Z"/>
      </g>
     </g>
     <g class="com.sun.star.drawing.PolyPolygonShape">
      <g id="id21">
       <path fill="rgb(79,76,77)" stroke="none" d="M 16798,9624 L 16852,9624 16852,9978 16798,9978 16798,9624 Z"/>
      </g>
     </g>
     <g class="com.sun.star.drawing.ClosedBezierShape">
      <g id="id22">
       <path fill="rgb(79,76,77)" stroke="none" d="M 17119,9691 C 17106,9677 17087,9669 17065,9669 17044,9669 17025,9677 17013,9691 16995,9710 16992,9730 16992,9800 16992,9872 16995,9892 17013,9911 17025,9924 17044,9933 17065,9933 17087,9933 17106,9924 17119,9911 17136,9892 17139,9872 17139,9800 17139,9730 17136,9710 17119,9691 Z M 17159,9943 C 17135,9967 17104,9981 17065,9981 17027,9981 16997,9967 16972,9943 16938,9909 16938,9869 16938,9800 16938,9733 16938,9693 16972,9659 16997,9634 17027,9621 17065,9621 17104,9621 17135,9634 17159,9659 17194,9693 17193,9733 17193,9800 17193,9869 17194,9909 17159,9943 Z"/>
      </g>
     </g>
     <g class="com.sun.star.drawing.PolyPolygonShape">
      <g id="id23">
       <path fill="rgb(79,76,77)" stroke="none" d="M 17496,9978 L 17332,9730 17332,9978 17279,9978 17279,9624 17328,9624 17492,9873 17492,9624 17545,9624 17545,9978 17496,9978 Z"/>
      </g>
     </g>
     <g class="com.sun.star.drawing.PolyPolygonShape">
      <g id="id24">
       <path fill="rgb(79,76,77)" stroke="none" d="M 17824,9672 L 17824,9781 17972,9781 17972,9829 17824,9829 17824,9978 17770,9978 17770,9624 17997,9624 17997,9672 17824,9672 Z"/>
      </g>
     </g>
     <g class="com.sun.star.drawing.ClosedBezierShape">
      <g id="id25">
       <path fill="rgb(79,76,77)" stroke="none" d="M 18235,9691 C 18223,9677 18203,9669 18183,9669 18162,9669 18142,9677 18130,9691 18113,9710 18109,9730 18109,9800 18109,9872 18113,9892 18130,9911 18142,9924 18162,9933 18183,9933 18203,9933 18223,9924 18235,9911 18252,9892 18256,9872 18256,9800 18256,9730 18252,9710 18235,9691 Z M 18276,9943 C 18252,9967 18220,9981 18183,9981 18145,9981 18114,9967 18089,9943 18054,9909 18055,9869 18055,9800 18055,9733 18054,9693 18089,9659 18114,9634 18145,9621 18183,9621 18220,9621 18252,9634 18276,9659 18311,9693 18310,9733 18310,9800 18310,9869 18311,9909 18276,9943 Z"/>
      </g>
     </g>
     <g class="com.sun.star.drawing.ClosedBezierShape">
      <g id="id26">
       <path fill="rgb(79,76,77)" stroke="none" d="M 18528,9672 L 18449,9672 18449,9784 18528,9784 C 18564,9784 18588,9763 18588,9729 18588,9693 18564,9672 18528,9672 Z M 18590,9978 L 18516,9829 18449,9829 18449,9978 18395,9978 18395,9624 18532,9624 C 18599,9624 18643,9667 18643,9728 18643,9779 18611,9811 18571,9822 L 18653,9978 18590,9978 Z"/>
      </g>
     </g>
     <g class="com.sun.star.drawing.PolyPolygonShape">
      <g id="id27">
       <path fill="rgb(79,76,77)" stroke="none" d="M 18974,9672 L 18974,9978 18920,9978 18920,9672 18822,9672 18822,9624 19071,9624 19071,9672 18974,9672 Z"/>
      </g>
     </g>
     <g class="com.sun.star.drawing.PolyPolygonShape">
      <g id="id28">
       <path fill="rgb(79,76,77)" stroke="none" d="M 19335,9978 L 19335,9824 19192,9824 19192,9978 19138,9978 19138,9624 19192,9624 19192,9776 19335,9776 19335,9624 19390,9624 19390,9978 19335,9978 Z"/>
      </g>
     </g>
     <g class="com.sun.star.drawing.PolyPolygonShape">
      <g id="id29">
       <path fill="rgb(79,76,77)" stroke="none" d="M 19488,9978 L 19488,9624 19715,9624 19715,9672 19542,9672 19542,9776 19690,9776 19690,9824 19542,9824 19542,9930 19715,9930 19715,9978 19488,9978 Z"/>
      </g>
     </g>
     <g class="com.sun.star.drawing.ClosedBezierShape">
      <g id="id30">
       <path fill="rgb(79,76,77)" stroke="none" d="M 20053,9672 L 19975,9672 19975,9791 20053,9791 C 20090,9791 20115,9769 20115,9732 20115,9694 20090,9672 20053,9672 Z M 20056,9839 L 19975,9839 19975,9978 19921,9978 19921,9624 20056,9624 C 20125,9624 20169,9670 20169,9732 20169,9794 20125,9839 20056,9839 Z"/>
      </g>
     </g>
     <g class="com.sun.star.drawing.PolyPolygonShape">
      <g id="id31">
       <path fill="rgb(79,76,77)" stroke="none" d="M 20240,9978 L 20240,9624 20467,9624 20467,9672 20294,9672 20294,9776 20441,9776 20441,9824 20294,9824 20294,9930 20467,9930 20467,9978 20240,9978 Z"/>
      </g>
     </g>
     <g class="com.sun.star.drawing.ClosedBezierShape">
      <g id="id32">
       <path fill="rgb(79,76,77)" stroke="none" d="M 20714,9691 C 20702,9677 20682,9669 20661,9669 20641,9669 20621,9677 20608,9691 20591,9710 20587,9730 20587,9800 20587,9872 20591,9892 20608,9911 20621,9924 20641,9933 20661,9933 20682,9933 20702,9924 20714,9911 20731,9892 20735,9872 20735,9800 20735,9730 20731,9710 20714,9691 Z M 20755,9943 C 20730,9967 20699,9981 20661,9981 20624,9981 20592,9967 20568,9943 20533,9909 20534,9869 20534,9800 20534,9733 20533,9693 20568,9659 20592,9634 20624,9621 20661,9621 20699,9621 20730,9634 20755,9659 20789,9693 20788,9733 20788,9800 20788,9869 20789,9909 20755,9943 Z"/>
      </g>
     </g>
     <g class="com.sun.star.drawing.ClosedBezierShape">
      <g id="id33">
       <path fill="rgb(79,76,77)" stroke="none" d="M 21005,9672 L 20928,9672 20928,9791 21005,9791 C 21043,9791 21068,9769 21068,9732 21068,9694 21043,9672 21005,9672 Z M 21008,9839 L 20928,9839 20928,9978 20874,9978 20874,9624 21008,9624 C 21078,9624 21122,9670 21122,9732 21122,9794 21078,9839 21008,9839 Z"/>
      </g>
     </g>
     <g class="com.sun.star.drawing.PolyPolygonShape">
      <g id="id34">
       <path fill="rgb(79,76,77)" stroke="none" d="M 21193,9978 L 21193,9624 21247,9624 21247,9930 21418,9930 21418,9978 21193,9978 Z"/>
      </g>
     </g>
     <g class="com.sun.star.drawing.PolyPolygonShape">
      <g id="id35">
       <path fill="rgb(79,76,77)" stroke="none" d="M 21485,9978 L 21485,9624 21712,9624 21712,9672 21540,9672 21540,9776 21686,9776 21686,9824 21540,9824 21540,9930 21712,9930 21712,9978 21485,9978 Z"/>
      </g>
     </g>
     <g class="com.sun.star.drawing.PolyPolygonShape">
      <g id="id36">
       <path fill="rgb(237,28,36)" stroke="none" d="M 15998,7336 L 15638,8040 15638,9254 16358,9254 16358,8040 15998,7336 Z"/>
      </g>
     </g>
     <g class="com.sun.star.drawing.ClosedBezierShape">
      <g id="id37">
       <path fill="rgb(237,28,36)" stroke="none" d="M 21422,6737 C 21230,6546 20961,6464 20671,6464 L 20359,6464 20359,7074 20624,7074 C 20796,7074 20889,7137 20953,7230 21008,7309 21027,7387 21027,7855 21027,8328 21008,8402 20953,8480 20889,8574 20796,8636 20624,8636 L 20359,8636 20359,9246 20671,9246 C 20961,9246 21230,9164 21422,8972 21746,8648 21711,8293 21711,7855 21711,7418 21746,7063 21422,6737 Z"/>
      </g>
     </g>
     <g class="com.sun.star.drawing.PolyPolygonShape">
      <g id="id38">
       <path fill="rgb(237,28,36)" stroke="none" d="M 11708,6464 L 10988,6464 11740,9254 11741,9254 12100,7921 11708,6464 Z"/>
      </g>
     </g>
     <g class="com.sun.star.drawing.PolyPolygonShape">
      <g id="id39">
       <path fill="rgb(237,28,36)" stroke="none" d="M 12493,6464 L 12099,7921 12460,9254 12461,9254 12853,7799 12493,6464 Z"/>
      </g>
     </g>
     <g class="com.sun.star.drawing.PolyPolygonShape">
      <g id="id40">
       <path fill="rgb(186,21,27)" stroke="none" d="M 11740,9254 L 12460,9254 12101,7920 11740,9254 Z"/>
      </g>
     </g>
     <g class="com.sun.star.drawing.PolyPolygonShape">
      <g id="id41">
       <path fill="rgb(237,28,36)" stroke="none" d="M 13996,6464 L 13603,7918 13964,9253 14715,6464 13996,6464 Z"/>
      </g>
     </g>
     <g class="com.sun.star.drawing.PolyPolygonShape">
      <g id="id42">
       <path fill="rgb(145,143,143)" stroke="none" d="M 13243,9253 L 13244,9253 13243,9252 13243,9253 Z"/>
      </g>
     </g>
     <g class="com.sun.star.drawing.PolyPolygonShape">
      <g id="id43">
       <path fill="rgb(145,143,143)" stroke="none" d="M 13963,9253 L 13963,9252 13962,9253 13963,9253 Z"/>
      </g>
     </g>
     <g class="com.sun.star.drawing.PolyPolygonShape">
      <g id="id44">
       <path fill="rgb(237,28,36)" stroke="none" d="M 13212,6464 L 12852,7799 13244,9253 13604,7918 13212,6464 Z"/>
      </g>
     </g>
     <g class="com.sun.star.drawing.PolyPolygonShape">
      <g id="id45">
       <path fill="rgb(186,21,27)" stroke="none" d="M 12492,6464 L 12853,7799 13212,6464 12492,6464 Z"/>
      </g>
     </g>
     <g class="com.sun.star.drawing.PolyPolygonShape">
      <g id="id46">
       <path fill="rgb(186,21,27)" stroke="none" d="M 13243,9253 L 13244,9254 13963,9254 13964,9253 13604,7917 13243,9253 Z"/>
      </g>
     </g>
     <g class="com.sun.star.drawing.PolyPolygonShape">
      <g id="id47">
       <path fill="rgb(145,143,143)" stroke="none" d="M 16357,8040 L 16357,8040 Z"/>
      </g>
     </g>
     <g class="com.sun.star.drawing.PolyPolygonShape">
      <g id="id48">
       <path fill="rgb(237,28,36)" stroke="none" d="M 15552,6464 L 14832,6464 15638,8041 15999,7337 15552,6464 Z"/>
      </g>
     </g>
     <g class="com.sun.star.drawing.PolyPolygonShape">
      <g id="id49">
       <path fill="rgb(145,143,143)" stroke="none" d="M 15638,8040 L 15638,8040 Z"/>
      </g>
     </g>
     <g class="com.sun.star.drawing.PolyPolygonShape">
      <g id="id50">
       <path fill="rgb(237,28,36)" stroke="none" d="M 16444,6464 L 15998,7337 16357,8041 17164,6464 16444,6464 Z"/>
      </g>
     </g>
     <g class="com.sun.star.drawing.PolyPolygonShape">
      <g id="id51">
       <path fill="rgb(186,21,27)" stroke="none" d="M 15638,8041 L 16358,8041 15998,7336 15638,8041 Z"/>
      </g>
     </g>
     <g class="com.sun.star.drawing.PolyPolygonShape">
      <g id="id52">
       <path fill="rgb(237,28,36)" stroke="none" d="M 18016,7077 L 17295,7077 17295,7641 18016,7641 18016,7077 Z"/>
      </g>
     </g>
     <g class="com.sun.star.drawing.PolyPolygonShape">
      <g id="id53">
       <path fill="rgb(237,28,36)" stroke="none" d="M 17295,9254 L 18016,9254 18016,8210 17295,8210 17295,9254 Z"/>
      </g>
     </g>
     <g class="com.sun.star.drawing.PolyPolygonShape">
      <g id="id54">
       <path fill="rgb(237,28,36)" stroke="none" d="M 20360,7073 L 19640,7073 19640,8636 20360,8636 20360,7073 Z"/>
      </g>
     </g>
     <g class="com.sun.star.drawing.PolyPolygonShape">
      <g id="id55">
       <path fill="rgb(186,21,27)" stroke="none" d="M 20360,6464 L 19234,6464 19640,7074 20360,7074 20360,6464 Z"/>
      </g>
     </g>
     <g class="com.sun.star.drawing.PolyPolygonShape">
      <g id="id56">
       <path fill="rgb(186,21,27)" stroke="none" d="M 19640,9246 L 20360,9246 20360,8635 19640,8635 19640,9246 Z"/>
      </g>
     </g>
     <g class="com.sun.star.drawing.ClosedBezierShape">
      <g id="id57">
       <path fill="rgb(237,28,36)" stroke="none" d="M 19347,7359 C 19347,6901 19015,6464 18397,6464 L 18015,6464 18015,7078 18365,7078 C 18554,7078 18663,7215 18663,7359 18663,7504 18554,7641 18365,7641 L 18015,7641 18015,8211 18209,8211 18702,9246 19495,9246 18894,8086 C 19112,7976 19347,7738 19347,7359 Z"/>
      </g>
     </g>
     <g class="com.sun.star.drawing.PolyPolygonShape">
      <g id="id58">
       <path fill="rgb(186,21,27)" stroke="none" d="M 17295,8211 L 18016,8211 18016,7640 17295,7640 17295,8211 Z"/>
      </g>
     </g>
     <g class="com.sun.star.drawing.PolyPolygonShape">
      <g id="id59">
       <path fill="rgb(186,21,27)" stroke="none" d="M 18016,6464 L 17295,6464 17295,7078 18016,7078 18016,6464 Z"/>
      </g>
     </g>
    </g>
   </g>
  </g>
 </g>
</svg>